<?xml version="1.0" encoding="utf-8"?>
<!-- Generator: Adobe Illustrator 22.1.0, SVG Export Plug-In . SVG Version: 6.00 Build 0)  -->
<svg version="1.1" id="Layer_1" xmlns="http://www.w3.org/2000/svg" xmlns:xlink="http://www.w3.org/1999/xlink" x="0px" y="0px"
	 viewBox="0 0 365.1 131.4" style="enable-background:new 0 0 365.1 131.4;" xml:space="preserve">
<g>
	<path style="fill:#FFFFFF;" d="M42.3,70.1V38.6L30.9,61.5h-6.5L12.9,38.6v31.5H0.8V17.5H14L27.6,45l13.7-27.5h13.1v52.5H42.3z"/>
	<path style="fill:#FFFFFF;" d="M71.8,70.1V17.5H84v52.5H71.8z"/>
	<path style="fill:#FFFFFF;" d="M113.6,40v30h-12.1V17.5h9.5l24.5,30.9V17.5h12.1v52.5h-9.8L113.6,40z"/>
	<path style="fill:#FFFFFF;" d="M205,28.2h-16v41.9h-12.1V28.2h-16.1V17.5H205V28.2z"/>
</g>
<g>
	<g>
		<path style="fill:#FFFFFF;" d="M27.1,99.8H22v-9.4c0-1.1-0.2-1.9-0.6-2.4c-0.4-0.5-0.9-0.8-1.6-0.8c-0.3,0-0.7,0.1-1,0.2
			c-0.4,0.1-0.7,0.4-1,0.6S17.2,88.7,17,89c-0.2,0.4-0.4,0.8-0.6,1.2v9.6h-5.1v-9.4c0-1.1-0.2-1.9-0.6-2.4c-0.4-0.5-0.9-0.8-1.6-0.8
			c-0.7,0-1.3,0.3-2,0.8c-0.7,0.5-1.1,1.3-1.4,2.2v9.6H0.5V83h4.6v2.8c0.6-1,1.5-1.8,2.5-2.3c1.1-0.5,2.3-0.8,3.7-0.8
			c0.7,0,1.3,0.1,1.8,0.3s1,0.4,1.4,0.7s0.7,0.6,0.9,1s0.4,0.8,0.5,1.3c0.6-1,1.5-1.9,2.5-2.4c1-0.6,2.2-0.8,3.6-0.8
			c1.1,0,1.9,0.2,2.6,0.6c0.7,0.4,1.2,0.9,1.5,1.5c0.4,0.6,0.6,1.3,0.7,2.1c0.1,0.7,0.2,1.5,0.2,2.2V99.8z"/>
		<path style="fill:#FFFFFF;" d="M39.3,100.2c-1.4,0-2.7-0.2-3.8-0.7c-1.1-0.5-2.1-1.1-2.8-1.9c-0.8-0.8-1.4-1.7-1.8-2.7
			c-0.4-1-0.6-2.1-0.6-3.2c0-1.2,0.2-2.4,0.6-3.4s1-2,1.8-2.8c0.8-0.8,1.7-1.5,2.8-1.9c1.1-0.5,2.4-0.7,3.8-0.7s2.7,0.2,3.8,0.7
			c1.1,0.5,2,1.1,2.8,1.9c0.8,0.8,1.3,1.7,1.7,2.8s0.6,2.1,0.6,3.3c0,0.3,0,0.6,0,0.9c0,0.3-0.1,0.5-0.1,0.8H35.7
			c0.1,1.1,0.5,2,1.2,2.6c0.7,0.6,1.6,0.9,2.5,0.9c0.7,0,1.5-0.2,2.2-0.5c0.7-0.4,1.2-0.9,1.4-1.5l4.4,1.2c-0.7,1.3-1.7,2.4-3.1,3.2
			C42.9,99.7,41.2,100.2,39.3,100.2z M42.8,89.8c-0.1-1.1-0.5-1.9-1.2-2.5c-0.7-0.6-1.5-0.9-2.5-0.9c-1,0-1.8,0.3-2.5,0.9
			s-1,1.5-1.1,2.5H42.8z"/>
		<path style="fill:#FFFFFF;" d="M77.9,99.8h-5.1v-9.4c0-1.1-0.2-1.9-0.6-2.4c-0.4-0.5-0.9-0.8-1.6-0.8c-0.3,0-0.7,0.1-1,0.2
			c-0.4,0.1-0.7,0.4-1,0.6S68,88.7,67.8,89c-0.2,0.4-0.4,0.8-0.6,1.2v9.6h-5.1v-9.4c0-1.1-0.2-1.9-0.6-2.4c-0.4-0.5-0.9-0.8-1.6-0.8
			c-0.7,0-1.3,0.3-2,0.8c-0.7,0.5-1.1,1.3-1.4,2.2v9.6h-5.1V83H56v2.8c0.6-1,1.5-1.8,2.5-2.3c1.1-0.5,2.3-0.8,3.7-0.8
			c0.7,0,1.3,0.1,1.8,0.3c0.5,0.2,1,0.4,1.4,0.7s0.7,0.6,0.9,1s0.4,0.8,0.5,1.3c0.6-1,1.5-1.9,2.5-2.4c1-0.6,2.2-0.8,3.6-0.8
			c1.1,0,1.9,0.2,2.6,0.6c0.7,0.4,1.2,0.9,1.5,1.5c0.4,0.6,0.6,1.3,0.7,2.1c0.1,0.7,0.2,1.5,0.2,2.2V99.8z"/>
		<path style="fill:#FFFFFF;" d="M90.1,100.2c-1.4,0-2.7-0.2-3.8-0.7c-1.1-0.5-2.1-1.1-2.8-1.9c-0.8-0.8-1.3-1.7-1.7-2.8
			c-0.4-1.1-0.6-2.2-0.6-3.3c0-1.2,0.2-2.3,0.6-3.3c0.4-1.1,1-2,1.7-2.8c0.8-0.8,1.7-1.4,2.8-1.9c1.1-0.5,2.4-0.7,3.8-0.7
			c1.4,0,2.7,0.2,3.8,0.7c1.1,0.5,2,1.1,2.8,1.9c0.8,0.8,1.4,1.7,1.8,2.8c0.4,1.1,0.6,2.2,0.6,3.3c0,1.2-0.2,2.3-0.6,3.3
			s-1,2-1.7,2.8C96,98.3,95,99,93.9,99.4C92.8,99.9,91.5,100.2,90.1,100.2z M86.3,91.4c0,1.3,0.4,2.4,1.1,3.2s1.6,1.2,2.7,1.2
			c0.5,0,1-0.1,1.5-0.3c0.4-0.2,0.8-0.5,1.2-0.9c0.3-0.4,0.6-0.8,0.8-1.4c0.2-0.5,0.3-1.1,0.3-1.8c0-1.3-0.4-2.4-1.1-3.2
			s-1.6-1.2-2.7-1.2c-0.5,0-1,0.1-1.5,0.3c-0.5,0.2-0.9,0.5-1.2,0.9c-0.3,0.4-0.6,0.8-0.8,1.4C86.4,90.2,86.3,90.8,86.3,91.4z"/>
		<path style="fill:#FFFFFF;" d="M113.1,87.4c-1.2,0-2.4,0.2-3.4,0.6c-1,0.4-1.7,1-2.2,1.7v10.1h-5.1V83h4.7v3.4
			c0.6-1.1,1.3-2,2.2-2.7c0.9-0.6,1.9-1,2.9-1c0.2,0,0.4,0,0.5,0c0.1,0,0.2,0,0.3,0V87.4z"/>
		<path style="fill:#FFFFFF;" d="M116.1,102.4c0.4,0.1,0.8,0.3,1.2,0.3c0.4,0.1,0.7,0.1,1,0.1c0.6,0,1.1-0.2,1.4-0.6
			c0.3-0.4,0.7-1.2,0.9-2.3L114.3,83h5.3l3.9,12.4l3.4-12.4h4.8l-6.4,19.5c-0.4,1.4-1.2,2.5-2.4,3.4c-1.2,0.9-2.5,1.3-4.1,1.3
			c-0.4,0-0.9,0-1.3-0.1c-0.4-0.1-0.9-0.2-1.3-0.4V102.4z"/>
		<path style="fill:#FFFFFF;" d="M140.9,91.4c0-1.2,0.2-2.3,0.6-3.3c0.4-1.1,1-2,1.8-2.8c0.8-0.8,1.7-1.4,2.8-1.9
			c1.1-0.5,2.4-0.7,3.8-0.7c1.9,0,3.6,0.4,4.9,1.2c1.3,0.8,2.3,1.9,3,3.2l-5,1.5c-0.7-1.1-1.6-1.6-2.9-1.6c-1.1,0-2,0.4-2.7,1.2
			s-1.1,1.8-1.1,3.2c0,0.7,0.1,1.3,0.3,1.8s0.5,1,0.8,1.4c0.3,0.4,0.7,0.7,1.2,0.9c0.5,0.2,0.9,0.3,1.5,0.3c0.6,0,1.2-0.2,1.8-0.5
			s0.9-0.7,1.2-1.2l5,1.5c-0.6,1.3-1.6,2.4-3,3.2c-1.4,0.8-3,1.2-4.9,1.2c-1.4,0-2.7-0.2-3.8-0.7c-1.1-0.5-2.1-1.1-2.8-1.9
			c-0.8-0.8-1.4-1.7-1.8-2.8C141.1,93.7,140.9,92.6,140.9,91.4z"/>
		<path style="fill:#FFFFFF;" d="M160.8,76.5h5.1v17.4c0,1.3,0.5,1.9,1.6,1.9c0.3,0,0.5,0,0.8-0.1c0.3-0.1,0.6-0.2,0.8-0.3l0.7,3.8
			c-0.6,0.3-1.4,0.5-2.2,0.7c-0.8,0.2-1.6,0.3-2.3,0.3c-1.5,0-2.6-0.4-3.4-1.2s-1.2-1.9-1.2-3.3V76.5z"/>
		<path style="fill:#FFFFFF;" d="M172.4,81.1v-4.6h5.1v4.6H172.4z M172.4,99.8V83h5.1v16.8H172.4z"/>
		<path style="fill:#FFFFFF;" d="M198.1,99.8h-5.1v-9.4c0-1.1-0.2-1.9-0.6-2.4c-0.4-0.5-1-0.8-1.6-0.8c-0.4,0-0.7,0.1-1.1,0.2
			c-0.4,0.1-0.7,0.4-1.1,0.6c-0.3,0.3-0.6,0.6-0.9,0.9c-0.3,0.4-0.5,0.8-0.6,1.2v9.6h-5.1V83h4.6v2.8c0.6-1,1.5-1.8,2.6-2.3
			c1.1-0.5,2.4-0.8,3.9-0.8c1.1,0,2,0.2,2.6,0.6c0.7,0.4,1.2,0.9,1.5,1.5c0.4,0.6,0.6,1.3,0.7,2.1c0.1,0.7,0.2,1.5,0.2,2.2V99.8z"/>
		<path style="fill:#FFFFFF;" d="M202.2,81.1v-4.6h5.1v4.6H202.2z M202.2,99.8V83h5.1v16.8H202.2z"/>
		<path style="fill:#FFFFFF;" d="M210.7,91.4c0-1.2,0.2-2.3,0.6-3.3c0.4-1.1,1-2,1.8-2.8c0.8-0.8,1.7-1.4,2.8-1.9
			c1.1-0.5,2.4-0.7,3.8-0.7c1.9,0,3.6,0.4,4.9,1.2c1.3,0.8,2.3,1.9,3,3.2l-5,1.5c-0.7-1.1-1.6-1.6-2.9-1.6c-1.1,0-2,0.4-2.7,1.2
			s-1.1,1.8-1.1,3.2c0,0.7,0.1,1.3,0.3,1.8c0.2,0.5,0.5,1,0.8,1.4c0.3,0.4,0.7,0.7,1.2,0.9c0.5,0.2,0.9,0.3,1.5,0.3
			c0.6,0,1.2-0.2,1.8-0.5c0.5-0.3,0.9-0.7,1.2-1.2l5,1.5c-0.6,1.3-1.6,2.4-3,3.2c-1.4,0.8-3,1.2-4.9,1.2c-1.4,0-2.7-0.2-3.8-0.7
			c-1.1-0.5-2.1-1.1-2.8-1.9c-0.8-0.8-1.4-1.7-1.8-2.8C210.9,93.7,210.7,92.6,210.7,91.4z"/>
	</g>
</g>
<g>
	<path style="fill:#FFFFFF;" d="M8.2,117.5C8,117.8,7.8,118,7.6,118s-0.2,0-0.2,0.1c0,0.1-0.1,0.1-0.3,0.2s-0.4,0-0.5-0.1
		c-0.2-0.1-0.3-0.2-0.3-0.3c0-0.1,0.1-0.4,0.2-1c0.1-0.6,0.1-0.9,0-1.1c-0.1-0.2-0.3-0.2-0.6,0c-0.6,0.4-1.1,0.8-1.4,1.4
		c-0.3,0.6-0.6,1.3-0.8,2.2c-0.2,0.9-0.3,1.5-0.3,1.7c0,0.3,0.1,0.5,0.2,0.6c0.5,0.1,0.9,0.1,1.3-0.1c0.4-0.2,0.9-0.6,1.5-1.1
		c0,0,0.1-0.1,0.2-0.3c0.1-0.2,0.2-0.3,0.3-0.3c0.1-0.2,0.3-0.3,0.6-0.3h0.5c0.3,0.1,0.5,0.3,0.7,0.6c0.1,0.2,0.1,0.3,0,0.3
		l-0.1,0.1c0.1,0.1-0.2,0.6-0.9,1.2c-0.6,0.7-1.1,1-1.3,1s-0.3,0.1-0.3,0.2c0,0.1-0.3,0.2-0.8,0.5c-0.5,0.3-0.9,0.4-1.2,0.5
		c-0.8,0.1-1.5,0-2.1-0.5c-0.6-0.5-1-1.1-1-1.9c-0.1-0.8,0.1-1.8,0.4-3c0.4-1.2,0.8-2.2,1.4-2.9c0.9-1.1,1.5-1.7,2-1.9
		c0.5-0.2,1-0.3,1.5-0.3c0.9,0.2,1.4,0.5,1.4,0.9l0.1,0.1c0.1,0,0.3,0.3,0.5,0.8c0.2,0.5,0.2,0.9,0.1,1.2
		C8.5,116.8,8.4,117.2,8.2,117.5z"/>
	<path style="fill:#FFFFFF;" d="M14.1,115.4c0.8-0.8,1.6-1.2,2.3-1.4c1-0.2,1.7-0.1,2.1,0.3c0.7,0.3,1,0.9,1.1,1.9
		c0.1,1.5-0.3,3-1.4,4.6c-0.6,0.9-1.5,1.8-2.5,2.4c-0.4,0.3-1.2,0.5-2.3,0.6c-0.3,0-0.6-0.2-1-0.5c-0.8-0.8-1.1-1.5-1-2.2l0-0.6
		c-0.1-0.1-0.1-0.2-0.1-0.2c0-0.1,0.1-0.1,0.1-0.1c0.1,0,0.1-0.1,0.1-0.3c0-0.2,0-0.5,0.2-1c0.2-0.5,0.3-0.9,0.6-1.3
		C12.9,116.6,13.4,115.9,14.1,115.4z M16.9,118.8c0-0.1,0.1-0.2,0.1-0.4s0.1-0.4,0.2-0.5c0.1-0.1,0.1-0.4,0.1-0.8
		c0-0.4-0.1-0.7-0.2-0.8c-0.2-0.1-0.3-0.1-0.4-0.1c-0.1,0-0.3,0.1-0.6,0.3c-1.3,1.1-2,2.3-2.3,3.6c0,0.4,0,0.8,0.1,1
		s0.4,0.3,0.7,0.2c0.3-0.1,0.6-0.3,0.9-0.6s0.4-0.5,0.5-0.5c0.1-0.1,0.2-0.2,0.2-0.2c0.1-0.1,0.1-0.2,0.2-0.3
		c0.1-0.1,0.1-0.2,0.1-0.3c0-0.1,0.1-0.2,0.1-0.3S16.9,118.8,16.9,118.8z"/>
	<path style="fill:#FFFFFF;" d="M21.7,122.2c0-0.6,0.1-1.2,0.3-2c0.1-0.9,0.3-1.5,0.5-1.9c0.7-2.4,1-3.8,1.1-4
		c0.2-0.5,0.4-1.1,0.6-1.8s0.4-1.3,0.5-1.5c0.1-0.3,0.2-0.8,0.4-1.5c0.2-0.7,0.4-1.2,0.5-1.4c0.3-0.4,0.4-0.7,0.5-0.9
		c0-0.1,0.2-0.2,0.5-0.2c0.3-0.1,0.5,0,0.6,0.1c0.1,0,0.2,0.1,0.4,0.4c0.2,0.3,0.3,0.6,0.3,0.8c0,0.2,0,0.3-0.1,0.4
		c-0.1,0.1-0.2,0.4-0.5,1c-0.2,0.8-0.4,1.4-0.5,1.8c-0.2,0.4-0.2,0.6-0.3,0.7c0,0.1-0.2,0.5-0.4,1c-0.2,0.5-0.4,1.3-0.7,2.2
		c-0.3,0.9-0.4,1.4-0.6,1.7s-0.3,0.8-0.4,1.7c-0.3,0.8-0.4,1.3-0.4,1.4c0,0.2-0.1,0.5-0.2,1c-0.1,0.5-0.2,0.9-0.3,1.1
		c0,0.3-0.2,0.6-0.4,0.9c-0.2,0.3-0.5,0.3-0.7,0.2C22,123,21.7,122.6,21.7,122.2z"/>
	<path style="fill:#FFFFFF;" d="M27.2,121.1c0.4-2.1,0.7-3.4,0.9-3.9c0.1-0.3,0.2-0.6,0.3-0.9c0.5-1.7,1-2.8,1.4-3.4
		c0,0,0-0.1,0.1-0.2c0-0.1,0.1-0.2,0.1-0.2c0-0.3,0.1-0.5,0.2-0.7c0.2-0.3,0.4-0.6,0.5-0.9l0.7-1.5c0.2-0.5,0.4-0.8,0.8-1l0,0
		c0.1-0.1,0.2-0.3,0.5-0.4c0.2-0.1,0.4-0.2,0.6-0.2c0.5,0,0.7,0.3,0.7,0.8c0,0.5-0.1,0.8-0.2,0.9h0c-0.2,0.6-0.3,0.9-0.4,1
		c-0.1,0.1-0.5,0.8-1.1,2.1c-0.8,1.6-1.2,2.6-1.4,3.1c0,0.1-0.1,0.2-0.2,0.4s-0.1,0.4-0.2,0.4l-0.4,1.6l-0.1,0.6
		c-0.3,0.8-0.4,1.2-0.5,1.4c-0.1,0.2-0.1,0.4-0.1,0.5c0,0.1-0.1,0.3-0.2,0.6c-0.3,0.9-0.4,1.6-0.4,2.2l0,0.1
		c-0.1,0.4-0.2,0.7-0.3,0.9c-0.2,0.2-0.4,0.3-0.6,0.2c-0.5-0.2-0.7-0.6-0.8-1.2C27,122.8,27.1,122,27.2,121.1z"/>
	<path style="fill:#FFFFFF;" d="M42.5,121.6c-0.2,0.4-0.5,0.7-0.9,1c-0.4,0.3-0.8,0.4-1.1,0.4s-0.6-0.2-0.8-0.5
		c-0.3-0.3-0.6-1-0.8-1.8l-0.9,0.9c-0.1,0.1-0.3,0.3-0.4,0.5c-0.3,0.3-0.5,0.5-0.6,0.6c-0.1,0.2-0.6,0.5-1.4,0.8
		c-0.2,0.1-0.5,0.1-0.8,0c-0.3-0.1-0.5-0.1-0.5-0.2c0-0.1,0-0.1,0-0.1c0,0,0,0-0.1,0c-0.3-0.3-0.6-0.5-0.8-0.6
		c-0.2-0.3-0.3-0.6-0.3-0.8s0.1-0.9,0.3-1.7c0-1,0.5-2.2,1.4-3.5s1.8-2.2,2.7-2.7c0.2-0.2,0.5-0.4,0.9-0.4s0.7,0.1,1,0.2
		c0.3,0.2,0.5,0.5,0.9,0.9c0.3,0.5,0.6,0.9,0.7,1.2c0,0,0,0.2,0.1,0.5c0.1,0.3,0.1,0.5,0.1,0.5c0,0,0,0.4,0,0.9
		c-0.2,0.7-0.3,1.4-0.3,1.9c0,0.3,0,0.6,0.1,0.7s0.3,0.1,0.6,0c0.3-0.1,0.5-0.1,0.8,0.2C42.6,120.9,42.7,121.2,42.5,121.6z
		 M35.3,120.7c0,0.6,0.3,0.7,0.9,0.4c0.4-0.2,0.7-0.5,0.9-0.8c0.3-0.4,0.7-1,1.1-1.7c0.5-0.7,0.8-1.3,0.9-1.8
		c-0.2-0.6-0.4-0.9-0.6-1c-0.5,0-1.1,0.6-1.9,1.7c-0.4,0.5-0.8,1.2-1,1.8S35.3,120.5,35.3,120.7z"/>
	<path style="fill:#FFFFFF;" d="M46.6,114.7l0.3-0.9c0.1-0.1,0.2-0.5,0.5-1.1c0.2-0.7,0.4-1.3,0.6-1.7c0.6-1.4,1-2.5,1.3-3.1
		c0.1-0.2,0.2-0.4,0.3-0.6c0.3-0.5,0.5-0.8,0.6-0.8c0.1,0,0.4,0.1,0.8,0.3s0.6,0.4,0.8,0.6c0.1,0.1,0.1,0.3,0.1,0.5s-0.2,0.6-0.4,1
		c-0.2,0.5-0.4,0.8-0.4,0.9c0,0.1-0.1,0.3-0.2,0.5c-0.1,0.2-0.3,0.6-0.5,1.2c-0.3,0.6-0.5,1.2-0.8,1.9c-0.3,0.7-0.5,1.4-0.7,2.1
		s-0.4,1.1-0.4,1.3l-0.1,0.6l0.7-0.8c0.6-0.6,1.2-1.1,1.7-1.3c1-0.4,1.8-0.7,2.4-0.7c0.6,0,1.2,0.5,1.8,1.4c0.2,0.4,0.3,0.9,0.2,1.4
		c-0.1,0.6-0.2,1-0.4,1.4c-0.3,0.2-0.4,0.4-0.4,0.6s-0.4,0.8-1.3,1.8c-0.4,0.5-1,0.9-1.7,1.4c-0.7,0.5-1.2,0.8-1.5,0.9
		c-0.3,0.1-0.5,0.2-0.7,0.2c-0.4,0.1-0.7,0.1-0.8,0.2c-0.6-0.1-1-0.3-1.2-0.8c-0.2-0.2-0.3-0.4-0.3-0.6c0.2,0,0.3,0,0.3-0.1
		c0-0.1,0.1-0.1,0.3-0.1c0.9,0.1,2.3-0.9,4.3-2.8c0.6-0.8,1-1.4,1.1-1.7c0.1-0.3,0.1-0.5,0-0.7c-0.2-0.4-0.7-0.3-1.6,0.3
		c-1.3,0.8-2.2,1.7-2.9,2.7l-1,1.3c0,0.1-0.1,0.2-0.3,0.3c-0.2,0.1-0.4,0.2-0.5,0.2c-0.3-0.1-0.4-0.3-0.5-0.6
		c-0.2-0.1-0.3-0.2-0.3-0.3c0,0-0.1-0.1-0.1-0.3c-0.1-0.2,0-0.8,0.2-1.6c0.4-2,0.7-3.2,0.9-3.3C46.5,115.3,46.6,115,46.6,114.7z"/>
	<path style="fill:#FFFFFF;" d="M57.3,121.7c0-0.2,0-0.3,0-0.4c0-0.1,0-0.2,0-0.3c-0.1-0.1-0.1-0.2-0.1-0.2c0-0.1,0.1-0.1,0.1-0.1
		c0.1,0,0.2-0.1,0-0.3c0-0.1,0-0.5,0.1-1s0.2-0.9,0.4-1.3c0.5-1.1,1-2,1.5-2.6c0.8-0.9,1.4-1.5,2-1.7c0.7-0.3,1.4-0.3,1.9,0.2
		c1,0.3,1.5,0.8,1.7,1.6c0.3,1.3,0.1,2.8-0.7,4.5c-0.6,1.2-1.2,2.1-1.9,2.7s-1.6,1.1-2.7,1.3c-0.3,0-0.6-0.1-1-0.3
		c-0.4-0.3-0.7-0.7-0.9-1.1C57.4,122.3,57.3,122,57.3,121.7z M61.8,120.2c0.7-1,1-2.1,1-3.3c0-0.5-0.1-0.7-0.2-0.8
		c-0.5-0.2-0.9,0-1.5,0.6c-0.4,0.4-0.7,0.9-0.8,1.3s-0.4,1.1-0.6,2c-0.2,0.9-0.2,1.5,0.2,1.7C60.2,122.1,60.9,121.5,61.8,120.2z"/>
	<path style="fill:#FFFFFF;" d="M74.6,113.9c0.2,0,0.4,0.1,0.7,0.3s0.4,0.3,0.5,0.5c0.4,0.8,0.5,1.4,0.2,1.8c-0.6,0.7-1.2,1-1.8,0.9
		c-0.1,0-0.2-0.1-0.3-0.4c-0.1-0.2-0.2-0.4-0.2-0.5c0-0.1-0.2,0.1-0.6,0.5c-0.4,0.4-0.6,0.7-0.7,0.7c-0.4,0.5-0.8,1.3-1.4,2.4
		c-0.5,1.1-0.9,1.8-1,2.2s-0.2,0.6-0.3,0.8c-0.1,0.2-0.2,0.3-0.3,0.3c-0.1,0-0.3,0-0.6-0.1c-0.3-0.1-0.5-0.2-0.5-0.2
		c-0.6-0.6-0.7-1.3,0-2.3c0.1-0.2,0.3-0.9,0.7-1.9c0.3-1,0.5-1.6,0.6-1.7c0-0.3,0-0.5,0-0.6c-0.1-0.1-0.2-0.2-0.4-0.2
		c-0.3,0-0.5-0.3-0.5-0.8c0-0.5,0.2-0.9,0.6-1.1c0.3-0.1,0.6-0.2,1-0.2c0.4,0,0.8,0.1,1,0.2s0.4,0.7,0.5,1.7
		c0.1-0.1,0.3-0.3,0.6-0.6c0.3-0.3,0.5-0.5,0.6-0.7C73.7,114.2,74.2,113.9,74.6,113.9z"/>
	<path style="fill:#FFFFFF;" d="M77.5,122.6c0-0.2-0.1-0.4-0.3-0.7c-0.3-0.3,0.3-1.6,1.5-4.1c0.1-0.1,0.2-0.3,0.4-0.6
		c0.2-0.3,0.3-0.4,0.3-0.4c0-0.1,0-0.1,0.1-0.2c0-0.1,0.1-0.1,0.2-0.1l0.2-0.4c0.1-0.2,0.4-0.5,1-1.1c0.6-0.6,1-1,1.4-1.2
		c0.3-0.2,0.7-0.3,1.1-0.3c0.4,0,0.7,0.1,1,0.4c0,0.1,0.1,0.1,0.3,0.3c0.3,0.3,1,0.9,2.1,1.9l-0.4,1.3c-0.4,1.2-0.3,2.2,0.3,3.2
		c0.2,0.4,0.5,0.6,0.8,0.7c0.4,0.1,0.6,0.3,0.6,0.6c0,0.7-0.2,1.1-0.7,1.2c-1.3,0.2-2.3-0.4-2.9-1.7c-0.2-0.3-0.4-0.7-0.4-1.2
		c-0.1,0.2-0.3,0.4-0.6,0.7c-2.3,2.4-4,3.2-5.2,2.4c0-0.1-0.2-0.2-0.4-0.4S77.5,122.7,77.5,122.6z M83.4,115.8
		c-0.6,0-1.6,1.3-3.1,3.8c-0.3,0.4-0.5,1-0.7,1.7c0.3,0,0.8-0.3,1.5-0.9c0.2-0.1,0.4-0.3,0.6-0.6c0.3-0.2,0.4-0.4,0.6-0.5
		c0.1-0.1,0.3-0.2,0.4-0.4c0.3-0.3,0.6-0.7,0.9-1.1l0.5-0.9C84,116.1,83.7,115.8,83.4,115.8z"/>
	<path style="fill:#FFFFFF;" d="M96.9,112.1c0,0.2,0.1,0.3,0.4,0.3c0.5,0,0.9-0.1,1.1-0.1c0.2,0,0.3-0.1,0.3-0.1
		c0.1,0,0.3,0,0.4,0.1c0.1,0.2,0.2,0.5,0.1,0.9c-0.1,0.4-0.2,0.7-0.3,0.7c0,0-0.2,0.1-0.5,0.2c-0.3,0.1-1,0.2-2.3,0.3
		c-0.4,0.9-0.7,1.4-0.8,1.6c-0.1,0.2-0.1,0.3-0.1,0.3l-1,2.3c-0.1,0-0.1,0.1-0.1,0.2c0.1,0.2,0.1,0.4,0,0.4
		c-0.1,0.1-0.3,0.3-0.4,0.4c0.1,0.1,0,0.3-0.1,0.6c0,0.3-0.1,0.7-0.3,1.3c0,0.3,0,0.5,0,0.6s0.1,0.1,0.1,0.1c0.1,0,0.3,0,0.7,0
		c0.3-0.1,0.1,0.5-0.3,1.8c-0.3,0.4-0.5,0.8-0.8,1.1c-0.3,0.3-0.5,0.5-0.5,0.5c-1.4,0-2-0.8-1.8-2.5c0-0.2,0.1-0.3,0.1-0.6
		c0.1-0.5,0.2-0.8,0.3-0.8c0.1-0.1,0.1-0.2,0-0.2c0-0.2,0.1-0.7,0.4-1.5c-0.1-0.1-0.1-0.3,0.1-0.5c0.2-0.2,0.2-0.3,0.2-0.4
		s0-0.3,0.1-0.5c0.1-0.2,0.3-0.5,0.4-0.8c0.2-0.3,0.3-0.5,0.3-0.6c0-0.1,0.1-0.4,0.4-1.1s0.5-1.1,0.6-1.2c0.1-0.1,0.1-0.1-0.2-0.2
		c-0.2,0-0.7-0.1-1.4-0.1c-0.7,0-1.2-0.1-1.5-0.3c-0.2-0.2-0.2-0.5-0.1-0.9c0.1-0.4,0.4-0.5,0.8-0.6l3.2-0.3l0.1-0.4
		c0.1-0.1,0.1-0.2,0.2-0.3c0.1-0.1,0.1-0.2,0.1-0.2s0-0.1,0-0.1c0-0.1,0.1-0.2,0.1-0.5c0.3-0.5,0.5-0.9,0.5-1.3
		c0.3-0.5,0.5-0.9,0.6-1.1c0.5-1.1,1.1-1.4,1.8-0.9c0.5,0.4,0.7,0.7,0.7,1c0,0.2-0.1,0.4-0.2,0.5c-0.1,0.2-0.2,0.5-0.4,0.9
		c-0.3,0.5-0.6,0.9-0.6,1.4C97.1,111.9,97,112.1,96.9,112.1z"/>
	<path style="fill:#FFFFFF;" d="M101.2,115.2c0.1-0.3,0.3-0.3,0.7-0.2c0.3,0.1,0.6,0.4,0.9,0.8c0.2,0.2,0.2,0.5,0.2,0.9
		s-0.2,1.2-0.6,2.4c-0.3,1.2-0.5,2.1-0.5,2.7c-0.1,0.8-0.1,1.3-0.2,1.6c-0.1,0.3-0.2,0.4-0.3,0.4c-0.4,0-0.7-0.2-1-0.7
		c-0.3-0.4-0.5-1-0.5-1.6c0.1-0.7,0.1-1.1,0.1-1.4C100.6,117.4,101,115.8,101.2,115.2z M103.1,109.5c0.2,0,0.6,0.1,1.2,0.4
		c0.8,1.6,0.6,2.7-0.5,3.2c-0.1,0.1-0.3,0.1-0.5-0.1c-0.2,0-0.4-0.2-0.7-0.4c-0.3-0.3-0.4-0.5-0.4-0.6c0-0.4,0-0.9,0.2-1.5
		C102.5,109.8,102.7,109.5,103.1,109.5z"/>
	<path style="fill:#FFFFFF;" d="M106.5,114.6c0.1-0.1,0.2-0.1,0.4-0.1c0.2,0,0.4,0,0.5,0c0.4,0.1,0.7,1.2,1,3.2
		c0,0.3,0.1,0.6,0.1,0.9c0.1,0.5,0.1,0.7,0.2,0.8s0,0.2,0.1,0.4c0,0.2,0.1,0.3,0.1,0.3c0.2,0,0.8-0.8,1.8-2.3
		c0.6-0.9,1.1-1.5,1.5-1.9c0.4-0.4,0.7-0.6,0.8-0.7c0.4-0.1,0.6,0.1,0.7,0.5c0.1,0.4,0,0.8-0.4,1.3c-0.1,0.1-0.2,0.3-0.3,0.6
		s-0.2,0.5-0.3,0.7c-0.1,0.2-0.4,0.7-0.9,1.4c-0.5,0.7-0.8,1.1-0.9,1.2c-0.1,0.1-0.2,0.2-0.3,0.3c-0.4,0.4-0.7,0.7-0.8,0.9
		c-0.4,0.4-0.8,0.7-1.2,0.7c-0.4,0.1-0.7,0-0.8-0.2c-0.2-0.1-0.4-0.7-0.8-1.8c-0.3-1-0.5-1.9-0.6-2.5c-0.1-0.6-0.3-1.3-0.5-1.9
		c-0.1-0.3-0.1-0.6,0.1-1C106.1,115,106.3,114.7,106.5,114.6z"/>
	<path style="fill:#FFFFFF;" d="M118.9,119.6c-0.5,0-0.8,0-0.9-0.1c-0.2-0.1-0.3,0-0.4,0.4l-0.1,0.6c-0.1,0.5,0,0.8,0.3,1.2
		c0.1,0.2,0.3,0.2,0.6,0.2c0.3,0,0.5-0.1,0.8-0.3c0.2-0.2,0.5-0.4,0.7-0.7c0.3-0.3,0.4-0.5,0.5-0.6c0.2-0.3,0.6-0.4,1.3-0.2
		c0.4,0.3,0.3,0.9-0.1,1.7c-0.1,0.2-0.3,0.5-0.8,0.9s-0.8,0.7-1,0.9c-0.9,0.5-1.8,0.5-2.8,0.1c-1.3-0.5-1.8-1.8-1.5-3.9
		c0-0.5,0-0.9,0-1.1c-0.1-0.2-0.1-0.3-0.3-0.4c-0.1-0.1-0.2-0.2-0.3-0.3c-0.3-0.3-0.4-0.4-0.4-0.6c0-0.1,0-0.2,0.1-0.4
		c0.1-0.2,0.1-0.3,0.2-0.3c0.4-0.2,0.6-0.3,0.7-0.2c0.1,0,0.2,0.1,0.3,0.1s0.2,0.2,0.2,0.2c0.1,0.2,0.3,0,0.6-0.6
		c0.1-0.1,0.1-0.3,0.2-0.5c0.2-0.4,0.5-0.7,1-1.1c0.4-0.4,0.7-0.6,1-0.7c0.2-0.1,0.6-0.2,1-0.3c0.5-0.1,0.8-0.1,1-0.1
		c0.5,0.1,1.1,0.4,1.7,1.1c0.3,0.2,0.5,0.6,0.5,1.2c0,0.6,0,1.1-0.2,1.4c-0.1,0.3-0.4,0.7-1,1.2c-0.6,0.5-1.1,0.9-1.4,1
		C119.8,119.5,119.4,119.6,118.9,119.6z M120.6,115.8c-0.2-0.2-0.5-0.2-1,0.1c-0.2,0.1-0.4,0.2-0.7,0.5c-0.3,0.3-0.5,0.5-0.7,0.8
		c-0.2,0.3-0.3,0.4-0.2,0.5c0,0,0,0.1,0.1,0.1s0.1,0,0.2,0c0.1,0,0.2,0,0.3,0c0.1,0,0.2,0,0.5-0.1c0.2-0.1,0.5-0.2,0.7-0.3
		c0.2-0.1,0.5-0.4,0.8-0.9C120.7,116.1,120.7,115.8,120.6,115.8z"/>
	<path style="fill:#FFFFFF;" d="M135.4,113.8c0,0,0.1,0,0.2,0.2c0.3,0.5,0.5,0.9,0.5,1.2c0,0.1-0.1,0.1-0.1,0.1s0,0,0.1,0
		c0.7-0.4,1.1-0.6,1.3-0.8c0.2-0.1,0.3-0.1,0.4-0.2c0.3-0.1,0.7-0.1,1.1-0.1s0.7,0.2,1,0.5c0.8,1.1,1,2.3,0.7,3.5l-0.7,1.2
		c-0.7,1.1-1.6,2-2.8,2.7c-0.3,0.2-0.6,0.3-1.1,0.5c-0.5,0.1-0.8,0.2-0.8,0.1c-0.2-0.1-0.4-0.4-0.5-0.9c-0.2,0.5-0.3,0.9-0.4,1.2
		c0,0.2-0.1,0.4-0.2,0.4c0,0.1-0.1,0.2-0.2,0.4c-0.5,1.6-0.8,2.4-0.8,2.5c-0.1,0.5-0.2,1.1-0.4,1.5s-0.4,0.8-0.7,0.9
		c-0.4,0.1-0.7-0.1-1-0.5c-0.3-0.5-0.4-1-0.2-1.5c0.1-0.2,0.2-0.5,0.2-0.9c0.1-0.4,0.2-0.8,0.3-1.3c0.2-0.5,0.3-0.9,0.5-1.1
		c0.1-0.2,0.2-0.6,0.2-1c0.1-0.4,0.2-0.6,0.3-0.8c0.1-0.4,0.2-0.7,0.4-0.9c0.1-0.5,0.2-0.7,0.2-0.7c0.2-0.8,0.4-1.7,0.8-2.7
		c0.4-1.1,0.4-1.7,0-1.9c-0.2-0.1-0.3-0.4-0.3-0.9s0.1-0.8,0.3-0.8c0.2-0.1,0.4-0.1,0.6-0.2c0.5-0.1,0.8,0,0.8,0.1
		C135.2,113.7,135.3,113.8,135.4,113.8z M138.4,117.1c0.2-0.3,0.1-0.6-0.1-0.8c-0.3-0.1-0.7,0.1-1.1,0.4c-0.5,0.3-0.8,0.7-1.1,1.1
		c-0.3,0.4-0.5,0.8-0.6,1.2c-0.1,0.4-0.2,0.7-0.1,0.9c0.1,0.2,0.2,0.3,0.4,0.3c1.3-0.7,2-1.2,2.1-1.5c0-0.1,0.1-0.1,0.1-0.2
		c0-0.2,0.1-0.4,0.2-0.7C138.2,117.6,138.3,117.4,138.4,117.1z"/>
	<path style="fill:#FFFFFF;" d="M150.9,116.6c-0.2,0-0.4,0-0.6,0.1c-0.2,0.1-0.4,0.2-0.5,0.2c-0.1,0.1-0.2,0.1-0.3,0.3
		c-0.1,0.1-0.4,0.3-0.7,0.5s-0.8,0.6-1.6,1.3c-0.8,0.7-1.2,1.3-1.4,1.8c-0.6,1.5-1,2.3-1.1,2.5c-0.1,0.2-0.3,0.3-0.5,0.3
		s-0.4,0-0.5-0.1c-0.1,0-0.3-0.1-0.5-0.3c-0.2-0.2-0.3-0.3-0.4-0.5s0-0.7,0.3-1.5c0.3-1.3,0.5-2.2,0.6-2.8c0.1-0.2,0.2-0.5,0.3-1
		c0.1-0.5,0.3-0.8,0.4-1c0.2-0.8,0.5-1.6,1-2.3c0-0.1,0.1-0.2,0.2-0.3c0.1-0.1,0.2-0.2,0.3-0.2c0.1-0.1,0.3-0.2,0.5-0.1
		s0.4,0.1,0.6,0.3c0.4,0.5,0.4,1.2,0,2.1c-0.2,0.4-0.3,0.9-0.6,1.3s-0.4,0.8-0.5,1c0.8-1.2,1.8-2.1,2.7-2.7c0,0,0.1-0.1,0.1-0.1
		c0.7-0.5,1.3-0.7,1.8-0.6c0.3,0,0.5,0.2,0.8,0.6s0.3,0.9,0.2,1.4C151.3,116.6,151.1,116.6,150.9,116.6z"/>
	<path style="fill:#FFFFFF;" d="M153,121.4l0.1-0.6c0-0.1,0-0.4,0.2-0.9c0.4-0.9,0.8-2.3,1.4-4.3c0-0.2,0.1-0.3,0.4-0.3
		c0.2-0.1,0.4,0,0.7,0.3c0.3,0.2,0.5,0.5,0.7,0.8c0.2,0.2,0.2,0.6-0.1,1.2c-0.3,0.6-0.4,1.2-0.5,1.8c-0.2,0.5-0.3,0.8-0.4,1
		c-0.1,0.2-0.1,0.6-0.2,1.1c-0.1,0.5-0.2,0.8-0.3,1c-0.2,0.7-0.4,1.1-0.8,1.3s-0.7,0.1-1-0.3c-0.2-0.2-0.3-0.5-0.3-1
		C152.9,121.9,152.9,121.6,153,121.4z M155.5,112.4c-0.1-0.2-0.2-0.4-0.2-0.5c0-0.1,0-0.3,0.1-0.4c0.1-0.1,0.2-0.4,0.4-0.8
		c0.4-0.8,0.6-1.1,0.7-1.2c0.2-0.1,0.5-0.1,0.8,0c0.4,0.2,0.6,0.4,0.8,0.7c0.3,0.7,0.2,1.4-0.4,2.1c-0.3,0.4-0.6,0.6-1,0.7
		c-0.4,0.1-0.7,0.1-0.9-0.1S155.6,112.6,155.5,112.4z"/>
	<path style="fill:#FFFFFF;" d="M160.6,115.1l-0.1-0.6c0-0.3,0.1-0.5,0.4-0.7c0.2-0.2,0.5-0.3,0.9-0.3c0.4,0,0.7,0.2,0.9,0.5
		c0.2,0.3,0.3,0.6,0.3,1c0,0.3-0.1,0.6-0.2,0.9l-0.9,2.3c0,0.1,0,0.1,0.1,0.1c0,0.1,0.3-0.1,0.6-0.5s1-0.9,1.7-1.4
		c0.8-0.6,1.3-0.9,1.6-1c0.2,0,0.5,0.2,0.8,0.5c0.3,0.3,0.5,0.7,0.5,1.1c-0.3,1.2-0.4,1.9-0.5,2c0.3-0.4,0.9-0.9,1.7-1.4
		c0.8-0.6,1.4-0.8,1.7-0.9c0.5,0,0.9,0.3,1.1,0.8c0.2,0.5,0.3,1.2,0.4,2s0.1,1.4,0.3,1.7c0,0.1,0.1,0.2,0.3,0.2
		c0.2,0.1,0.3,0.1,0.5,0.2c0.2,0.1,0.2,0.3,0.2,0.6c0,0.7-0.5,1-1.7,1c-0.5,0-0.9-0.3-1.3-0.8c-0.4-0.5-0.5-1.2-0.5-1.9
		c0-0.3,0-0.6,0.1-0.9c0-0.3,0.1-0.5,0.1-0.5s0-0.1-0.1-0.1c-0.4,0-1.4,0.8-2.8,2.5c0,0-0.1,0.1-0.1,0.1c-0.1,0.1-0.3,0.3-0.5,0.5
		c-0.5,0.5-0.9,0.7-1,0.7c-0.2,0-0.4-0.1-0.5-0.2l-0.3-0.2c-0.2-0.2-0.3-0.4-0.3-0.7v-0.1l0.6-1.8c0.4-1,0.6-1.5,0.6-1.6
		c0-0.1,0-0.2,0-0.2c-0.3,0-0.7,0.4-1.4,1.2c-0.7,0.8-1.2,1.4-1.5,1.7s-0.5,0.6-0.8,0.9c-0.3,0.3-0.5,0.6-0.7,0.9
		c-0.2,0.2-0.3,0.4-0.3,0.4c-0.4,0-0.7-0.1-1-0.4c-0.3-0.3-0.4-0.6-0.4-0.9c0-0.3,0-0.6,0.1-0.9c0.1-0.3,0.1-0.7,0.3-1.2
		c0.1-0.5,0.2-0.9,0.2-1c0-0.2,0.1-0.4,0.1-0.6c0-0.2,0.1-0.3,0.1-0.3c0,0,0-0.2,0.1-0.4s0.1-0.4,0.2-0.6s0.2-0.6,0.4-1.1
		C160.6,115.6,160.6,115.4,160.6,115.1z"/>
	<path style="fill:#FFFFFF;" d="M184,121.6c-0.2,0.4-0.5,0.7-0.9,1c-0.4,0.3-0.8,0.4-1.1,0.4c-0.3,0-0.6-0.2-0.9-0.5
		c-0.3-0.3-0.6-1-0.8-1.8l-0.9,0.9c-0.1,0.1-0.3,0.3-0.4,0.5c-0.4,0.3-0.5,0.5-0.6,0.6c-0.1,0.2-0.6,0.5-1.4,0.8
		c-0.2,0.1-0.5,0.1-0.8,0c-0.3-0.1-0.5-0.1-0.5-0.2c0-0.1,0-0.1,0-0.1c0,0,0,0-0.1,0c-0.3-0.3-0.6-0.5-0.8-0.6
		c-0.2-0.3-0.3-0.6-0.3-0.8c0-0.3,0.1-0.9,0.3-1.7c0-1,0.5-2.2,1.4-3.5c0.9-1.3,1.8-2.2,2.7-2.7c0.2-0.2,0.5-0.4,0.9-0.4
		s0.7,0.1,1,0.2s0.5,0.5,0.9,0.9s0.6,0.9,0.7,1.2c0,0,0,0.2,0.1,0.5c0.1,0.3,0.1,0.5,0.1,0.5c0,0,0,0.4,0,0.9
		c-0.2,0.7-0.3,1.4-0.3,1.9c0,0.3,0,0.6,0.1,0.7c0.1,0.1,0.3,0.1,0.6,0c0.3-0.1,0.6-0.1,0.8,0.2C184.1,120.9,184.1,121.2,184,121.6z
		 M176.8,120.7c0,0.6,0.3,0.7,0.9,0.4c0.4-0.2,0.7-0.5,0.9-0.8c0.3-0.4,0.7-1,1.1-1.7c0.5-0.7,0.8-1.3,0.9-1.8
		c-0.2-0.6-0.4-0.9-0.6-1c-0.5,0-1.1,0.6-1.9,1.7c-0.4,0.5-0.8,1.2-1,1.8C176.9,120.1,176.8,120.5,176.8,120.7z"/>
	<path style="fill:#FFFFFF;" d="M193.4,113.9c0.2,0,0.4,0.1,0.6,0.3s0.4,0.3,0.5,0.5c0.4,0.8,0.5,1.4,0.2,1.8
		c-0.6,0.7-1.2,1-1.8,0.9c-0.1,0-0.2-0.1-0.3-0.4c-0.1-0.2-0.2-0.4-0.2-0.5c0-0.1-0.2,0.1-0.6,0.5s-0.6,0.7-0.7,0.7
		c-0.4,0.5-0.8,1.3-1.4,2.4c-0.5,1.1-0.9,1.8-1,2.2c-0.1,0.3-0.2,0.6-0.3,0.8c-0.1,0.2-0.2,0.3-0.3,0.3s-0.3,0-0.6-0.1
		c-0.3-0.1-0.5-0.2-0.5-0.2c-0.6-0.6-0.6-1.3,0-2.3c0.1-0.2,0.3-0.9,0.7-1.9c0.3-1,0.5-1.6,0.6-1.7c0-0.3,0-0.5,0-0.6
		c-0.1-0.1-0.2-0.2-0.4-0.2c-0.4,0-0.5-0.3-0.5-0.8c0-0.5,0.2-0.9,0.6-1.1c0.3-0.1,0.6-0.2,1-0.2c0.4,0,0.8,0.1,0.9,0.2
		c0.2,0.2,0.4,0.7,0.5,1.7c0.1-0.1,0.3-0.3,0.6-0.6c0.3-0.3,0.5-0.5,0.6-0.7C192.5,114.2,193.1,113.9,193.4,113.9z"/>
	<path style="fill:#FFFFFF;" d="M198.4,130.2c-0.1,0-0.2,0-0.3,0h-0.3c-0.3,0.1-0.5-0.1-0.6-0.4c-0.1-0.2-0.1-0.4-0.1-0.7
		c-0.1-0.4,0.1-1.3,0.7-2.5c0.1-0.2,0.3-0.5,0.5-1s0.6-1.3,1.1-2.3c0.5-1,0.9-1.9,1.2-2.7c-0.4,0.4-0.8,0.9-1.2,1.4
		c-0.4,0.5-0.7,0.9-0.9,1c-0.2,0.1-0.4,0.2-0.6,0.2c-0.2,0-0.5-0.2-0.8-0.4c-0.3-0.3-0.5-0.5-0.6-0.8c-0.2-0.8-0.1-1.9,0.1-3.4
		c0.2-1.5,0.3-2.4,0.3-2.6c0-0.3-0.2-0.5-0.4-0.7c-0.3-0.4-0.1-0.8,0.6-1.2c0.3-0.1,0.6-0.1,0.8-0.1c0.2,0.1,0.4,0.2,0.6,0.5
		c0,0.1,0.1,0.1,0.2,0.3c0.1,0.1,0.1,0.2,0.2,0.3c0,0.1,0.1,0.2,0.1,0.3c0.1,0.3,0.2,0.5,0.2,0.7s0,0.9-0.1,2.1
		c-0.1,0.6-0.2,1-0.3,1.2c-0.1,0.3-0.2,0.5-0.2,0.7c0,0.2,0,0.4,0,0.5c0.5-0.4,0.9-0.8,1.2-1.2c0.3-0.4,0.8-1.1,1.5-2
		c0.5-0.9,0.7-1.5,0.8-1.7c0.3-0.7,0.6-1.1,0.8-1.1c0.1,0,0.3,0,0.6,0.1c0.3,0.1,0.4,0.2,0.4,0.2c0,0,0.2,0.1,0.5,0.1
		s0.5,0.1,0.5,0.1s-0.2,0.4-0.5,1.2c-0.3,0.7-0.4,1.1-0.4,1.2c0,0.1-0.2,0.6-0.7,1.8c-0.4,1.4-0.9,2.5-1.3,3.4
		c-0.2,0.4-1.1,2.6-2.8,6.7C199.1,129.8,198.8,130.1,198.4,130.2z"/>
	<path style="fill:#FFFFFF;" d="M220.5,117.5c-0.2,0.3-0.4,0.5-0.5,0.5s-0.2,0-0.2,0.1c0,0.1-0.1,0.1-0.3,0.2s-0.4,0-0.5-0.1
		c-0.2-0.1-0.3-0.2-0.3-0.3c0-0.1,0.1-0.4,0.2-1c0.1-0.6,0.1-0.9,0-1.1c-0.1-0.2-0.3-0.2-0.6,0c-0.6,0.4-1.1,0.8-1.4,1.4
		c-0.3,0.6-0.6,1.3-0.8,2.2c-0.2,0.9-0.3,1.5-0.3,1.7c0,0.3,0.1,0.5,0.2,0.6c0.5,0.1,0.9,0.1,1.3-0.1c0.4-0.2,0.9-0.6,1.5-1.1
		c0,0,0.1-0.1,0.2-0.3c0.1-0.2,0.2-0.3,0.3-0.3c0.1-0.2,0.3-0.3,0.6-0.3h0.5c0.3,0.1,0.5,0.3,0.7,0.6c0.1,0.2,0.1,0.3,0,0.3
		l-0.1,0.1c0.1,0.1-0.2,0.6-0.9,1.2c-0.6,0.7-1.1,1-1.3,1s-0.3,0.1-0.3,0.2c0,0.1-0.3,0.2-0.8,0.5c-0.5,0.3-0.9,0.4-1.2,0.5
		c-0.8,0.1-1.5,0-2.1-0.5c-0.6-0.5-1-1.1-1-1.9c-0.1-0.8,0.1-1.8,0.4-3c0.4-1.2,0.8-2.2,1.4-2.9c0.9-1.1,1.5-1.7,2-1.9
		c0.5-0.2,1-0.3,1.5-0.3c0.9,0.2,1.4,0.5,1.4,0.9l0.1,0.1c0.1,0,0.3,0.3,0.5,0.8c0.2,0.5,0.2,0.9,0.1,1.2
		C220.8,116.8,220.7,117.2,220.5,117.5z"/>
	<path style="fill:#FFFFFF;" d="M229,114.1c0.1,0,0.3,0.1,0.7,0.3c0.6,0.2,1.1,0.4,1.3,0.8c0.2,0.5,0.4,1,0.5,1.7
		c0.2,0.6,0.2,1,0,1.2c-0.1,0.1-0.1,0.2-0.1,0.2c0,0,0,0,0,0.1c0,0.1,0,0.2-0.1,0.4c-0.3,0.9-0.4,1.5-0.3,2c0.3,0.8,0.7,0.9,1.4,0.2
		c0.3-0.2,0.5-0.3,0.7-0.3s0.3,0.1,0.3,0.2c0.1,0.1,0.2,0.1,0.3,0.1c0.1,0,0.1,0.1,0.1,0.3c0,0.4-0.1,0.7-0.3,1.1
		c-0.3,0.3-0.4,0.4-0.4,0.5c-0.1,0.1-0.2,0.2-0.4,0.4c-0.3,0.2-0.7,0.3-1.1,0.3c-0.5,0-0.8-0.1-1.1-0.3c-0.7-0.5-1.1-1-1.2-1.5
		l-0.1-0.3l-0.7,0.5l-0.6,0.7c-0.1,0.2-0.3,0.3-0.4,0.3h-0.3c0,0.1-0.2,0.3-0.7,0.4c-0.5,0.2-0.8,0.3-1.1,0.3
		c-0.3,0.1-0.6-0.1-1-0.5c-0.4-0.4-0.6-0.7-0.7-1.1c-0.1-0.6,0-1.4,0.4-2.4c0.4-1,0.9-2,1.7-3c0.8-1,1.6-1.7,2.5-2.1
		C228.7,114.2,228.9,114.1,229,114.1z M229.4,116.8c-0.1-0.2-0.2-0.3-0.3-0.3c-0.1,0-0.3,0-0.6,0.2c-0.5,0.3-1.1,1-1.7,2.1
		s-1,1.8-1,2.3l0.1,0.3c0.2,0,0.6-0.2,1.1-0.7c0.6-0.4,0.9-0.7,1-0.9c0.1-0.1,0.2-0.3,0.4-0.5s0.3-0.4,0.5-0.7
		c0.2-0.3,0.4-0.5,0.5-0.8C229.6,117.4,229.6,117.1,229.4,116.8z"/>
	<path style="fill:#FFFFFF;" d="M242.8,113.9c0.2,0,0.4,0.1,0.7,0.3s0.4,0.3,0.5,0.5c0.4,0.8,0.5,1.4,0.2,1.8
		c-0.6,0.7-1.2,1-1.8,0.9c-0.1,0-0.2-0.1-0.3-0.4c-0.1-0.2-0.2-0.4-0.2-0.5c0-0.1-0.2,0.1-0.6,0.5c-0.4,0.4-0.6,0.7-0.7,0.7
		c-0.4,0.5-0.8,1.3-1.4,2.4c-0.5,1.1-0.9,1.8-1,2.2s-0.2,0.6-0.3,0.8c-0.1,0.2-0.2,0.3-0.3,0.3c-0.1,0-0.3,0-0.6-0.1
		c-0.3-0.1-0.5-0.2-0.5-0.2c-0.6-0.6-0.7-1.3,0-2.3c0.1-0.2,0.3-0.9,0.7-1.9c0.3-1,0.5-1.6,0.6-1.7c0-0.3,0-0.5,0-0.6
		c-0.1-0.1-0.2-0.2-0.4-0.2c-0.3,0-0.5-0.3-0.5-0.8c0-0.5,0.2-0.9,0.6-1.1c0.3-0.1,0.6-0.2,1-0.2c0.4,0,0.8,0.1,1,0.2
		s0.4,0.7,0.5,1.7c0.1-0.1,0.3-0.3,0.6-0.6c0.3-0.3,0.5-0.5,0.6-0.7C241.9,114.2,242.5,113.9,242.8,113.9z"/>
	<path style="fill:#FFFFFF;" d="M250.9,113.5c1,0,1.7,0.2,2.2,0.7s0.7,1,0.7,1.4v0.2c0,0.4-0.2,1-0.7,1.8c-0.2,0.4-0.6,0.8-1.1,1.2
		s-1,0.5-1.4,0.5c-0.5,0-0.9,0-1.4-0.1c-0.4-0.1-0.7-0.1-0.8-0.1c-0.1,0-0.2,0.1-0.3,0.2c-0.1,0.2-0.2,0.6-0.2,1.1
		c0,0.5,0.2,0.8,0.4,1c0.2,0.2,0.5,0.3,0.8,0.3c0.3,0,0.6-0.1,0.8-0.2c0.3-0.1,0.6-0.3,0.9-0.7s0.6-0.5,0.8-0.5
		c0.2,0,0.4,0.1,0.6,0.3s0.3,0.4,0.3,0.6c0,0.4-0.4,0.9-1.2,1.6c-0.7,0.7-1.5,1-2.5,1c-0.9,0-1.7-0.3-2.3-0.8
		c-0.6-0.6-0.9-1.4-0.9-2.4c0-0.4,0-0.8,0.1-1.3c0-0.5,0.2-1,0.4-1.7s0.6-1.4,1.2-2.2c0.5-0.8,1.1-1.3,1.8-1.6
		C249.9,113.6,250.5,113.5,250.9,113.5z M250.8,115.4c-0.2,0-0.5,0.2-0.9,0.6c-0.4,0.4-0.8,0.8-1.1,1.3c0,0.2,0.3,0.3,0.8,0.3
		s0.8,0,1-0.1c0.1-0.1,0.4-0.3,0.7-0.7c0.3-0.4,0.5-0.6,0.5-0.7c0-0.4-0.3-0.6-0.8-0.7H250.8z"/>
</g>
<path style="fill:#FFFFFF;" d="M363.5,58.4c0-0.7-0.1-1.4-0.1-2c-0.5-5.4-2-10.7-4.4-15.5c-4.6-9.7-12.2-17.6-21.1-23.1
	c-8.5-5.2-18.4-8-28.3-8.3c-2-2.2-4.4-3.9-7-5.2c-3.1-1.6-6.4-2.4-9.7-2.8C286.4,0.6,280,1.5,274,3.1c-6,1.6-11.8,3.9-17.3,6.7
	c0,0-0.1,0-0.1,0.1c-2.8,1.2-5.5,2.6-8.1,4.2c-1.3,0.8-2.7,1.7-3.9,2.6c-1.3,0.9-2.5,2-3.7,3c-4.7,4.3-8.7,9.4-11.3,15.4
	c-2.6,5.9-3.8,12.8-2.5,19.4c0.6,3.3,1.8,6.5,3.4,9.4c1.6,2.9,3.6,5.6,5.9,7.9c4.2,4.3,9.1,7.6,14.1,10.4c0.7,2,1.6,4,2.9,5.8
	c1.6,2.3,3.8,4.2,6.2,5.6c2.4,1.4,5.1,2.2,7.9,2.5c2.7,0.3,5.5,0.1,8.4-0.9c2.5-1,4.7-2.3,6.8-4c0.6-0.5,1.1-1.1,1.7-1.7
	c0.1-0.1,0.2-0.1,0.3-0.2c0.7-0.5,1.5-1.1,2.1-1.8c0.7-0.6,1.2-1.4,1.8-2.1c0.3-0.5,0.6-0.9,0.9-1.4c2.5,0.9,5.2,1.3,7.8,1.2
	c0.8,0,1.6,0,2.3-0.1c4.3-0.4,8.4-1.7,12.2-3.8c3.7-2.1,7-4.9,9.8-8.1c1.7-2,3.1-4.3,4.2-6.7c1.1-1.2,2.1-2.4,3-3.7l1.6-2.4
	l-3.2-0.9c-1.6-0.5-3.2-1-4.9-1.3l-2.5-0.4c-0.9-0.1-1.7-0.2-2.6-0.2c-3.5-0.2-7.3,0.2-10.8,2c-1.7,0.8-3.2,2.1-4.6,3.4
	c-0.6,0.7-1.2,1.4-1.7,2.1c-0.5,0.7-1,1.5-1.4,2.3c0,0,0,0,0,0.1c-1.7,3-2.7,6.1-3.5,9.3l0.5,0.3c2.5-2.2,4.5-4.8,6.6-7
	c0,0,0,0,0-0.1c0.5-0.6,1.1-1,1.6-1.6c0.3-0.3,0.6-0.5,0.8-0.7c0.3-0.2,0.5-0.5,0.8-0.6c0.3-0.2,0.6-0.4,0.8-0.6l0.4-0.3l0.4-0.2
	c0.3-0.1,0.6-0.3,0.9-0.5c0.3-0.2,0.6-0.2,0.9-0.4c2.4-0.9,5.1-1.4,8.1-1.6c2.1-0.2,4.2,0,6.3,0.2c-0.1,0.3-0.2,0.6-0.4,0.9
	c-1.6,1.7-3.4,3.3-5.2,4.8c-2.8,2.5-6,4.4-9.2,6.1c-3.2,1.8-6.5,3.3-10.1,4.5c-0.7,0.2-1.4,0.4-2,0.6c-2,0.5-4,0.9-6.1,1.2
	c0.2-0.5,0.4-1,0.6-1.6c0.6-1.7,0.9-3.5,1.1-5.3c0.1-1.8,0.1-3.6-0.1-5.4c-0.3-3.5-1.3-6.9-2.7-10.1c-2.8-6.3-7.1-11.6-11.9-16.1
	c-4.9-4.5-10.9-7.4-16.4-10.4l-2.2-1.2l0.1,2.3c0.1,2.5,0.1,4.9,0.2,7.4c0,1.2,0,2.5,0,3.7c0,1.2,0,2.5,0,3.8c0.1,1.3,0,2.5,0.2,3.8
	c0.1,1.3,0.2,2.6,0.4,3.9c0.3,1.3,0.5,2.6,0.9,3.8c0.4,1.2,0.8,2.5,1.4,3.7c2.3,4.8,6,9.1,10.6,11.9c3.2,2.1,6.8,3.4,10.5,3.9
	c-0.4,0.5-0.7,1.1-1.1,1.6c-1.2,1.5-2.6,2.7-4.2,3.8c-0.8,0.5-1.6,1.1-2.5,1.6l-0.2,0.1c-0.7,0.3-1.3,0.5-2,0.8
	c-1.4,0.5-3.3,0.7-5,0.5c-1.8-0.2-3.5-0.7-5-1.6c-3.1-1.7-5.1-4.6-6.1-8.3l-0.5-1.6l-1.5-0.7c-5.1-2.5-10-5.6-13.9-9.4
	c-3.9-3.8-6.8-8.6-7.9-13.8c-1.1-5.2-0.4-10.7,1.7-15.9c2.1-5.1,5.3-9.9,9.3-13.9c3.9-4,8.8-7.2,14-9.9c0,0,0.1,0,0.1,0
	c5.4-2.3,11-4.1,16.7-5.2c5.7-1.1,11.5-1.5,16.9-0.6c2.7,0.5,5.2,1.3,7.5,2.5c2.2,1.2,4.1,2.9,5.6,4.9l1,1.3l1.8,0.1
	c9.2,0.3,18.2,3,25.8,8c7.6,4.9,13.8,12,17.6,20c0.9,2,1.7,4.1,2.3,6.2c0.6,2.1,1,4.3,1.2,6.4l0.1,1.6l0,1.6c0,1.1,0,2.1-0.1,3.3
	c-0.2,2.3-0.5,4.5-1,6.6c-1,4.2-2.8,8-5.7,10.7c-2.9,2.8-6.9,4.6-11.2,5.7l-2.5,0.6l-0.3,2.4c0,0.3-0.2,0.8-0.3,1.3
	c-0.1,0.5-0.2,0.9-0.4,1.4c-0.3,0.9-0.6,1.8-1,2.7c-0.8,1.7-1.8,3.2-3,4.3c-0.6,0.5-1.3,1-2,1.3c-0.3,0.2-0.8,0.3-1.3,0.5
	c-0.5,0.2-0.9,0.3-1.4,0.4c-2,0.5-4.1,0.9-6.1,1.2l-3.1,0.4l0.3,2.9l1.1,9.4l-2.4-2.3c-2.5-2.3-5-4.6-7.5-6.9l-0.5-0.5l-0.5,0
	c-1.7,0-3.4-0.2-5-0.4c-1.7-0.2-3.3-0.6-4.8-1.2c-1.5-0.6-2.9-1.5-3.9-2.7c-1-1.2-1.6-2.9-2.5-4.4l0,0l0,0l-0.3,0.1l-0.4,0.2
	c0.6,1.6,1,3.4,2,5c1,1.6,2.6,2.9,4.2,3.7c1.7,0.9,3.4,1.5,5.2,1.9c1.5,0.4,3.1,0.6,4.6,0.8c2.1,2.4,4.3,4.8,6.5,7.2l6.8,7.5l4.5,5
	l-0.3-6.9l-0.6-13.1c1.4-0.2,2.8-0.4,4.2-0.7c0.6-0.1,1.2-0.3,1.8-0.4c0.6-0.2,1.2-0.4,1.9-0.6c1.4-0.5,2.6-1.3,3.7-2.2
	c2.2-1.8,3.9-4,5.1-6.3c0.6-1.2,1.1-2.3,1.5-3.6c0.2-0.4,0.3-0.9,0.4-1.3c1.9-0.5,3.7-1.1,5.6-1.9c2.5-1.1,5-2.6,7.2-4.6
	c2.2-1.9,4-4.3,5.4-6.8c1.4-2.5,2.4-5.1,3.1-7.8c0.7-2.6,1.1-5.3,1.4-7.9c0.1-1.3,0.2-2.7,0.2-4L363.5,58.4z M268.4,61.2
	c-2-3.9-4.2-8-5.6-12.6c-1.2-3.8-1.6-7.7-1.5-11.7c4.2,3.3,7.7,7.4,11,11.4c1.9,2.3,3.6,4.6,5.1,7.1c1.5,2.5,2.8,5.1,3.8,7.6
	c1.1,2.6,1.9,5.2,2.5,7.9c0.5,2.3,0.7,4.6,0.5,6.9c0,0,0,0,0,0c-3.1-1.9-5.8-3.9-8.2-6.2C272.9,68.6,270.5,65.1,268.4,61.2z"/>
<g>
	<path style="fill:#FFFFFF;" d="M214.3,18.5H212v6.1h-1.1v-6.1h-2.4v-1h5.9V18.5z"/>
	<path style="fill:#FFFFFF;" d="M221.7,24.6v-5.1l-2.1,3.9H219l-2.1-3.9v5.1h-1.1v-7.1h1.2l2.4,4.3l2.4-4.3h1.2v7.1H221.7z"/>
</g>
</svg>
