<svg xmlns="http://www.w3.org/2000/svg" viewBox="0 0 365.15 131.43"><defs><style>.a{fill:#231f20;}</style></defs><title>MINTLogo_Web</title><path class="a" d="M43.15,70.07V38L31.53,61.32H24.9L13.28,38V70.07H0.91V16.51H14.34l13.88,28,14-28H55.52V70.07H43.15Z"/><path class="a" d="M73.32,70.07V16.51H85.7V70.07H73.32Z"/><path class="a" d="M115.87,39.44V70.07H103.5V16.51h9.66l25,31.46V16.51h12.37V70.07h-10Z"/><path class="a" d="M209.11,27.37H192.81v42.7H180.44V27.37H164.07V16.51h45V27.37Z"/><path class="a" d="M23.52,99.83H19V91.58a3.37,3.37,0,0,0-.53-2.11,1.68,1.68,0,0,0-1.37-.66,2.32,2.32,0,0,0-.91.2,3.09,3.09,0,0,0-.85.55,4.53,4.53,0,0,0-1.23,1.86v8.42H9.67V91.58a3.36,3.36,0,0,0-.53-2.11,1.68,1.68,0,0,0-1.37-.66A2.71,2.71,0,0,0,6,89.52a4.08,4.08,0,0,0-1.25,1.89v8.42H0.3V85.14h4V87.6a5.32,5.32,0,0,1,2.2-2,7.09,7.09,0,0,1,3.23-.7,5.2,5.2,0,0,1,1.61.22,3.88,3.88,0,0,1,1.19.62,3.26,3.26,0,0,1,.81.91,3.94,3.94,0,0,1,.45,1.1A5.79,5.79,0,0,1,16,85.6a6.48,6.48,0,0,1,3.13-.74,4.31,4.31,0,0,1,2.25.52,3.75,3.75,0,0,1,1.33,1.34,5.2,5.2,0,0,1,.63,1.8,12.26,12.26,0,0,1,.15,1.9v9.4Z"/><path class="a" d="M34.18,100.11a8.68,8.68,0,0,1-3.32-.6,7.36,7.36,0,0,1-2.49-1.64,7,7,0,0,1-1.55-2.39,7.71,7.71,0,0,1-.53-2.84,8.47,8.47,0,0,1,.53-3,7.29,7.29,0,0,1,1.54-2.48,7.2,7.2,0,0,1,2.48-1.68,8.59,8.59,0,0,1,3.34-.62,8.48,8.48,0,0,1,3.33.62A7.32,7.32,0,0,1,40,87.14a7.07,7.07,0,0,1,1.52,2.42A8.1,8.1,0,0,1,42,92.44q0,0.39,0,.77a5.46,5.46,0,0,1-.08.66H31a3,3,0,0,0,1.08,2.25,3.43,3.43,0,0,0,2.2.77,4,4,0,0,0,1.89-.48,2.43,2.43,0,0,0,1.22-1.29l3.81,1.06A6.84,6.84,0,0,1,38.55,99,8.33,8.33,0,0,1,34.18,100.11Zm3.11-9a3.37,3.37,0,0,0-1-2.21,3,3,0,0,0-2.15-.81,3,3,0,0,0-2.17.83,3.43,3.43,0,0,0-1,2.2h6.32Z"/><path class="a" d="M68,99.83H63.5V91.58A3.37,3.37,0,0,0,63,89.46a1.68,1.68,0,0,0-1.37-.66,2.32,2.32,0,0,0-.91.2,3.09,3.09,0,0,0-.85.55,4.53,4.53,0,0,0-1.23,1.86v8.42H54.13V91.58a3.36,3.36,0,0,0-.53-2.11,1.68,1.68,0,0,0-1.37-.66,2.71,2.71,0,0,0-1.75.71,4.08,4.08,0,0,0-1.25,1.89v8.42H44.76V85.14h4V87.6a5.32,5.32,0,0,1,2.2-2,7.09,7.09,0,0,1,3.23-.7,5.2,5.2,0,0,1,1.61.22A3.88,3.88,0,0,1,57,85.7a3.26,3.26,0,0,1,.81.91,3.94,3.94,0,0,1,.45,1.1,5.79,5.79,0,0,1,2.21-2.11,6.48,6.48,0,0,1,3.13-.74,4.31,4.31,0,0,1,2.25.52,3.75,3.75,0,0,1,1.33,1.34,5.2,5.2,0,0,1,.63,1.8,12.26,12.26,0,0,1,.15,1.9v9.4Z"/><path class="a" d="M78.61,100.11a8.59,8.59,0,0,1-3.34-.62,7.27,7.27,0,0,1-2.48-1.66,7,7,0,0,1-1.52-2.43,8.36,8.36,0,0,1,0-5.79,7,7,0,0,1,1.52-2.43,7.44,7.44,0,0,1,2.48-1.68,8.41,8.41,0,0,1,3.34-.63,8.31,8.31,0,0,1,3.33.63,7.48,7.48,0,0,1,2.46,1.68,7.2,7.2,0,0,1,1.54,2.43,8,8,0,0,1,.53,2.9A8.21,8.21,0,0,1,86,95.4a7,7,0,0,1-1.52,2.43A7.27,7.27,0,0,1,82,99.5,8.59,8.59,0,0,1,78.61,100.11ZM75.34,92.5a4.06,4.06,0,0,0,.92,2.78,3,3,0,0,0,2.35,1,3,3,0,0,0,1.29-.28,3.09,3.09,0,0,0,1-.78,3.76,3.76,0,0,0,.69-1.22,4.63,4.63,0,0,0,.25-1.55,4.06,4.06,0,0,0-.92-2.78,3,3,0,0,0-2.32-1,3,3,0,0,0-2.34,1.06,3.75,3.75,0,0,0-.69,1.22A4.63,4.63,0,0,0,75.34,92.5Z"/><path class="a" d="M98.7,89a8.58,8.58,0,0,0-2.94.53A3.58,3.58,0,0,0,93.86,91v8.81H89.38V85.14h4.11v3a6.23,6.23,0,0,1,1.94-2.32A4.48,4.48,0,0,1,98,84.92h0.45l0.28,0v4Z"/><path class="a" d="M101.38,102a6.62,6.62,0,0,0,1,.28,5.3,5.3,0,0,0,.88.08,1.52,1.52,0,0,0,1.26-.56,5.6,5.6,0,0,0,.81-2l-5.6-14.69h4.62L107.82,96l2.94-10.86H115l-5.6,17.07a5.81,5.81,0,0,1-5.68,4.08,6.75,6.75,0,0,1-1.13-.1,6.24,6.24,0,0,1-1.16-.32V102Z"/><path class="a" d="M123,92.47a8,8,0,0,1,.53-2.9,7.2,7.2,0,0,1,1.54-2.43,7.29,7.29,0,0,1,2.48-1.67,8.59,8.59,0,0,1,3.34-.62,8,8,0,0,1,4.28,1.08,6.91,6.91,0,0,1,2.6,2.81l-4.36,1.31a2.81,2.81,0,0,0-2.55-1.4,3,3,0,0,0-2.34,1,4,4,0,0,0-.94,2.77,4.72,4.72,0,0,0,.25,1.58,3.61,3.61,0,0,0,.7,1.22,3.18,3.18,0,0,0,1,.78,3.08,3.08,0,0,0,2.81-.13,2.6,2.6,0,0,0,1-1l4.36,1.34a6.58,6.58,0,0,1-2.59,2.8,8.11,8.11,0,0,1-4.32,1.09,8.34,8.34,0,0,1-3.32-.63,7.61,7.61,0,0,1-2.49-1.68,7.09,7.09,0,0,1-1.55-2.43A8,8,0,0,1,123,92.47Z"/><path class="a" d="M140.47,79.41h4.48V94.6q0,1.68,1.43,1.68a3.15,3.15,0,0,0,.74-0.1,2.73,2.73,0,0,0,.74-0.29l0.59,3.36a8.68,8.68,0,0,1-1.93.62,10.19,10.19,0,0,1-2,.22,4.08,4.08,0,0,1-3-1,3.87,3.87,0,0,1-1-2.91V79.41Z"/><path class="a" d="M150.6,83.46V79.41h4.48v4.06H150.6Zm0,16.37V85.14h4.48V99.83H150.6Z"/><path class="a" d="M173,99.83h-4.48V91.58a3.3,3.3,0,0,0-.55-2.11,1.78,1.78,0,0,0-1.44-.66,2.48,2.48,0,0,0-1,.2,3.94,3.94,0,0,0-.92.55,4.19,4.19,0,0,0-.8.83,3.92,3.92,0,0,0-.55,1v8.42h-4.48V85.14h4V87.6a5.34,5.34,0,0,1,2.29-2,7.78,7.78,0,0,1,3.41-.71,4.44,4.44,0,0,1,2.29.52,3.72,3.72,0,0,1,1.34,1.34,5.2,5.2,0,0,1,.63,1.8,12.32,12.32,0,0,1,.15,1.9v9.4Z"/><path class="a" d="M176.67,83.46V79.41h4.48v4.06h-4.48Zm0,16.37V85.14h4.48V99.83h-4.48Z"/><path class="a" d="M184.06,92.47a8,8,0,0,1,.53-2.9,7.2,7.2,0,0,1,1.54-2.43,7.29,7.29,0,0,1,2.48-1.67,8.59,8.59,0,0,1,3.34-.62,8,8,0,0,1,4.28,1.08,6.91,6.91,0,0,1,2.6,2.81l-4.36,1.31a2.81,2.81,0,0,0-2.55-1.4,3,3,0,0,0-2.34,1,4,4,0,0,0-.94,2.77,4.72,4.72,0,0,0,.25,1.58,3.61,3.61,0,0,0,.7,1.22,3.18,3.18,0,0,0,1,.78,3.08,3.08,0,0,0,2.81-.13,2.6,2.6,0,0,0,1-1l4.36,1.34a6.58,6.58,0,0,1-2.59,2.8,8.11,8.11,0,0,1-4.32,1.09,8.34,8.34,0,0,1-3.32-.63,7.61,7.61,0,0,1-2.49-1.68,7.09,7.09,0,0,1-1.55-2.43A8,8,0,0,1,184.06,92.47Z"/><path class="a" d="M207.36,100.11a11.69,11.69,0,0,1-3.69-.6,8.42,8.42,0,0,1-3.08-1.75L202.19,95a13.27,13.27,0,0,0,2.62,1.43,6.65,6.65,0,0,0,2.45.5,2.47,2.47,0,0,0,1.34-.31,1,1,0,0,0,.48-0.9,1.05,1.05,0,0,0-.6-0.94,9.3,9.3,0,0,0-2.11-.74q-1.48-.42-2.5-0.81a7.05,7.05,0,0,1-1.66-.87,2.81,2.81,0,0,1-.92-1.09,3.49,3.49,0,0,1-.28-1.46,4.57,4.57,0,0,1,1.68-3.61,5.84,5.84,0,0,1,1.86-1,7.26,7.26,0,0,1,2.34-.36,10.39,10.39,0,0,1,3.09.45,7.73,7.73,0,0,1,2.78,1.62L211,89.62a11.86,11.86,0,0,0-2.24-1.26,5.11,5.11,0,0,0-1.9-.39,2.41,2.41,0,0,0-1.23.29,1.09,1.09,0,0,0,0,1.86,9,9,0,0,0,2,.67,25.83,25.83,0,0,1,2.64.84,7.07,7.07,0,0,1,1.75.94,3.18,3.18,0,0,1,1,1.19,3.8,3.8,0,0,1,.31,1.59,4.2,4.2,0,0,1-1.62,3.47A6.88,6.88,0,0,1,207.36,100.11Z"/><path class="a" d="M8.32,117.38a0.79,0.79,0,0,1-.53.48c-0.16,0-.24,0-0.24.15s-0.09.15-.27,0.16A1.19,1.19,0,0,1,6.72,118a0.55,0.55,0,0,1-.34-0.32,8.83,8.83,0,0,1,.18-1,1.92,1.92,0,0,0,0-1.09q-0.14-.25-0.62,0a3.67,3.67,0,0,0-1.41,1.45,10.25,10.25,0,0,0-.81,2.27A8,8,0,0,0,3.43,121a0.81,0.81,0,0,0,.23.61A1.73,1.73,0,0,0,5,121.54a11.66,11.66,0,0,0,1.55-1.09,1.15,1.15,0,0,0,.22-0.29,0.94,0.94,0,0,1,.32-0.35,0.66,0.66,0,0,1,.61-0.35H8.23a1.38,1.38,0,0,1,.74.64,0.27,0.27,0,0,1,0,.32l-0.13.13A2.46,2.46,0,0,1,8,121.82a3.35,3.35,0,0,1-1.27,1.05c-0.19,0-.28.05-0.28,0.16a1.93,1.93,0,0,1-.77.49,5.81,5.81,0,0,1-1.26.49,2.67,2.67,0,0,1-2.15-.51,2.29,2.29,0,0,1-1-1.95,8.17,8.17,0,0,1,.42-3.07,9,9,0,0,1,1.41-3,6.79,6.79,0,0,1,2-1.93,3.81,3.81,0,0,1,1.52-.31q1.4,0.35,1.4.91l0.13,0.13a1.1,1.1,0,0,1,.51.83,1.66,1.66,0,0,1,.08,1.23A3,3,0,0,1,8.32,117.38Z"/><path class="a" d="M14.31,115.22a5.54,5.54,0,0,1,2.29-1.39,2.1,2.1,0,0,1,2.13.29A2.13,2.13,0,0,1,19.87,116a7.22,7.22,0,0,1-1.4,4.64,8.32,8.32,0,0,1-2.59,2.48,4.68,4.68,0,0,1-2.34.59,1.59,1.59,0,0,1-1-.51,2.83,2.83,0,0,1-1-2.21l0.05-.61q-0.13-.13-0.06-0.21l0.09-.11q0.15,0,.1-0.25a2.42,2.42,0,0,1,.18-1,6.67,6.67,0,0,1,.58-1.33A8.7,8.7,0,0,1,14.31,115.22Zm2.88,3.48c0-.06.07-0.2,0.14-0.4a2.8,2.8,0,0,1,.19-0.47,2.28,2.28,0,0,0,.1-0.81,1,1,0,0,0-.19-0.79,0.66,0.66,0,0,0-.46-0.08,2.44,2.44,0,0,0-.58.35,6.65,6.65,0,0,0-2.31,3.65,1.53,1.53,0,0,0,.14,1,0.57,0.57,0,0,0,.72.17,2.2,2.2,0,0,0,.91-0.57l0.53-.55L16.6,120a1.34,1.34,0,0,0,.18-0.31l0.14-.29a3,3,0,0,0,.14-0.33Z"/><path class="a" d="M22.08,122.21a8.25,8.25,0,0,1,.3-2,5.35,5.35,0,0,1,.48-1.89q1-3.71,1.12-4.08,0.23-.69.64-1.83t0.55-1.56q0.14-.43.43-1.52a6.88,6.88,0,0,1,.5-1.44q0.38-.61.51-0.88a0.56,0.56,0,0,1,.51-0.24,0.73,0.73,0,0,1,.63.08,0.68,0.68,0,0,1,.44.44,1.48,1.48,0,0,1,.31.77,0.89,0.89,0,0,1-.13.45q-0.11.17-.52,1a14.13,14.13,0,0,1-.56,1.81q-0.23.53-.29,0.75t-0.37,1q-0.3.83-.7,2.19a10.33,10.33,0,0,1-.58,1.69,6.69,6.69,0,0,0-.42,1.69,8.43,8.43,0,0,0-.38,1.41q-0.08.27-.2,1.05a4.52,4.52,0,0,1-.28,1.11,1.7,1.7,0,0,1-.38.89,0.52,0.52,0,0,1-.74.17A1.38,1.38,0,0,1,22.08,122.21Z"/><path class="a" d="M27.69,121.09a30.33,30.33,0,0,1,.94-4l0.28-.93a12.65,12.65,0,0,1,1.42-3.49l0.08-.2,0.08-.2a1.51,1.51,0,0,1,.18-0.75,4.32,4.32,0,0,0,.46-0.93l0.71-1.52a1.54,1.54,0,0,1,.81-1l0,0a1,1,0,0,1,.47-0.37,1.45,1.45,0,0,1,.6-0.16,0.68,0.68,0,0,1,.74.8,1.66,1.66,0,0,1-.2,1h0a4.47,4.47,0,0,1-.44,1.07q-0.14.16-1.13,2.16a20.46,20.46,0,0,0-1.37,3.2q-0.05.11-.19,0.45l-0.17.4-0.41,1.65-0.1.56Q30,119.94,30,120.21a3.21,3.21,0,0,0-.14.48,5.53,5.53,0,0,1-.19.64,10.2,10.2,0,0,0-.43,2.21l0,0.11a1.73,1.73,0,0,1-.32.88,0.55,0.55,0,0,1-.62.19,1.24,1.24,0,0,1-.77-1.27A10.84,10.84,0,0,1,27.69,121.09Z"/><path class="a" d="M43.19,121.58a2.55,2.55,0,0,1-.9,1,2,2,0,0,1-1.1.43,1.09,1.09,0,0,1-.86-0.48,4.71,4.71,0,0,1-.79-1.87l-0.91.88q-0.18.21-.43,0.48a4.79,4.79,0,0,0-.61.64,3.13,3.13,0,0,1-1.45.85,1.83,1.83,0,0,1-.84,0,0.59,0.59,0,0,1-.51-0.2,0.34,0.34,0,0,0,0-.13H34.65a3.38,3.38,0,0,0-.79-0.56,1.74,1.74,0,0,1-.3-0.85,7.59,7.59,0,0,1,.3-1.76,6.49,6.49,0,0,1,1.46-3.53,10.36,10.36,0,0,1,2.73-2.79,1.34,1.34,0,0,1,1-.4,1.72,1.72,0,0,1,1,.21,3.42,3.42,0,0,1,.89.93,7.69,7.69,0,0,1,.75,1.25s0,0.19.13,0.52a1.39,1.39,0,0,1,.09.55,5.19,5.19,0,0,0,0,1,7.43,7.43,0,0,0-.3,2,1,1,0,0,0,.11.72,0.44,0.44,0,0,0,.58,0,0.7,0.7,0,0,1,.84.16A0.76,0.76,0,0,1,43.19,121.58Zm-7.29-1q0,0.93.91,0.37a3.57,3.57,0,0,0,.91-0.8q0.43-.61,1.12-1.68a5.17,5.17,0,0,0,.91-1.79,1.32,1.32,0,0,0-.63-1q-0.71,0-1.93,1.76a5.56,5.56,0,0,0-1,1.87A7.07,7.07,0,0,0,35.9,120.61Z"/><path class="a" d="M47.38,114.58l0.28-.91a4.33,4.33,0,0,0,.47-1.16q0.34-1.05.62-1.72,0.94-2.16,1.3-3.2,0.15-.24.36-0.61a3.62,3.62,0,0,1,.56-0.85,1.44,1.44,0,0,1,.77.27,2,2,0,0,1,.77.61,0.48,0.48,0,0,1,.06.48,7.82,7.82,0,0,1-.44,1.07l-0.43.92-0.23.51-0.53,1.2q-0.38.87-.8,2t-0.74,2.09q-0.32,1-.44,1.33l-0.13.59,0.66-.77a5.76,5.76,0,0,1,1.75-1.33,6.09,6.09,0,0,1,2.44-.67,2.2,2.2,0,0,1,1.78,1.41,2.75,2.75,0,0,1,.2,1.44,3.52,3.52,0,0,1-.43,1.47,0.9,0.9,0,0,0-.41.61,6.3,6.3,0,0,1-1.3,1.79,9.55,9.55,0,0,1-1.74,1.44,8.9,8.9,0,0,1-1.49.87,3,3,0,0,1-.66.17q-0.64.11-.81,0.16a1.39,1.39,0,0,1-1.24-.85,0.76,0.76,0,0,1-.25-0.61,0.39,0.39,0,0,0,.36-0.11c0-.11.09-0.14,0.28-0.11q1.32,0.11,4.39-2.88a11.37,11.37,0,0,0,1.12-1.71,0.77,0.77,0,0,0,0-.75q-0.3-.61-1.65.32a10.77,10.77,0,0,0-3,2.72l-1,1.31a0.47,0.47,0,0,1-.29.27,1.08,1.08,0,0,1-.5.16,0.79,0.79,0,0,1-.48-0.59l-0.34-.25a1.34,1.34,0,0,1-.14-0.28,3.29,3.29,0,0,1,.2-1.65,12.23,12.23,0,0,1,.91-3.36A1.65,1.65,0,0,0,47.38,114.58Z"/><path class="a" d="M58.25,121.71c0-.2,0-0.35,0-0.44a1.26,1.26,0,0,0-.05-0.32q-0.15-.13-0.09-0.21a0.26,0.26,0,0,0,.06-0.11q0.2-.05.05-0.29a2.32,2.32,0,0,1,.09-1,9,9,0,0,1,.39-1.35,9.28,9.28,0,0,1,1.52-2.61,5.94,5.94,0,0,1,2-1.73,1.8,1.8,0,0,1,2,.19A2.29,2.29,0,0,1,66,115.51a6.74,6.74,0,0,1-.74,4.53,8.68,8.68,0,0,1-2,2.79,5.82,5.82,0,0,1-2.72,1.32,1.63,1.63,0,0,1-1-.35,3.77,3.77,0,0,1-.93-1.12A2,2,0,0,1,58.25,121.71Zm4.52-1.59a5.61,5.61,0,0,0,1-3.31,0.84,0.84,0,0,0-.23-0.77,1.29,1.29,0,0,0-1.47.64,5.13,5.13,0,0,0-.86,1.31,13.68,13.68,0,0,0-.62,2q-0.34,1.4.19,1.72Q61.45,122.18,62.77,120.13Z"/><path class="a" d="M75.82,113.73a1.33,1.33,0,0,1,.66.27,1.56,1.56,0,0,1,.53.51,1.67,1.67,0,0,1,.2,1.81,1.84,1.84,0,0,1-1.85.88,0.67,0.67,0,0,1-.3-0.37,1.84,1.84,0,0,1-.2-0.53,1,1,0,0,0-.58.52l-0.69.76A13.73,13.73,0,0,0,72.2,120q-0.8,1.69-1,2.23a8,8,0,0,1-.34.8,0.67,0.67,0,0,1-.27.32,1.14,1.14,0,0,1-.57-0.07,1.1,1.1,0,0,1-.52-0.23q-1-.88-0.05-2.29,0.18-.37.69-1.93t0.58-1.75a1.24,1.24,0,0,0-.05-0.65,0.49,0.49,0,0,0-.43-0.23q-0.53,0-.53-0.85a1.44,1.44,0,0,1,.58-1.12,2.24,2.24,0,0,1,1-.23,1.51,1.51,0,0,1,1,.23,3.4,3.4,0,0,1,.53,1.73q0.18-.16.61-0.65l0.61-.68A3.75,3.75,0,0,1,75.82,113.73Z"/><path class="a" d="M78.8,122.61a1.27,1.27,0,0,0-.33-0.67q-0.38-.4,1.57-4.16a3.47,3.47,0,0,0,.39-0.56,2.13,2.13,0,0,1,.32-0.45,0.31,0.31,0,0,1,.08-0.2,0.22,0.22,0,0,1,.18-0.09l0.2-.43a6.37,6.37,0,0,1,1-1.15,9.52,9.52,0,0,1,1.42-1.25,1.82,1.82,0,0,1,1.09-.32,1.56,1.56,0,0,1,1,.37A1.68,1.68,0,0,0,86,114q0.48,0.4,2.16,2l-0.43,1.33a3.76,3.76,0,0,0,.3,3.25,1.1,1.1,0,0,0,.86.67,0.6,0.6,0,0,1,.61.59,1.08,1.08,0,0,1-.69,1.25,2.67,2.67,0,0,1-3-1.71,2.71,2.71,0,0,1-.46-1.17,5.57,5.57,0,0,1-.58.69q-3.45,3.68-5.23,2.48a1.47,1.47,0,0,0-.43-0.43A1.19,1.19,0,0,1,78.8,122.61Zm6-7q-0.94,0-3.1,3.81a7.41,7.41,0,0,0-.69,1.68,3,3,0,0,0,1.58-1l0.62-.56,0.57-.51,0.46-.43a7.56,7.56,0,0,0,.86-1.09l0.56-1A1.31,1.31,0,0,0,84.76,115.65Z"/><path class="a" d="M98.5,111.91q0,0.27.38,0.27a9.76,9.76,0,0,0,1.09-.11l0.33-.05a0.69,0.69,0,0,1,.46.05,1.25,1.25,0,0,1,.11.91,0.9,0.9,0,0,1-.34.75l-0.53.16a22.23,22.23,0,0,1-2.31.29q-0.66,1.33-.77,1.59a1.27,1.27,0,0,0-.11.31l-1.07,2.35c-0.07,0-.1.05-0.1,0.16a0.39,0.39,0,0,1,0,.43,2.1,2.1,0,0,0-.36.43,0.62,0.62,0,0,1-.13.61,4.18,4.18,0,0,1-.36,1.36,6,6,0,0,0,.05.61c0,0.09.06,0.12,0.13,0.11a3.34,3.34,0,0,0,.69,0q0.38-.19-0.36,1.87a7.67,7.67,0,0,1-.8,1.08,1.38,1.38,0,0,1-.55.47q-2.13,0-1.78-2.51a3.76,3.76,0,0,0,.13-0.59,2.06,2.06,0,0,1,.28-0.85,0.17,0.17,0,0,0,0-.24,6.37,6.37,0,0,1,.46-1.57,0.33,0.33,0,0,1,.13-0.47q0.28-.25.19-0.39a0.58,0.58,0,0,1,.09-0.51l0.42-.85a5.84,5.84,0,0,0,.29-0.64,5.27,5.27,0,0,1,.42-1.09q0.44-1,.57-1.25T95,114.38a10.18,10.18,0,0,0-1.46-.07,3.16,3.16,0,0,1-1.57-.29,0.78,0.78,0,0,1-.08-0.88,0.86,0.86,0,0,1,.81-0.56l3.25-.29,0.08-.45,0.19-.31,0.11-.19a0.54,0.54,0,0,0,.05-0.12,2.17,2.17,0,0,0,.1-0.51,3.48,3.48,0,0,0,.51-1.36,8.75,8.75,0,0,0,.61-1.12q0.76-1.65,1.85-.91a1.17,1.17,0,0,1,.69,1,1.43,1.43,0,0,1-.18.55,5.7,5.7,0,0,0-.36.92,3.26,3.26,0,0,0-.66,1.44A2.47,2.47,0,0,1,98.5,111.91Z"/><path class="a" d="M102.8,115.09q0.15-.4.69-0.2a1.87,1.87,0,0,1,.91.81,1.1,1.1,0,0,1,.19.87A21.6,21.6,0,0,1,104,119a9.81,9.81,0,0,0-.46,2.79,14.59,14.59,0,0,1-.2,1.65q-0.1.45-.31,0.43a1.27,1.27,0,0,1-1.05-.67,3.6,3.6,0,0,1-.55-1.65q0.1-1,.15-1.44Q102.49,115.89,102.8,115.09Zm1.93-5.87a4.09,4.09,0,0,1,1.17.37q1.14,2.51-.51,3.23a0.4,0.4,0,0,1-.48-0.08,1.34,1.34,0,0,1-.67-0.45,1.37,1.37,0,0,1-.42-0.56,5,5,0,0,1,.18-1.53A1,1,0,0,1,104.73,109.22Z"/><path class="a" d="M108.26,114.45a1,1,0,0,1,.44-0.12,1.73,1.73,0,0,1,.47,0q0.56,0.21,1,3.25,0.05,0.48.1,0.91,0.13,0.72.15,0.8c0,0.05,0,.18.08,0.39a0.35,0.35,0,0,0,.13.31q0.28,0,1.83-2.35a13.39,13.39,0,0,1,1.47-1.92,2.63,2.63,0,0,1,.86-0.67,0.58,0.58,0,0,1,.75.47,1.68,1.68,0,0,1-.37,1.32,3.6,3.6,0,0,0-.32.57q-0.16.36-.33,0.68t-0.91,1.39q-0.75,1.07-.89,1.21l-0.34.33a4.61,4.61,0,0,0-.86.93,2.51,2.51,0,0,1-1.17.76,0.78,0.78,0,0,1-.86-0.2,4.91,4.91,0,0,1-.76-1.81,20.27,20.27,0,0,1-.64-2.57,13.07,13.07,0,0,0-.46-1.93,1.55,1.55,0,0,1,.08-1A1.48,1.48,0,0,1,108.26,114.45Z"/><path class="a" d="M120.84,119.49a2.19,2.19,0,0,1-1-.13q-0.28-.16-0.41.4l-0.08.59a1.37,1.37,0,0,0,.33,1.17,0.66,0.66,0,0,0,.63.23,1.38,1.38,0,0,0,.76-0.31,6.17,6.17,0,0,0,.71-0.69,4.78,4.78,0,0,1,.56-0.56,1,1,0,0,1,1.27-.19q0.56,0.43-.15,1.76a4.37,4.37,0,0,1-.77.91,6.77,6.77,0,0,1-1,.88,3.25,3.25,0,0,1-2.84.13q-1.91-.8-1.57-3.95a3.61,3.61,0,0,0,0-1.08,1,1,0,0,0-.25-0.45l-0.34-.31a1.32,1.32,0,0,1-.42-0.56,1.12,1.12,0,0,1,.09-0.44,0.79,0.79,0,0,1,.18-0.33,2.52,2.52,0,0,1,.67-0.25,1,1,0,0,1,.3.15,0.36,0.36,0,0,1,.22.24q0.13,0.27.56-.56l0.23-.48a5.38,5.38,0,0,1,1-1.11,5.72,5.72,0,0,1,1-.75,4.06,4.06,0,0,1,1.05-.35,3.73,3.73,0,0,1,1-.12,2.88,2.88,0,0,1,1.75,1.09,1.66,1.66,0,0,1,.53,1.24,2.6,2.6,0,0,1-.2,1.43,3.32,3.32,0,0,1-1,1.21,6,6,0,0,1-1.46,1.05A4.9,4.9,0,0,1,120.84,119.49Zm1.74-3.87q-0.33-.35-1,0.13a2.23,2.23,0,0,0-.7.48,5.92,5.92,0,0,0-.75.8q-0.3.4-.18,0.48s0,0.06.06,0.08l0.23,0,0.27,0a1.73,1.73,0,0,0,.47-0.07,2.11,2.11,0,0,0,.69-0.31,3.36,3.36,0,0,0,.8-0.89A1,1,0,0,0,122.58,115.62Z"/><path class="a" d="M137.54,113.62s0.1,0,.2.24a2.73,2.73,0,0,1,.48,1.17l-0.05.12h0.1a5.44,5.44,0,0,0,1.3-.8,1.12,1.12,0,0,0,.38-0.24,2,2,0,0,1,1.09-.07,2,2,0,0,1,1,.47,3.88,3.88,0,0,1,.69,3.57L142,119.35a8.11,8.11,0,0,1-2.79,2.72,3.87,3.87,0,0,1-1.1.48,1.65,1.65,0,0,1-.85.13,1.9,1.9,0,0,1-.51-0.91,7.06,7.06,0,0,0-.39,1.19,0.79,0.79,0,0,1-.17.44,0.93,0.93,0,0,1-.2.43q-0.79,2.37-.81,2.53a6.07,6.07,0,0,1-.36,1.57,1.41,1.41,0,0,1-.71.91,0.92,0.92,0,0,1-1.05-.53,1.62,1.62,0,0,1-.24-1.49,3,3,0,0,0,.24-0.87,8.64,8.64,0,0,1,.34-1.35,6.43,6.43,0,0,1,.47-1.15,2.09,2.09,0,0,0,.22-1,3,3,0,0,1,.33-0.8,3.75,3.75,0,0,1,.38-0.91A1.92,1.92,0,0,1,135,120a19,19,0,0,1,.84-2.79q0.61-1.64.05-1.88a0.8,0.8,0,0,1-.28-0.88,1,1,0,0,1,.32-0.85,2.82,2.82,0,0,1,.62-0.16,1.06,1.06,0,0,1,.84.05A0.15,0.15,0,0,0,137.54,113.62Zm3.07,3.41a0.69,0.69,0,0,0-.08-0.83,1.64,1.64,0,0,0-1.13.4,4.84,4.84,0,0,0-1.16,1.09,4.38,4.38,0,0,0-.66,1.23,1.61,1.61,0,0,0-.1.93,0.4,0.4,0,0,0,.41.32,6.39,6.39,0,0,0,2.16-1.49l0.08-.16a2.85,2.85,0,0,1,.2-0.72Q140.52,117.35,140.62,117Z"/><path class="a" d="M153.34,116.5a1.38,1.38,0,0,0-.57.15,3.62,3.62,0,0,0-.46.24l-0.36.27q-0.22.17-.69,0.49T149.65,119a4.89,4.89,0,0,0-1.46,1.83A14.79,14.79,0,0,1,147,123.3a0.59,0.59,0,0,1-.52.31,0.73,0.73,0,0,1-.55-0.09,0.81,0.81,0,0,1-.47-0.27,1.19,1.19,0,0,1-.37-0.53,4.38,4.38,0,0,1,.3-1.55q0.43-2,.64-2.83a9.58,9.58,0,0,0,.33-1,7.51,7.51,0,0,1,.38-1.07,9.71,9.71,0,0,1,1-2.37,1.41,1.41,0,0,1,.24-0.31,0.56,0.56,0,0,1,.27-0.2,0.68,0.68,0,0,1,.56-0.15,1,1,0,0,1,.61.28,1.79,1.79,0,0,1,0,2.11,11.55,11.55,0,0,1-.6,1.36q-0.37.72-.5,1a10.8,10.8,0,0,1,2.74-2.77,0.54,0.54,0,0,0,.13-0.11,2.49,2.49,0,0,1,1.83-.64,1,1,0,0,1,.81.64,1.61,1.61,0,0,1,.18,1.39Z"/><path class="a" d="M155.48,121.35l0.1-.56a3,3,0,0,1,.2-0.88,43.49,43.49,0,0,0,1.42-4.35,0.35,0.35,0,0,1,.41-0.35,0.76,0.76,0,0,1,.71.25,3.34,3.34,0,0,1,.71.81,1.19,1.19,0,0,1-.06,1.27,8.07,8.07,0,0,0-.55,1.8q-0.3.72-.41,1.05a9.59,9.59,0,0,0-.23,1.09,3.12,3.12,0,0,1-.28,1,1.65,1.65,0,0,1-.8,1.28,0.79,0.79,0,0,1-1-.32,1.74,1.74,0,0,1-.34-1.05A1.89,1.89,0,0,1,155.48,121.35Zm2.55-9.11a1.31,1.31,0,0,1-.17-0.55,0.63,0.63,0,0,1,.11-0.37,5.76,5.76,0,0,0,.39-0.8,3,3,0,0,1,.74-1.17,0.85,0.85,0,0,1,.85,0,1.68,1.68,0,0,1,.8.67,2,2,0,0,1-.41,2.16,1.66,1.66,0,0,1-1,.68,1,1,0,0,1-.89-0.08A1.54,1.54,0,0,1,158,112.25Z"/><path class="a" d="M163.22,115l-0.05-.59a0.83,0.83,0,0,1,.37-0.68,1.49,1.49,0,0,1,.93-0.28,1,1,0,0,1,.89.49,1.77,1.77,0,0,1,.33,1,2.11,2.11,0,0,1-.2.92l-0.91,2.35c0,0.05,0,.08.05,0.08a1.25,1.25,0,0,0,.66-0.51A16.68,16.68,0,0,1,167,116.3a7,7,0,0,1,1.66-1,1.41,1.41,0,0,1,.86.48,1.47,1.47,0,0,1,.51,1.09,11.14,11.14,0,0,1-.53,2.05,8.44,8.44,0,0,1,1.68-1.47,4.06,4.06,0,0,1,1.75-.88,1.09,1.09,0,0,1,1.1.8,7.47,7.47,0,0,1,.37,2.07,6.56,6.56,0,0,0,.25,1.72,0.35,0.35,0,0,0,.29.24,1.72,1.72,0,0,1,.51.25,0.69,0.69,0,0,1,.24.6q0,1.07-1.68,1.07a1.55,1.55,0,0,1-1.28-.81,3.39,3.39,0,0,1-.55-1.93,6.51,6.51,0,0,1,.06-0.91q0.06-.45.06-0.53a0.07,0.07,0,0,0-.08-0.08q-0.66,0-2.87,2.53a0.47,0.47,0,0,0-.13.13,5.49,5.49,0,0,0-.53.51,2.25,2.25,0,0,1-1.07.75,0.69,0.69,0,0,1-.48-0.16l-0.28-.24a0.8,0.8,0,0,1-.33-0.69v-0.13l0.58-1.79a10.93,10.93,0,0,0,.63-1.63,0.21,0.21,0,0,0,0-.16,3.19,3.19,0,0,0-1.42,1.2q-1.12,1.28-1.5,1.69T164,122l-0.71.87a2.42,2.42,0,0,1-.32.36,1.37,1.37,0,0,1-1-.45,1.34,1.34,0,0,1-.44-0.93,4.94,4.94,0,0,1,.08-0.89q0.08-.41.25-1.19l0.24-1.05q0.06-.28.11-0.56l0.06-.35s0-.16.11-0.36,0.15-.4.24-0.63l0.44-1.08A2.56,2.56,0,0,0,163.22,115Z"/><path class="a" d="M186.92,121.58a2.55,2.55,0,0,1-.9,1,2,2,0,0,1-1.1.43,1.09,1.09,0,0,1-.86-0.48,4.71,4.71,0,0,1-.79-1.87l-0.91.88q-0.18.21-.43,0.48a4.79,4.79,0,0,0-.61.64,3.13,3.13,0,0,1-1.45.85,1.83,1.83,0,0,1-.84,0,0.59,0.59,0,0,1-.51-0.2,0.34,0.34,0,0,0,0-.13h-0.11a3.38,3.38,0,0,0-.79-0.56,1.74,1.74,0,0,1-.3-0.85,7.59,7.59,0,0,1,.3-1.76,6.49,6.49,0,0,1,1.46-3.53,10.36,10.36,0,0,1,2.73-2.79,1.34,1.34,0,0,1,1-.4,1.72,1.72,0,0,1,1,.21,3.42,3.42,0,0,1,.89.93,7.69,7.69,0,0,1,.75,1.25s0,0.19.13,0.52a1.39,1.39,0,0,1,.09.55,5.19,5.19,0,0,0,0,1,7.43,7.43,0,0,0-.3,2,1,1,0,0,0,.11.72,0.44,0.44,0,0,0,.58,0,0.7,0.7,0,0,1,.84.16A0.76,0.76,0,0,1,186.92,121.58Zm-7.29-1q0,0.93.91,0.37a3.57,3.57,0,0,0,.91-0.8q0.43-.61,1.12-1.68a5.17,5.17,0,0,0,.91-1.79,1.32,1.32,0,0,0-.63-1q-0.71,0-1.93,1.76a5.56,5.56,0,0,0-1,1.87A7.07,7.07,0,0,0,179.63,120.61Z"/><path class="a" d="M196.55,113.73a1.33,1.33,0,0,1,.66.27,1.56,1.56,0,0,1,.53.51,1.67,1.67,0,0,1,.2,1.81,1.84,1.84,0,0,1-1.85.88,0.67,0.67,0,0,1-.3-0.37,1.84,1.84,0,0,1-.2-0.53,1,1,0,0,0-.58.52l-0.69.76a13.73,13.73,0,0,0-1.38,2.44q-0.8,1.69-1,2.23a8,8,0,0,1-.34.8,0.67,0.67,0,0,1-.27.32,1.14,1.14,0,0,1-.57-0.07,1.1,1.1,0,0,1-.52-0.23q-1-.88-0.05-2.29,0.18-.37.69-1.93t0.58-1.75a1.24,1.24,0,0,0-.05-0.65,0.49,0.49,0,0,0-.43-0.23q-0.53,0-.53-0.85a1.44,1.44,0,0,1,.58-1.12,2.24,2.24,0,0,1,1-.23,1.51,1.51,0,0,1,1,.23,3.4,3.4,0,0,1,.53,1.73q0.18-.16.61-0.65l0.61-.68A3.75,3.75,0,0,1,196.55,113.73Z"/><path class="a" d="M201.6,130.26h-0.51a0.56,0.56,0,0,1-.61-0.45,1.31,1.31,0,0,1-.08-0.69,4.51,4.51,0,0,1,.66-2.53,8.05,8.05,0,0,0,.48-1.07q0.3-.77,1.1-2.29a23.92,23.92,0,0,0,1.26-2.75q-0.56.61-1.19,1.43a5.81,5.81,0,0,1-1,1,0.83,0.83,0,0,1-.63.17,1.7,1.7,0,0,1-.76-0.44,1.77,1.77,0,0,1-.57-0.81,10.53,10.53,0,0,1,.13-3.41,13.39,13.39,0,0,0,.28-2.65,1.42,1.42,0,0,0-.43-0.73q-0.46-.67.58-1.25a1.67,1.67,0,0,1,.85-0.08,1.32,1.32,0,0,1,.65.48,1.45,1.45,0,0,0,.15.28,2.42,2.42,0,0,1,.18.32l0.13,0.33a2.3,2.3,0,0,1,.15.76q0,0.33-.13,2.12-0.2.85-.33,1.25t-0.2.69a1.11,1.11,0,0,0,0,.48,11.8,11.8,0,0,0,1.26-1.25q0.52-.61,1.49-2a15.35,15.35,0,0,0,.84-1.76,2.1,2.1,0,0,1,.76-1.15,1,1,0,0,1,.57.11,1.14,1.14,0,0,1,.43.21,1,1,0,0,0,.48.09,0.72,0.72,0,0,1,.47.11s-0.15.44-.46,1.17a5.07,5.07,0,0,0-.42,1.19,11.53,11.53,0,0,1-.67,1.81,17.74,17.74,0,0,1-1.37,3.47q-0.28.53-2.84,6.83A0.93,0.93,0,0,1,201.6,130.26Z"/><path class="a" d="M224.07,117.38a0.79,0.79,0,0,1-.53.48c-0.16,0-.24,0-0.24.15s-0.09.15-.27,0.16a1.19,1.19,0,0,1-.56-0.12,0.55,0.55,0,0,1-.34-0.32,8.83,8.83,0,0,1,.18-1,1.92,1.92,0,0,0,0-1.09q-0.14-.25-0.62,0a3.67,3.67,0,0,0-1.41,1.45,10.25,10.25,0,0,0-.81,2.27,8,8,0,0,0-.32,1.69,0.81,0.81,0,0,0,.23.61,1.73,1.73,0,0,0,1.35-.11,11.66,11.66,0,0,0,1.55-1.09,1.15,1.15,0,0,0,.22-0.29,0.94,0.94,0,0,1,.32-0.35,0.66,0.66,0,0,1,.61-0.35H224a1.38,1.38,0,0,1,.74.64,0.27,0.27,0,0,1,0,.32l-0.13.13a2.46,2.46,0,0,1-.89,1.27,3.35,3.35,0,0,1-1.27,1.05c-0.19,0-.28.05-0.28,0.16a1.93,1.93,0,0,1-.77.49,5.81,5.81,0,0,1-1.26.49,2.67,2.67,0,0,1-2.15-.51,2.29,2.29,0,0,1-1-1.95,8.17,8.17,0,0,1,.42-3.07,9,9,0,0,1,1.41-3,6.79,6.79,0,0,1,2-1.93,3.81,3.81,0,0,1,1.52-.31q1.4,0.35,1.4.91l0.13,0.13a1.1,1.1,0,0,1,.51.83,1.66,1.66,0,0,1,.08,1.23A3,3,0,0,1,224.07,117.38Z"/><path class="a" d="M232.67,113.91a2.49,2.49,0,0,1,.69.29,2.38,2.38,0,0,1,1.37.8,6.09,6.09,0,0,1,.48,1.71,1.33,1.33,0,0,1,0,1.17l-0.14.19a0.08,0.08,0,0,0,0,.08,0.89,0.89,0,0,1-.13.37,3.91,3.91,0,0,0-.25,2q0.41,1.25,1.45.21a1.05,1.05,0,0,1,.7-0.29c0.19,0,.29.07,0.29,0.16a0.36,0.36,0,0,0,.25.13,0.24,0.24,0,0,1,.1.27,2.28,2.28,0,0,1-.3,1.09,1.26,1.26,0,0,0-.38.53l-0.38.37a2.1,2.1,0,0,1-1.16.29,1.74,1.74,0,0,1-1.08-.29,3,3,0,0,1-1.22-1.52l-0.13-.27-0.74.51-0.63.69a0.54,0.54,0,0,1-.36.27h-0.25a1,1,0,0,1-.71.45,3.44,3.44,0,0,1-1.12.27,1.21,1.21,0,0,1-1-.48,2.23,2.23,0,0,1-.71-1.09,4.94,4.94,0,0,1,.37-2.47,10.87,10.87,0,0,1,1.73-3,7.08,7.08,0,0,1,2.58-2.15A2.48,2.48,0,0,1,232.67,113.91Zm0.43,2.75a0.42,0.42,0,0,0-.25-0.32,1.49,1.49,0,0,0-.64.19,6.93,6.93,0,0,0-1.74,2.11,5.56,5.56,0,0,0-1,2.29l0.13,0.27a2.89,2.89,0,0,0,1.16-.68,7.89,7.89,0,0,0,1.05-.91q0.18-.23.37-0.52a6.93,6.93,0,0,1,.55-0.71,2.57,2.57,0,0,0,.5-0.81A1.15,1.15,0,0,0,233.1,116.66Z"/><path class="a" d="M246.74,113.73a1.33,1.33,0,0,1,.66.27,1.56,1.56,0,0,1,.53.51,1.67,1.67,0,0,1,.2,1.81,1.84,1.84,0,0,1-1.85.88,0.67,0.67,0,0,1-.3-0.37,1.84,1.84,0,0,1-.2-0.53,1,1,0,0,0-.58.52l-0.69.76a13.73,13.73,0,0,0-1.38,2.44q-0.8,1.69-1,2.23a8,8,0,0,1-.34.8,0.67,0.67,0,0,1-.27.32,1.14,1.14,0,0,1-.57-0.07,1.1,1.1,0,0,1-.52-0.23q-1-.88-0.05-2.29,0.18-.37.69-1.93t0.58-1.75a1.24,1.24,0,0,0-.05-0.65,0.49,0.49,0,0,0-.43-0.23q-0.53,0-.53-0.85a1.44,1.44,0,0,1,.58-1.12,2.24,2.24,0,0,1,1-.23,1.51,1.51,0,0,1,1,.23,3.4,3.4,0,0,1,.53,1.73q0.18-.16.61-0.65l0.61-.68A3.75,3.75,0,0,1,246.74,113.73Z"/><path class="a" d="M255,113.33a2.81,2.81,0,0,1,2.18.76,2.21,2.21,0,0,1,.69,1.43v0.21a4.61,4.61,0,0,1-.71,1.84,3.47,3.47,0,0,1-1.09,1.19,2.72,2.72,0,0,1-1.47.55,6.69,6.69,0,0,1-1.41-.09,7.13,7.13,0,0,0-.83-0.12,0.35,0.35,0,0,0-.28.19,2.31,2.31,0,0,0-.18,1.09,1.61,1.61,0,0,0,.39,1,1.1,1.1,0,0,0,.77.29,2,2,0,0,0,.86-0.19,4.18,4.18,0,0,0,1-.67,1.55,1.55,0,0,1,.85-0.48,0.86,0.86,0,0,1,.61.32,1.06,1.06,0,0,1,.33.61,3.23,3.23,0,0,1-1.18,1.61,3.63,3.63,0,0,1-2.5,1,3.16,3.16,0,0,1-2.29-.85,3.2,3.2,0,0,1-.89-2.43q0-.61.06-1.31a6.8,6.8,0,0,1,.44-1.71,9.75,9.75,0,0,1,1.22-2.19,4.93,4.93,0,0,1,1.8-1.64A3.94,3.94,0,0,1,255,113.33Zm-0.18,1.95a1.75,1.75,0,0,0-1,.57,6.16,6.16,0,0,0-1.08,1.32q0.05,0.32.84,0.32a2.55,2.55,0,0,0,1-.12,4.13,4.13,0,0,0,.74-0.67,2,2,0,0,0,.55-0.76,0.71,0.71,0,0,0-.81-0.67h-0.28Z"/><path class="a" d="M287.16,82.38c0.51-.05,1-0.1,1.54-0.12a10.35,10.35,0,0,0,1.49-.14c1-.15,1.85-0.25,2.79-0.48,0.47-.1.93-0.2,1.38-0.28l1.36-.38c0.9-.22,1.79-0.53,2.67-0.83s1.74-.64,2.6-1,1.69-.74,2.54-1.08,1.65-.82,2.48-1.19,1.62-.86,2.43-1.28,1.59-.91,2.4-1.34,1.57-.95,2.35-1.45c0.38-.25.79-0.49,1.16-0.76l1.1-.84,1.11-.84,1-.91c0.7-.61,1.46-1.17,2.12-1.83s1.46-1.23,2.08-1.94,1.36-1.36,2-2.11,1.16-1.54,1.72-2.33l0.75,1.55c-0.77-.21-1.54-0.39-2.32-0.56a15.37,15.37,0,0,0-2.35-.38c-0.79-.07-1.58-0.11-2.37-0.13a19.78,19.78,0,0,0-2.35.21c-0.39.06-.78,0.08-1.15,0.17l-1.12.29-1.1.29c-0.36.11-.7,0.26-1.05,0.39a15.86,15.86,0,0,0-2,.82c-0.32.14-.63,0.29-1,0.41s-0.59.34-.89,0.49-0.61.29-.89,0.46-0.56.37-.85,0.53l-0.44.25-0.4.31c-0.27.21-.54,0.41-0.82,0.61s-0.52.46-.78,0.69a10,10,0,0,0-.79.71c-0.49.54-1,1-1.53,1.6-1,1.1-2,2.33-3.11,3.54l-1.66,1.82c-0.59.59-1.18,1.19-1.83,1.74L295,76.8c0.17-.84.41-1.62,0.64-2.42s0.49-1.57.78-2.35,0.58-1.55.94-2.32c0.18-.38.34-0.77,0.53-1.15l0.62-1.13a19.37,19.37,0,0,1,3.22-4.27c0.34-.31.69-0.63,1-0.93l0.53-.45,0.59-.4c0.39-.27.79-0.51,1.19-0.76a10.57,10.57,0,0,1,1.28-.6c0.43-.18.87-0.36,1.31-0.5s0.9-.21,1.35-0.31a11.3,11.3,0,0,1,1.35-.23l1.35-.06c0.45,0,.89,0,1.33,0L314.36,59a25.66,25.66,0,0,1,2.55.31c0.83,0.16,1.66.25,2.48,0.38s1.63,0.29,2.44.39,1.62,0.23,2.43.34,1.62,0.21,2.45.28l1.39,0.12-0.65,1.43c-0.42.93-.82,1.88-1.22,2.84s-0.91,1.87-1.36,2.82a10.91,10.91,0,0,1-.77,1.38c-0.28.45-.55,0.9-0.85,1.34a20.41,20.41,0,0,1-1.91,2.54c-0.35.4-.69,0.81-1,1.2l-1.14,1.11L318,76.61c-0.39.36-.81,0.69-1.21,1a25.91,25.91,0,0,1-2.53,1.95,29.41,29.41,0,0,1-5.58,3.11,26.31,26.31,0,0,1-3,1.1,27.48,27.48,0,0,1-3.1.8,25.66,25.66,0,0,1-3.17.47,20.82,20.82,0,0,1-3.2.12l-1.59-.05c-0.53,0-1.07-.14-1.59-0.22a15.83,15.83,0,0,1-1.58-.28l-1.57-.44a7.47,7.47,0,0,1-1.45-.56c-0.47-.21-0.93-0.43-1.39-0.67Z"/><path class="a" d="M289.84,97.09c0.41,0.78.77,1.6,1.15,2.35a11.36,11.36,0,0,0,1.31,2.09,9.15,9.15,0,0,0,3.87,2.7,21.38,21.38,0,0,0,4.8,1.17,44.3,44.3,0,0,0,5,.4h0.51l0.49,0.45q3.75,3.44,7.46,6.93l7.43,7-4.2,1.93-1.9-16-0.34-2.88,3.1-.38,1.53-.21,1.57-.27c1-.2,2.06-0.42,3-0.69,0.49-.13,1-0.28,1.44-0.43,0.24-.07.45-0.16,0.68-0.24l0.08,0,0,0h0l-0.1,0h0l0.19-.08,0.39-.16c0.25-.11.3-0.17,0.46-0.24l0.5-.31a9.24,9.24,0,0,0,1-.74,13.14,13.14,0,0,0,3-4.3,21.09,21.09,0,0,0,1-2.67c0.14-.46.27-0.93,0.38-1.4s0.22-1,.26-1.29l0.32-2.37,2.48-.65a32.21,32.21,0,0,0,6.18-2.23A20.1,20.1,0,0,0,348.12,81a18.62,18.62,0,0,0,3.59-4.8,26.17,26.17,0,0,0,2.16-5.93,44.07,44.07,0,0,0,1-6.6l0.07-.85,0-.21V62.53l0-.46c0-.59.06-1.27,0-1.79l0-1.51-0.13-1.62a38.27,38.27,0,0,0-1.24-6.44,45.66,45.66,0,0,0-2.34-6.22,48.59,48.59,0,0,0-17.64-20,53.14,53.14,0,0,0-5.95-3.3,52.42,52.42,0,0,0-6.36-2.44,48.73,48.73,0,0,0-6.66-1.56,56,56,0,0,0-6.83-.68l-1.84-.1-0.95-1.31a16.87,16.87,0,0,0-5.59-4.88A24.28,24.28,0,0,0,292,7.71a39.2,39.2,0,0,0-8.32-.45,58.2,58.2,0,0,0-8.54,1,79.79,79.79,0,0,0-16.69,5.23,68.44,68.44,0,0,0-7.82,4c-1.25.75-2.47,1.55-3.63,2.4-0.58.42-1.15,0.87-1.7,1.32s-1.12,1-1.66,1.44a45,45,0,0,0-5.85,6.49,36.56,36.56,0,0,0-4.36,7.54A31.72,31.72,0,0,0,231.09,45a26.16,26.16,0,0,0,.3,8.59,25.62,25.62,0,0,0,3.12,8,33,33,0,0,0,5.37,6.72,44.61,44.61,0,0,0,6.87,5.29,59.11,59.11,0,0,0,7.72,4.08l1.18,0.53,0.08,1.49a8.8,8.8,0,0,0,2,5,13,13,0,0,0,4.42,3.52,14.31,14.31,0,0,0,5.45,1.5,11.36,11.36,0,0,0,5.23-.88,4.32,4.32,0,0,0,.58-0.28l0.73-.44c0.41-.24.81-0.53,1.26-0.79,0.85-.54,1.67-1.08,2.47-1.63a24.08,24.08,0,0,0,2.23-1.79,18,18,0,0,0,1.93-2,22.46,22.46,0,0,0,1.59-2.35,14.36,14.36,0,0,0,.64-1.32c0.21-.45.41-0.92,0.59-1.4a26.82,26.82,0,0,0,.87-3.08c0.25-1.08.43-2.22,0.63-3.4l0.79-.15a15,15,0,0,1,1.43,3.43,15.54,15.54,0,0,1,.57,3.79,18.76,18.76,0,0,1,0,2,19.67,19.67,0,0,1-.34,2,14.7,14.7,0,0,1-1.4,3.84A18.17,18.17,0,0,1,285,88.58a19.81,19.81,0,0,1-2.91,2.79,18.94,18.94,0,0,1-3.3,2.13c-0.56.3-1.17,0.54-1.8,0.81-0.3.11-.55,0.19-0.83,0.29l-1,.39a17.44,17.44,0,0,1-8.3.84,19.47,19.47,0,0,1-7.57-2.69,18.38,18.38,0,0,1-5.8-5.53,13.55,13.55,0,0,1-2.32-7.9l1.25,2A58.12,58.12,0,0,1,237.6,70.54a36,36,0,0,1-5.51-7.6,30.91,30.91,0,0,1-3.14-8.86,32.5,32.5,0,0,1,2.16-18.38,46,46,0,0,1,4.46-8.15,51,51,0,0,1,6-7.12c0.55-.55,1.12-1.11,1.67-1.61s1.18-1.05,1.79-1.55c1.21-1,2.47-1.91,3.75-2.77a79.06,79.06,0,0,1,8-4.72A85.39,85.39,0,0,1,274,3.1a51.56,51.56,0,0,1,18.95-1.73,28.84,28.84,0,0,1,9.7,2.79,23.9,23.9,0,0,1,8.13,6.6L308,9.35a60,60,0,0,1,7.81.54,56.2,56.2,0,0,1,7.69,1.57,60.09,60.09,0,0,1,7.43,2.61,59.13,59.13,0,0,1,7,3.63,56.43,56.43,0,0,1,6.44,4.58,55,55,0,0,1,5.76,5.43,53.6,53.6,0,0,1,5,6.21,51.75,51.75,0,0,1,4,6.92,48.53,48.53,0,0,1,2.86,7.52,46.84,46.84,0,0,1,1.51,8c0.05,0.68.11,1.35,0.15,2l0,2.16c0,0.7-.05,1.25-0.07,1.88l0,0.46,0,0.37,0,0.24-0.09,1A50.8,50.8,0,0,1,362,72.36a34.35,34.35,0,0,1-3.08,7.76,26.11,26.11,0,0,1-5.38,6.76,27.94,27.94,0,0,1-7.19,4.56,39.72,39.72,0,0,1-7.73,2.46l2.8-3c-0.15.81-.3,1.35-0.48,2s-0.37,1.23-.58,1.83a28.23,28.23,0,0,1-1.54,3.55,19.7,19.7,0,0,1-5.09,6.33,15.9,15.9,0,0,1-1.78,1.22c-0.32.18-.63,0.35-1,0.52s-0.79.37-1.07,0.47l-0.4.14-0.2.07-0.16.06-0.06,0-0.12,0c-0.31.09-.62,0.2-0.92,0.27-0.61.17-1.22,0.31-1.82,0.44-1.2.26-2.38,0.45-3.56,0.61l-1.77.21c-0.6.06-1.16,0.11-1.82,0.15l2.76-3.25,0.79,16.1,0.34,6.93-4.54-5-6.83-7.54q-3.42-3.77-6.8-7.57l1,0.47a47.14,47.14,0,0,1-5.31-.95,22.32,22.32,0,0,1-5.17-1.88,10.59,10.59,0,0,1-4.19-3.74,12.67,12.67,0,0,1-1.16-2.5c-0.3-.85-0.54-1.67-0.84-2.47Z"/><path class="a" d="M289.8,97.11c0.41,0.78.77,1.6,1.15,2.35a11.44,11.44,0,0,0,1.32,2.1,9.25,9.25,0,0,0,3.89,2.74,21.59,21.59,0,0,0,4.81,1.19,44.34,44.34,0,0,0,5.05.42l0.48,0,0.45,0.42q3.74,3.46,7.41,7l7.38,7L318,122.06l-1.76-16-0.28-2.54,2.68-.29,1.55-.2,1.58-.26c1-.19,2.09-0.41,3.09-0.66,0.5-.13,1-0.27,1.47-0.42,0.24-.07.47-0.16,0.7-0.24l0.09,0,0,0h0l-0.09,0h0l0.19-.08,0.39-.16c0.25-.11.33-0.17,0.51-0.25l0.54-.32a9.72,9.72,0,0,0,1-.77,13.63,13.63,0,0,0,3.23-4.44,21.63,21.63,0,0,0,1.1-2.74c0.15-.47.29-1,0.41-1.43s0.24-1,.29-1.35l0.32-2,2-.49a33.06,33.06,0,0,0,6.34-2.2,21,21,0,0,0,5.3-3.54,19.58,19.58,0,0,0,3.84-5,27.65,27.65,0,0,0,2.38-6.11,45.54,45.54,0,0,0,1.24-6.75l0.09-.87,0-.22V62.67a0.48,0.48,0,0,1,0,.06V62.59l0-.46c0-.6.09-1.25,0.09-1.8V58.71L356.3,57a39.73,39.73,0,0,0-1.07-6.76A47.61,47.61,0,0,0,353,43.69a45.19,45.19,0,0,0-3.24-6.21,47.34,47.34,0,0,0-4.14-5.72,46.26,46.26,0,0,0-4.95-5.1A50.84,50.84,0,0,0,335,22.3a51.87,51.87,0,0,0-6.24-3.52,53,53,0,0,0-6.69-2.6,49.34,49.34,0,0,0-7-1.6,53.76,53.76,0,0,0-7.18-.62l-0.52,0-0.31-.4a19.31,19.31,0,0,0-6.53-5.4,24.37,24.37,0,0,0-8.24-2.44,47.36,47.36,0,0,0-17.4,1.46,72.63,72.63,0,0,0-8.4,2.7,82.15,82.15,0,0,0-8,3.61,71.11,71.11,0,0,0-7.53,4.45c-1.19.81-2.35,1.67-3.44,2.57-0.54.45-1.08,0.92-1.57,1.38s-1.05,1-1.55,1.51A46.24,46.24,0,0,0,239,30,40.43,40.43,0,0,0,235,37.36a27.49,27.49,0,0,0-1.66,15.87A27.42,27.42,0,0,0,241.23,67a51.16,51.16,0,0,0,13.87,9.43l1.46,0.7L257,78.76a15.32,15.32,0,0,0,2.31,4.9,11.63,11.63,0,0,0,3.84,3.4,13.47,13.47,0,0,0,5,1.58,12,12,0,0,0,5-.46l0.09,0,0.2-.07,0.4-.15c0.29-.1.46-0.18,0.68-0.26,0.4-.17.88-0.37,1.31-0.56a24.12,24.12,0,0,0,2.5-1.34,14.84,14.84,0,0,0,2.23-1.68,14.63,14.63,0,0,0,1.92-2,16.91,16.91,0,0,0,1.55-2.44,20.38,20.38,0,0,0,1.14-2.82,24.28,24.28,0,0,0,.73-3.13c0.18-1.09.31-2.21,0.41-3.37l0.69-.13a17.85,17.85,0,0,1,1.75,7,16,16,0,0,1-.28,3.82,15.65,15.65,0,0,1-1.18,3.77,18.19,18.19,0,0,1-2.06,3.46,21.33,21.33,0,0,1-2.77,2.92,20.84,20.84,0,0,1-3.22,2.32,17.23,17.23,0,0,1-1.75.93l-0.89.41-0.39.17-0.19.08-0.31.12a16.58,16.58,0,0,1-4.24.93,21,21,0,0,1-4.15,0,20.5,20.5,0,0,1-7.87-2.49,19.14,19.14,0,0,1-6.22-5.6,21.89,21.89,0,0,1-3.35-7.39L251.84,83a58.12,58.12,0,0,1-15.59-11.12,37.92,37.92,0,0,1-5.89-7.95A31.53,31.53,0,0,1,227,54.47a31.14,31.14,0,0,1-.19-10A36,36,0,0,1,229.51,35a41.67,41.67,0,0,1,4.88-8.32,49.56,49.56,0,0,1,6.41-7c0.59-.54,1.22-1.08,1.78-1.54s1.26-1,1.91-1.49c1.29-.94,2.6-1.8,3.94-2.6a75.44,75.44,0,0,1,8.26-4.25,86.1,86.1,0,0,1,17.53-5.62A62.72,62.72,0,0,1,283.36,3a43.86,43.86,0,0,1,9.27.38,29,29,0,0,1,8.92,2.84,21.48,21.48,0,0,1,7.19,6.08l-0.82-.42a62.53,62.53,0,0,1,7.46.61A55.79,55.79,0,0,1,322.71,14a59.67,59.67,0,0,1,7.1,2.45,60.66,60.66,0,0,1,6.71,3.42,53.92,53.92,0,0,1,6.24,4.27,55.85,55.85,0,0,1,5.63,5.09,51.38,51.38,0,0,1,4.91,5.85,49.74,49.74,0,0,1,4,6.55,46.49,46.49,0,0,1,3,7.17A45.22,45.22,0,0,1,362,56.47c0.07,0.66.15,1.31,0.19,2l0.07,2.06c0,0.68,0,1.24,0,1.87v0.78l0,0.24-0.07,1a48.87,48.87,0,0,1-1.17,7.74,32.64,32.64,0,0,1-2.86,7.58,25.13,25.13,0,0,1-5.13,6.59,27.18,27.18,0,0,1-6.94,4.5,39.13,39.13,0,0,1-7.56,2.5l2.29-2.47c-0.14.77-.28,1.31-0.44,1.94s-0.35,1.2-.55,1.8A27.56,27.56,0,0,1,338.26,98a19.07,19.07,0,0,1-4.9,6.19,15.36,15.36,0,0,1-1.71,1.19l-0.93.51c-0.33.15-.75,0.35-1,0.45l-0.39.15-0.2.07-0.15.05-0.06,0-0.11,0c-0.3.09-.61,0.2-0.91,0.27-0.6.17-1.2,0.32-1.79,0.45-1.18.26-2.35,0.47-3.52,0.63l-1.76.22c-0.59.07-1.15,0.12-1.8,0.17l2.4-2.83,0.92,16.09,0.36,6.22-4.12-4.49-6.88-7.49q-3.44-3.74-6.84-7.53l0.93,0.43a47,47,0,0,1-5.3-.92,22.08,22.08,0,0,1-5.15-1.85,10.48,10.48,0,0,1-4.18-3.7A12.63,12.63,0,0,1,290,99.86c-0.3-.84-0.54-1.66-0.84-2.47Z"/><path class="a" d="M287.16,82.38c0.52-.07,1-0.13,1.54-0.16a11.35,11.35,0,0,0,1.5-.16c1-.16,1.84-0.27,2.78-0.49l1.38-.26c0.46-.12.91-0.24,1.37-0.35,0.91-.19,1.8-0.48,2.69-0.74s1.76-.57,2.64-0.85,1.73-.66,2.61-0.95,1.73-.67,2.61-1,1.76-.64,2.67-0.93,1.79-.66,2.7-1a19.8,19.8,0,0,0,2.62-1.26c0.42-.24.86-0.47,1.26-0.74s0.78-.57,1.16-0.87,0.76-.61,1.13-0.92,0.68-.69,1-1a15.91,15.91,0,0,0,1.84-2.24c0.28-.39.54-0.81,0.8-1.21A8,8,0,0,0,322.2,66c0.41-.88.88-1.71,1.22-2.61s0.66-1.79,1-2.65L326,64c-0.78,0-1.57-.07-2.34-0.14s-1.54-.17-2.3-0.17l-2.28-.09c-0.75,0-1.49.06-2.22,0.07a17.58,17.58,0,0,0-2.16.19l-1.06.11c-0.35,0-.68.14-1,0.2s-0.67.12-1,.18a10,10,0,0,0-1,.27l-1,.25c-0.31.1-.6,0.25-0.91,0.36a9.61,9.61,0,0,0-.91.36c-0.28.16-.57,0.32-0.86,0.46l-0.44.22-0.41.28c-0.27.19-.56,0.37-0.85,0.56s-0.54.43-.81,0.65a9.81,9.81,0,0,0-.82.68c-0.51.52-1.08,1-1.59,1.55s-1.07,1.1-1.58,1.71-1.07,1.19-1.6,1.8a49,49,0,0,1-3.43,3.59L295,76.8c0.2-.82.45-1.6,0.69-2.39s0.49-1.57.79-2.35,0.56-1.56.92-2.33,0.7-1.54,1.11-2.31a22.77,22.77,0,0,1,1.38-2.26A23.34,23.34,0,0,1,301.6,63c0.33-.33.67-0.66,1-1l0.52-.48,0.58-.43c0.38-.29.78-0.56,1.18-0.83s0.84-.46,1.26-0.7,0.86-.45,1.3-0.63l1.34-.47a14.8,14.8,0,0,1,2.73-.65c0.46-.07.92-0.16,1.37-0.2l1.35-.06,1.35,0c0.45,0,.88.05,1.32,0.07,0.87,0.07,1.75.12,2.61,0.24l2.53,0.42a21.08,21.08,0,0,1,2.47.55c0.82,0.21,1.62.46,2.42,0.7l3.28,1-1.69,2.34c-0.63.86-1.28,1.7-1.92,2.53s-1.42,1.55-2.11,2.33-1.47,1.45-2.18,2.19-1.46,1.43-2.19,2.13l-1.08,1.07c-0.38.34-.76,0.67-1.12,1s-0.73.71-1.09,1.08l-1.12,1c-0.73.73-1.47,1.47-2.25,2.15a30.25,30.25,0,0,1-2.41,2,20.68,20.68,0,0,1-2.64,1.75,18.76,18.76,0,0,1-2.87,1.33,24.71,24.71,0,0,1-3,.93,23.62,23.62,0,0,1-3.13.58,20.41,20.41,0,0,1-3.18.2c-0.53,0-1.06,0-1.59,0S293.56,85.05,293,85a13,13,0,0,1-1.58-.28l-1.57-.45a7,7,0,0,1-1.45-.58c-0.46-.21-0.92-0.46-1.38-0.71Z"/><path class="a" d="M274.55,91.24c0.7-.38,1.47-0.69,2.13-1.08A19.46,19.46,0,0,0,278.5,89c0.29-.22.59-0.41,0.86-0.65l0.77-.72a5.86,5.86,0,0,0,.72-0.75c0.22-.26.46-0.49,0.65-0.77a15.33,15.33,0,0,0,1.89-3.43,16.38,16.38,0,0,0,.9-3.76A21.69,21.69,0,0,0,284.4,75a30.93,30.93,0,0,0-.56-4c-0.15-.66-0.28-1.33-0.49-2s-0.34-1.32-.58-2-0.42-1.31-.68-2-0.49-1.3-.77-1.95-0.52-1.3-.85-1.94-0.57-1.3-.92-1.92-0.63-1.28-1-1.9l-1.08-1.88-1.17-1.84c-0.39-.61-0.84-1.19-1.26-1.79s-0.88-1.17-1.33-1.75-0.9-1.17-1.38-1.73l-1.41-1.73-1.46-1.71c-0.47-.59-1-1.12-1.51-1.69s-1-1.14-1.55-1.67l-1.62-1.62c-0.56-.52-1.13-1-1.71-1.54a42.37,42.37,0,0,0-3.64-2.82l2-1.12q-0.11,1.79-.14,3.59a30.39,30.39,0,0,0,.15,3.59c0.06,0.6.1,1.19,0.18,1.79s0.2,1.18.32,1.76a27.88,27.88,0,0,0,.87,3.47c0.38,1.13.72,2.26,1.18,3.35s0.89,2.16,1.38,3.21,1,2.06,1.48,3.07,1,2,1.53,3,1,1.95,1.61,2.85l0.88,1.37a10.9,10.9,0,0,0,.93,1.33c0.32,0.43.66,0.86,1,1.31s0.71,0.82,1.06,1.23,0.7,0.84,1.08,1.24,0.8,0.75,1.19,1.14a31.57,31.57,0,0,0,2.52,2.22A12,12,0,0,0,280,75c0.47,0.33.93,0.68,1.4,1,1,0.67,2,1.25,3,1.93s2.1,1.18,3.17,1.87l-0.19.78c-1.26,0-2.54-.07-3.82-0.2a38.39,38.39,0,0,1-3.78-.79c-0.61-.2-1.24-0.39-1.86-0.61a12.36,12.36,0,0,1-1.83-.73,24.15,24.15,0,0,1-3.5-1.88c-0.57-.36-1.12-0.74-1.68-1.11s-1-.84-1.56-1.28-1-.86-1.51-1.35-0.91-1-1.37-1.49a26.16,26.16,0,0,1-2.46-3.2A12.07,12.07,0,0,1,263,66.21c-0.32-.59-0.65-1.17-0.94-1.77a34.26,34.26,0,0,1-1.43-3.7c-0.38-1.26-.62-2.55-0.89-3.82s-0.29-2.58-.44-3.85-0.09-2.56-.16-3.82,0-2.52,0-3.76,0-2.48,0-3.72-0.11-2.47-.09-3.7-0.05-2.46-.12-3.7L258.67,32l2.16,1.23c1.38,0.79,2.84,1.46,4.23,2.25l2.13,1.14,2.1,1.23c1.41,0.82,2.77,1.73,4.11,2.66l2,1.48c0.64,0.52,1.26,1.06,1.88,1.61s1.21,1.13,1.79,1.71,1.17,1.17,1.71,1.8,1.12,1.23,1.65,1.88L284,51c1,1.36,2,2.73,2.85,4.19a37.34,37.34,0,0,1,2.37,4.54,24.28,24.28,0,0,1,1,2.41c0.14,0.41.3,0.81,0.43,1.22l0.35,1.26a29.27,29.27,0,0,1,1,5.17,29.75,29.75,0,0,1,.07,5.35,24.17,24.17,0,0,1-1.12,5.35,18.79,18.79,0,0,1-2.47,4.95,15.7,15.7,0,0,1-1.8,2.12,14.38,14.38,0,0,1-2.09,1.77,14.81,14.81,0,0,1-4.8,2.21,14.07,14.07,0,0,1-2.54.46,6.69,6.69,0,0,1-1.22,0l-1.21,0Z"/></svg>