<?xml version="1.0" encoding="utf-8"?>
<!-- Generator: Adobe Illustrator 19.2.0, SVG Export Plug-In . SVG Version: 6.00 Build 0)  -->
<svg version="1.1" id="Layer_1" xmlns="http://www.w3.org/2000/svg" xmlns:xlink="http://www.w3.org/1999/xlink" x="0px" y="0px"
	 viewBox="0 0 416.4 132" style="enable-background:new 0 0 416.4 132;" xml:space="preserve">
<g>
	<g>
		<path style="fill:#FFFFFF;" d="M200.4,70.2V38.1l-11.6,23.3h-6.6l-11.6-23.3v32.1h-12.4V16.6h13.4l13.9,28l14-28h13.4v53.6H200.4z
			"/>
		<path style="fill:#FFFFFF;" d="M230.6,70.2V16.6H243v53.6H230.6z"/>
		<path style="fill:#FFFFFF;" d="M273.1,39.5v30.6h-12.4V16.6h9.7l25,31.5V16.6h12.4v53.6h-10L273.1,39.5z"/>
		<path style="fill:#FFFFFF;" d="M366.4,27.5h-16.3v42.7h-12.4V27.5h-16.4V16.6h45V27.5z"/>
	</g>
	<g>
		<g>
			<path style="fill:#FFFFFF;" d="M180.8,99.9h-4.5v-8.3c0-1-0.2-1.7-0.5-2.1c-0.4-0.4-0.8-0.7-1.4-0.7c-0.3,0-0.6,0.1-0.9,0.2
				c-0.3,0.1-0.6,0.3-0.9,0.5c-0.3,0.2-0.5,0.5-0.7,0.8s-0.4,0.7-0.5,1v8.4h-4.5v-8.3c0-1-0.2-1.7-0.5-2.1c-0.4-0.4-0.8-0.7-1.4-0.7
				c-0.6,0-1.2,0.2-1.7,0.7c-0.6,0.5-1,1.1-1.2,1.9v8.4h-4.5V85.2h4v2.5c0.5-0.9,1.3-1.6,2.2-2c0.9-0.5,2-0.7,3.2-0.7
				c0.6,0,1.2,0.1,1.6,0.2s0.9,0.4,1.2,0.6c0.3,0.3,0.6,0.6,0.8,0.9c0.2,0.3,0.4,0.7,0.4,1.1c0.6-0.9,1.3-1.6,2.2-2.1
				c0.9-0.5,2-0.7,3.1-0.7c0.9,0,1.7,0.2,2.3,0.5c0.6,0.3,1,0.8,1.3,1.3c0.3,0.5,0.5,1.2,0.6,1.8s0.2,1.3,0.2,1.9V99.9z"/>
			<path style="fill:#FFFFFF;" d="M191.5,100.2c-1.2,0-2.3-0.2-3.3-0.6c-1-0.4-1.8-0.9-2.5-1.6c-0.7-0.7-1.2-1.5-1.6-2.4
				c-0.4-0.9-0.5-1.9-0.5-2.8c0-1.1,0.2-2.1,0.5-3c0.4-0.9,0.9-1.8,1.5-2.5c0.7-0.7,1.5-1.3,2.5-1.7s2.1-0.6,3.3-0.6
				c1.2,0,2.4,0.2,3.3,0.6s1.8,1,2.5,1.7c0.7,0.7,1.2,1.5,1.5,2.4c0.3,0.9,0.5,1.9,0.5,2.9c0,0.3,0,0.5,0,0.8c0,0.3,0,0.5-0.1,0.7
				h-10.9c0.1,1,0.4,1.7,1.1,2.3c0.6,0.5,1.4,0.8,2.2,0.8c0.7,0,1.3-0.2,1.9-0.5c0.6-0.3,1-0.7,1.2-1.3l3.8,1.1
				c-0.6,1.2-1.5,2.1-2.7,2.8C194.6,99.8,193.1,100.2,191.5,100.2z M194.6,91.2c-0.1-0.9-0.4-1.7-1-2.2s-1.3-0.8-2.2-0.8
				c-0.9,0-1.6,0.3-2.2,0.8c-0.6,0.6-0.9,1.3-1,2.2H194.6z"/>
			<path style="fill:#FFFFFF;" d="M225.2,99.9h-4.5v-8.3c0-1-0.2-1.7-0.5-2.1c-0.4-0.4-0.8-0.7-1.4-0.7c-0.3,0-0.6,0.1-0.9,0.2
				c-0.3,0.1-0.6,0.3-0.9,0.5c-0.3,0.2-0.5,0.5-0.7,0.8s-0.4,0.7-0.5,1v8.4h-4.5v-8.3c0-1-0.2-1.7-0.5-2.1c-0.4-0.4-0.8-0.7-1.4-0.7
				c-0.6,0-1.2,0.2-1.7,0.7c-0.6,0.5-1,1.1-1.2,1.9v8.4H202V85.2h4v2.5c0.5-0.9,1.3-1.6,2.2-2c0.9-0.5,2-0.7,3.2-0.7
				c0.6,0,1.2,0.1,1.6,0.2s0.9,0.4,1.2,0.6c0.3,0.3,0.6,0.6,0.8,0.9c0.2,0.3,0.4,0.7,0.4,1.1c0.6-0.9,1.3-1.6,2.2-2.1
				c0.9-0.5,2-0.7,3.1-0.7c0.9,0,1.7,0.2,2.3,0.5c0.6,0.3,1,0.8,1.3,1.3c0.3,0.5,0.5,1.2,0.6,1.8s0.2,1.3,0.2,1.9V99.9z"/>
			<path style="fill:#FFFFFF;" d="M235.9,100.2c-1.2,0-2.4-0.2-3.3-0.6c-1-0.4-1.8-1-2.5-1.7c-0.7-0.7-1.2-1.5-1.5-2.4
				c-0.3-0.9-0.5-1.9-0.5-2.9s0.2-2,0.5-2.9c0.3-0.9,0.9-1.7,1.5-2.4c0.7-0.7,1.5-1.3,2.5-1.7c1-0.4,2.1-0.6,3.3-0.6
				c1.2,0,2.4,0.2,3.3,0.6s1.8,1,2.5,1.7c0.7,0.7,1.2,1.5,1.5,2.4c0.4,0.9,0.5,1.9,0.5,2.9s-0.2,2-0.5,2.9c-0.3,0.9-0.9,1.7-1.5,2.4
				c-0.7,0.7-1.5,1.3-2.5,1.7C238.2,100,237.1,100.2,235.9,100.2z M232.6,92.6c0,1.2,0.3,2.1,0.9,2.8c0.6,0.7,1.4,1,2.4,1
				c0.5,0,0.9-0.1,1.3-0.3s0.7-0.4,1-0.8c0.3-0.3,0.5-0.7,0.7-1.2c0.2-0.5,0.3-1,0.3-1.6c0-1.2-0.3-2.1-0.9-2.8
				c-0.6-0.7-1.4-1-2.3-1c-0.5,0-0.9,0.1-1.3,0.3c-0.4,0.2-0.7,0.4-1,0.8c-0.3,0.3-0.5,0.7-0.7,1.2S232.6,92,232.6,92.6z"/>
			<path style="fill:#FFFFFF;" d="M256,89.1c-1.1,0-2.1,0.2-2.9,0.5c-0.9,0.3-1.5,0.8-1.9,1.5v8.8h-4.5V85.2h4.1v3
				c0.5-1,1.2-1.8,1.9-2.3s1.6-0.8,2.5-0.9c0.2,0,0.4,0,0.4,0c0.1,0,0.2,0,0.3,0V89.1z"/>
			<path style="fill:#FFFFFF;" d="M258.7,102.1c0.4,0.1,0.7,0.2,1,0.3s0.6,0.1,0.9,0.1c0.5,0,1-0.2,1.3-0.6c0.3-0.4,0.6-1,0.8-2
				l-5.6-14.7h4.6l3.4,10.9l2.9-10.9h4.2l-5.6,17.1c-0.4,1.2-1.1,2.2-2.1,3c-1,0.8-2.2,1.1-3.6,1.1c-0.4,0-0.8,0-1.1-0.1
				c-0.4-0.1-0.8-0.2-1.2-0.3V102.1z"/>
			<path style="fill:#FFFFFF;" d="M280.3,92.6c0-1,0.2-2,0.5-2.9c0.4-0.9,0.9-1.7,1.5-2.4c0.7-0.7,1.5-1.3,2.5-1.7
				c1-0.4,2.1-0.6,3.3-0.6c1.7,0,3.1,0.4,4.3,1.1c1.2,0.7,2,1.7,2.6,2.8l-4.4,1.3c-0.6-0.9-1.4-1.4-2.5-1.4c-0.9,0-1.7,0.3-2.3,1
				c-0.6,0.7-0.9,1.6-0.9,2.8c0,0.6,0.1,1.1,0.3,1.6s0.4,0.9,0.7,1.2c0.3,0.3,0.6,0.6,1,0.8c0.4,0.2,0.8,0.3,1.3,0.3
				c0.6,0,1.1-0.1,1.5-0.4s0.8-0.6,1-1l4.4,1.3c-0.5,1.1-1.4,2.1-2.6,2.8c-1.2,0.7-2.6,1.1-4.3,1.1c-1.2,0-2.3-0.2-3.3-0.6
				s-1.8-1-2.5-1.7s-1.2-1.5-1.6-2.4C280.5,94.5,280.3,93.6,280.3,92.6z"/>
			<path style="fill:#FFFFFF;" d="M297.7,79.5h4.5v15.2c0,1.1,0.5,1.7,1.4,1.7c0.2,0,0.5,0,0.7-0.1c0.3-0.1,0.5-0.2,0.7-0.3l0.6,3.4
				c-0.6,0.3-1.2,0.5-1.9,0.6c-0.7,0.1-1.4,0.2-2,0.2c-1.3,0-2.3-0.3-3-1c-0.7-0.7-1-1.6-1-2.9V79.5z"/>
			<path style="fill:#FFFFFF;" d="M307.9,83.5v-4.1h4.5v4.1H307.9z M307.9,99.9V85.2h4.5v14.7H307.9z"/>
			<path style="fill:#FFFFFF;" d="M330.3,99.9h-4.5v-8.3c0-1-0.2-1.7-0.5-2.1c-0.4-0.4-0.8-0.7-1.4-0.7c-0.3,0-0.6,0.1-1,0.2
				s-0.6,0.3-0.9,0.5c-0.3,0.2-0.6,0.5-0.8,0.8s-0.4,0.7-0.5,1v8.4h-4.5V85.2h4v2.5c0.5-0.9,1.3-1.6,2.3-2s2.1-0.7,3.4-0.7
				c1,0,1.7,0.2,2.3,0.5c0.6,0.3,1,0.8,1.3,1.3s0.5,1.2,0.6,1.8c0.1,0.7,0.2,1.3,0.2,1.9V99.9z"/>
			<path style="fill:#FFFFFF;" d="M333.9,83.5v-4.1h4.5v4.1H333.9z M333.9,99.9V85.2h4.5v14.7H333.9z"/>
			<path style="fill:#FFFFFF;" d="M341.3,92.6c0-1,0.2-2,0.5-2.9c0.4-0.9,0.9-1.7,1.5-2.4c0.7-0.7,1.5-1.3,2.5-1.7
				c1-0.4,2.1-0.6,3.3-0.6c1.7,0,3.1,0.4,4.3,1.1c1.2,0.7,2,1.7,2.6,2.8l-4.4,1.3c-0.6-0.9-1.4-1.4-2.5-1.4c-0.9,0-1.7,0.3-2.3,1
				c-0.6,0.7-0.9,1.6-0.9,2.8c0,0.6,0.1,1.1,0.3,1.6s0.4,0.9,0.7,1.2c0.3,0.3,0.6,0.6,1,0.8c0.4,0.2,0.8,0.3,1.3,0.3
				c0.6,0,1.1-0.1,1.5-0.4s0.8-0.6,1-1l4.4,1.3c-0.5,1.1-1.4,2.1-2.6,2.8c-1.2,0.7-2.6,1.1-4.3,1.1c-1.2,0-2.3-0.2-3.3-0.6
				s-1.8-1-2.5-1.7s-1.2-1.5-1.6-2.4C341.5,94.5,341.3,93.6,341.3,92.6z"/>
			<path style="fill:#FFFFFF;" d="M364.6,100.2c-1.2,0-2.5-0.2-3.7-0.6c-1.2-0.4-2.2-1-3.1-1.7l1.6-2.7c0.9,0.6,1.8,1.1,2.6,1.4
				c0.8,0.3,1.7,0.5,2.4,0.5c0.6,0,1-0.1,1.3-0.3c0.3-0.2,0.5-0.5,0.5-0.9s-0.2-0.7-0.6-0.9c-0.4-0.2-1.1-0.5-2.1-0.7
				c-1-0.3-1.8-0.5-2.5-0.8c-0.7-0.3-1.2-0.6-1.7-0.9c-0.4-0.3-0.7-0.7-0.9-1.1s-0.3-0.9-0.3-1.5c0-0.7,0.1-1.4,0.4-2
				s0.7-1.1,1.2-1.6c0.5-0.4,1.1-0.8,1.9-1s1.5-0.4,2.3-0.4c1.1,0,2.1,0.1,3.1,0.4c1,0.3,1.9,0.8,2.8,1.6l-1.7,2.7
				c-0.8-0.6-1.6-1-2.2-1.3c-0.7-0.3-1.3-0.4-1.9-0.4c-0.5,0-0.9,0.1-1.2,0.3c-0.3,0.2-0.5,0.5-0.5,0.9c0,0.4,0.2,0.7,0.5,0.9
				c0.4,0.2,1,0.4,2,0.7c1,0.3,1.9,0.6,2.6,0.8c0.7,0.3,1.3,0.6,1.7,0.9c0.4,0.3,0.8,0.7,1,1.2c0.2,0.4,0.3,1,0.3,1.6
				c0,1.5-0.5,2.6-1.6,3.5C367.9,99.8,366.5,100.2,364.6,100.2z"/>
		</g>
	</g>
	<g>
		<path style="fill:#FFFFFF;" d="M165.6,117.5c-0.2,0.3-0.4,0.5-0.5,0.5s-0.2,0-0.2,0.1s-0.1,0.2-0.3,0.2c-0.2,0-0.4,0-0.6-0.1
			c-0.2-0.1-0.3-0.2-0.3-0.3c0-0.1,0.1-0.4,0.2-1c0.1-0.6,0.1-0.9,0-1.1c-0.1-0.2-0.3-0.2-0.6,0c-0.6,0.4-1.1,0.9-1.4,1.5
			s-0.6,1.4-0.8,2.3c-0.2,0.9-0.3,1.5-0.3,1.7c0,0.3,0.1,0.5,0.2,0.6c0.5,0.1,1,0.1,1.3-0.1c0.4-0.2,0.9-0.6,1.5-1.1
			c0,0,0.1-0.1,0.2-0.3c0.1-0.2,0.2-0.3,0.3-0.3c0.1-0.2,0.3-0.3,0.6-0.3h0.5c0.3,0.1,0.6,0.3,0.7,0.6c0.1,0.2,0.1,0.3,0,0.3
			l-0.1,0.1c0.1,0.1-0.2,0.6-0.9,1.3s-1.1,1.1-1.3,1.1c-0.2,0-0.3,0.1-0.3,0.2c0,0.1-0.3,0.2-0.8,0.5s-0.9,0.4-1.3,0.5
			c-0.8,0.1-1.5,0-2.1-0.5c-0.7-0.5-1-1.1-1-1.9c-0.1-0.8,0.1-1.8,0.4-3.1s0.8-2.2,1.4-3c0.9-1.1,1.5-1.7,2-1.9
			c0.5-0.2,1-0.3,1.5-0.3c0.9,0.2,1.4,0.5,1.4,0.9l0.1,0.1c0.2,0,0.3,0.3,0.5,0.8c0.2,0.6,0.2,1,0.1,1.2
			C165.9,116.8,165.8,117.1,165.6,117.5z"/>
		<path style="fill:#FFFFFF;" d="M171.6,115.3c0.8-0.8,1.6-1.2,2.3-1.4c1-0.2,1.7-0.2,2.1,0.3c0.7,0.3,1,0.9,1.1,1.9
			c0.1,1.5-0.3,3-1.4,4.6c-0.6,1-1.5,1.8-2.6,2.5c-0.4,0.3-1.2,0.5-2.3,0.6c-0.3,0-0.6-0.2-1-0.5c-0.8-0.8-1.1-1.6-1-2.2l0.1-0.6
			c-0.1-0.1-0.1-0.2-0.1-0.2c0-0.1,0.1-0.1,0.1-0.1c0.1,0,0.1-0.1,0.1-0.3c0-0.2,0-0.5,0.2-1c0.2-0.5,0.3-0.9,0.6-1.3
			C170.3,116.6,170.9,115.8,171.6,115.3z M174.5,118.8c0-0.1,0.1-0.2,0.1-0.4c0.1-0.2,0.1-0.4,0.2-0.5c0.1-0.1,0.1-0.4,0.1-0.8
			c0-0.4-0.1-0.7-0.2-0.8c-0.2-0.1-0.3-0.1-0.5-0.1c-0.1,0-0.3,0.2-0.6,0.3c-1.3,1.1-2.1,2.4-2.3,3.7c-0.1,0.4,0,0.8,0.1,1
			c0.1,0.2,0.4,0.3,0.7,0.2c0.3-0.1,0.6-0.3,0.9-0.6c0.3-0.3,0.4-0.5,0.5-0.5s0.2-0.2,0.2-0.2c0.1-0.1,0.1-0.2,0.2-0.3
			c0.1-0.1,0.1-0.2,0.1-0.3c0-0.1,0.1-0.2,0.1-0.3C174.4,119,174.4,118.8,174.5,118.8z"/>
		<path style="fill:#FFFFFF;" d="M179.3,122.3c0-0.6,0.1-1.2,0.3-2c0.1-0.9,0.3-1.5,0.5-1.9c0.7-2.5,1.1-3.8,1.1-4.1
			c0.2-0.5,0.4-1.1,0.6-1.8c0.3-0.8,0.5-1.3,0.5-1.6c0.1-0.3,0.2-0.8,0.4-1.5c0.2-0.7,0.4-1.2,0.5-1.4c0.3-0.4,0.4-0.7,0.5-0.9
			c0-0.1,0.2-0.2,0.5-0.2c0.3-0.1,0.5,0,0.6,0.1c0.1,0,0.2,0.1,0.4,0.4s0.3,0.6,0.3,0.8c0,0.2-0.1,0.3-0.1,0.5s-0.2,0.4-0.5,1
			c-0.2,0.9-0.4,1.5-0.6,1.8s-0.2,0.6-0.3,0.7c0,0.1-0.2,0.5-0.4,1c-0.2,0.6-0.4,1.3-0.7,2.2s-0.5,1.5-0.6,1.7
			c-0.1,0.2-0.3,0.8-0.4,1.7c-0.3,0.8-0.4,1.3-0.4,1.4c-0.1,0.2-0.1,0.5-0.2,1.1c-0.1,0.5-0.2,0.9-0.3,1.1c0,0.3-0.2,0.6-0.4,0.9
			s-0.5,0.3-0.7,0.2C179.6,123,179.3,122.7,179.3,122.3z"/>
		<path style="fill:#FFFFFF;" d="M185,121.2c0.4-2.2,0.7-3.5,0.9-4c0.1-0.3,0.2-0.6,0.3-0.9c0.5-1.7,1-2.9,1.4-3.5
			c0,0,0-0.1,0.1-0.2c0-0.1,0.1-0.2,0.1-0.2c0-0.3,0.1-0.5,0.2-0.7c0.2-0.3,0.4-0.6,0.5-0.9l0.7-1.5c0.2-0.5,0.4-0.9,0.8-1l0,0
			c0.1-0.1,0.2-0.3,0.5-0.4s0.4-0.2,0.6-0.2c0.5,0,0.7,0.3,0.7,0.8c0,0.5-0.1,0.8-0.2,1h0c-0.2,0.6-0.4,1-0.4,1.1
			c-0.1,0.1-0.5,0.8-1.1,2.2c-0.8,1.6-1.2,2.6-1.4,3.2c0,0.1-0.1,0.2-0.2,0.5c-0.1,0.2-0.1,0.4-0.2,0.4l-0.4,1.7l-0.1,0.6
			c-0.3,0.8-0.4,1.3-0.5,1.4c-0.1,0.2-0.1,0.4-0.1,0.5c0,0.1-0.1,0.3-0.2,0.6c-0.3,0.9-0.4,1.6-0.4,2.2l0,0.1
			c-0.1,0.4-0.2,0.7-0.3,0.9c-0.2,0.2-0.4,0.3-0.6,0.2c-0.5-0.2-0.8-0.6-0.8-1.3S184.8,122.1,185,121.2z"/>
		<path style="fill:#FFFFFF;" d="M200.5,121.7c-0.2,0.4-0.5,0.7-0.9,1s-0.8,0.4-1.1,0.4c-0.3,0-0.6-0.2-0.9-0.5
			c-0.3-0.4-0.6-1-0.8-1.9l-0.9,0.9c-0.1,0.1-0.3,0.3-0.4,0.5c-0.4,0.3-0.6,0.6-0.6,0.6c-0.1,0.2-0.6,0.5-1.4,0.9
			c-0.2,0.1-0.5,0.1-0.8,0c-0.3-0.1-0.5-0.1-0.5-0.2s0-0.1,0-0.1c0,0,0,0-0.1,0c-0.3-0.3-0.6-0.5-0.8-0.6c-0.2-0.3-0.3-0.6-0.3-0.9
			c0-0.3,0.1-0.9,0.3-1.8c0-1,0.5-2.2,1.5-3.5c1-1.3,1.9-2.3,2.7-2.8c0.2-0.2,0.6-0.4,1-0.4c0.4,0,0.7,0.1,1,0.2s0.6,0.5,0.9,0.9
			c0.3,0.5,0.6,0.9,0.8,1.3c0,0,0,0.2,0.1,0.5c0.1,0.3,0.1,0.5,0.1,0.5c0,0,0,0.4,0,1c-0.2,0.7-0.3,1.4-0.3,2c0,0.3,0,0.6,0.1,0.7
			c0.1,0.1,0.3,0.1,0.6,0c0.3-0.1,0.6-0.1,0.8,0.2C200.6,120.9,200.6,121.3,200.5,121.7z M193.2,120.7c0,0.6,0.3,0.7,0.9,0.4
			c0.4-0.2,0.7-0.5,0.9-0.8c0.3-0.4,0.7-1,1.1-1.7c0.5-0.7,0.8-1.3,0.9-1.8c-0.2-0.6-0.4-0.9-0.6-1c-0.5,0-1.1,0.6-1.9,1.8
			c-0.4,0.6-0.8,1.2-1,1.9C193.3,120.1,193.2,120.5,193.2,120.7z"/>
		<path style="fill:#FFFFFF;" d="M204.6,114.7l0.3-0.9c0.1-0.1,0.2-0.5,0.5-1.2s0.4-1.3,0.6-1.7c0.6-1.4,1.1-2.5,1.3-3.2
			c0.1-0.2,0.2-0.4,0.4-0.6c0.3-0.5,0.5-0.8,0.6-0.9c0.1,0,0.4,0.1,0.8,0.3c0.4,0.2,0.7,0.4,0.8,0.6c0.1,0.1,0.1,0.3,0.1,0.5
			c-0.1,0.2-0.2,0.6-0.4,1.1c-0.2,0.5-0.4,0.8-0.4,0.9c-0.1,0.1-0.1,0.3-0.2,0.5c-0.1,0.2-0.3,0.6-0.5,1.2c-0.3,0.6-0.5,1.2-0.8,2
			c-0.3,0.7-0.5,1.4-0.7,2.1c-0.2,0.7-0.4,1.1-0.4,1.3l-0.1,0.6l0.7-0.8c0.6-0.6,1.2-1.1,1.8-1.3c1-0.4,1.8-0.7,2.4-0.7
			s1.3,0.5,1.8,1.4c0.2,0.4,0.3,0.9,0.2,1.4c-0.1,0.6-0.2,1.1-0.4,1.5c-0.3,0.2-0.4,0.4-0.4,0.6c0,0.2-0.4,0.8-1.3,1.8
			c-0.4,0.5-1,1-1.7,1.4s-1.2,0.8-1.5,0.9c-0.3,0.1-0.5,0.2-0.7,0.2c-0.4,0.1-0.7,0.1-0.8,0.2c-0.6-0.1-1-0.4-1.2-0.9
			c-0.2-0.2-0.3-0.4-0.3-0.6c0.2,0,0.3,0,0.4-0.1c0-0.1,0.1-0.1,0.3-0.1c0.9,0.1,2.3-0.9,4.4-2.9c0.6-0.9,1-1.4,1.1-1.7
			c0.1-0.3,0.1-0.5,0-0.7c-0.2-0.4-0.8-0.3-1.7,0.3c-1.3,0.8-2.3,1.7-3,2.7l-1,1.3c0,0.1-0.1,0.2-0.3,0.3c-0.2,0.1-0.4,0.2-0.5,0.2
			c-0.3-0.1-0.4-0.3-0.5-0.6c-0.2-0.1-0.3-0.2-0.3-0.3c0,0-0.1-0.1-0.1-0.3c-0.1-0.2,0-0.8,0.2-1.7c0.4-2.1,0.7-3.2,0.9-3.4
			C204.6,115.2,204.6,114.9,204.6,114.7z"/>
		<path style="fill:#FFFFFF;" d="M215.5,121.8c0-0.2,0-0.4,0-0.4s0-0.2-0.1-0.3c-0.1-0.1-0.1-0.2-0.1-0.2c0-0.1,0.1-0.1,0.1-0.1
			c0.1,0,0.2-0.1,0.1-0.3c-0.1-0.1,0-0.5,0.1-1s0.2-1,0.4-1.3c0.5-1.1,1-2,1.5-2.6c0.8-0.9,1.5-1.5,2-1.7c0.7-0.3,1.4-0.3,2,0.2
			c1,0.3,1.5,0.8,1.8,1.7c0.3,1.4,0.1,2.9-0.7,4.5c-0.6,1.2-1.2,2.1-2,2.8s-1.6,1.1-2.7,1.3c-0.3,0-0.6-0.1-1-0.3
			c-0.4-0.3-0.7-0.7-0.9-1.1C215.6,122.3,215.5,122,215.5,121.8z M220,120.2c0.7-1,1-2.1,1-3.3c0-0.5-0.1-0.7-0.2-0.8
			c-0.5-0.2-0.9,0-1.5,0.6c-0.4,0.4-0.7,0.9-0.9,1.3s-0.4,1.1-0.6,2s-0.2,1.5,0.2,1.7C218.5,122.1,219.2,121.6,220,120.2z"/>
		<path style="fill:#FFFFFF;" d="M233.1,113.8c0.2,0,0.4,0.1,0.7,0.3c0.3,0.2,0.4,0.3,0.5,0.5c0.4,0.8,0.5,1.4,0.2,1.8
			c-0.6,0.7-1.2,1-1.9,0.9c-0.1,0-0.2-0.1-0.3-0.4c-0.1-0.2-0.2-0.4-0.2-0.5c0-0.1-0.2,0.1-0.6,0.5s-0.6,0.7-0.7,0.8
			c-0.4,0.5-0.9,1.3-1.4,2.4c-0.5,1.1-0.9,1.9-1,2.2c-0.1,0.4-0.2,0.6-0.3,0.8s-0.2,0.3-0.3,0.3c-0.1,0-0.3,0-0.6-0.1
			c-0.3-0.1-0.5-0.2-0.5-0.2c-0.6-0.6-0.7-1.4-0.1-2.3c0.1-0.2,0.3-0.9,0.7-1.9c0.3-1,0.5-1.6,0.6-1.7c0-0.3,0-0.5-0.1-0.7
			c-0.1-0.1-0.2-0.2-0.4-0.2c-0.4,0-0.5-0.3-0.5-0.9c0.1-0.5,0.2-0.9,0.6-1.1c0.3-0.1,0.6-0.2,1-0.2s0.8,0.1,1,0.2s0.4,0.7,0.5,1.7
			c0.1-0.1,0.3-0.3,0.6-0.7c0.3-0.3,0.5-0.6,0.6-0.7C232.1,114.1,232.7,113.8,233.1,113.8z"/>
		<path style="fill:#FFFFFF;" d="M236.1,122.7c0-0.2-0.1-0.4-0.3-0.7c-0.3-0.3,0.3-1.7,1.6-4.2c0.1-0.1,0.2-0.3,0.4-0.6
			s0.3-0.4,0.3-0.5c0-0.1,0-0.1,0.1-0.2s0.1-0.1,0.2-0.1l0.2-0.4c0.1-0.2,0.4-0.5,1-1.1s1.1-1,1.4-1.3c0.4-0.2,0.7-0.3,1.1-0.3
			c0.4,0,0.7,0.1,1,0.4c0,0.1,0.1,0.2,0.3,0.3c0.3,0.3,1,0.9,2.2,2l-0.4,1.3c-0.4,1.2-0.3,2.3,0.3,3.3c0.2,0.4,0.5,0.6,0.9,0.7
			c0.4,0.1,0.6,0.3,0.6,0.6c0,0.7-0.2,1.1-0.7,1.3c-1.3,0.2-2.3-0.4-3-1.7c-0.2-0.3-0.4-0.7-0.5-1.2c-0.1,0.2-0.3,0.4-0.6,0.7
			c-2.3,2.5-4,3.3-5.2,2.5c-0.1-0.1-0.2-0.2-0.4-0.4C236.2,122.8,236.1,122.7,236.1,122.7z M242,115.7c-0.6,0-1.7,1.3-3.1,3.8
			c-0.3,0.4-0.5,1-0.7,1.7c0.3,0,0.8-0.3,1.6-1c0.2-0.1,0.4-0.3,0.6-0.6s0.5-0.4,0.6-0.5c0.1-0.1,0.3-0.2,0.5-0.4
			c0.3-0.3,0.6-0.7,0.9-1.1l0.6-1C242.6,116.1,242.3,115.7,242,115.7z"/>
		<path style="fill:#FFFFFF;" d="M255.8,112c0,0.2,0.1,0.3,0.4,0.3c0.6,0,0.9-0.1,1.1-0.1c0.2,0,0.3-0.1,0.3-0.1
			c0.2,0,0.3,0,0.5,0.1c0.1,0.2,0.2,0.5,0.1,0.9c-0.1,0.4-0.2,0.7-0.3,0.7c0,0-0.2,0.1-0.5,0.2c-0.3,0.1-1,0.2-2.3,0.3
			c-0.4,0.9-0.7,1.4-0.8,1.6s-0.1,0.3-0.1,0.3l-1.1,2.3c-0.1,0-0.1,0.1-0.1,0.2c0.1,0.2,0.1,0.4,0,0.4c-0.1,0.1-0.3,0.3-0.4,0.4
			c0.1,0.1,0,0.3-0.1,0.6c0,0.3-0.1,0.8-0.4,1.4c0,0.3,0,0.5,0.1,0.6c0,0.1,0.1,0.1,0.1,0.1c0.1,0,0.3,0,0.7,0
			c0.3-0.1,0.1,0.5-0.4,1.9c-0.3,0.4-0.5,0.8-0.8,1.1c-0.3,0.3-0.5,0.5-0.5,0.5c-1.4,0-2-0.9-1.8-2.5c0.1-0.2,0.1-0.4,0.1-0.6
			c0.1-0.5,0.2-0.8,0.3-0.9c0.1-0.1,0.1-0.2,0-0.2c0-0.2,0.2-0.8,0.5-1.6c-0.1-0.1-0.1-0.3,0.1-0.5c0.2-0.2,0.2-0.3,0.2-0.4
			c-0.1-0.1,0-0.3,0.1-0.5c0.1-0.2,0.3-0.5,0.4-0.9c0.2-0.3,0.3-0.5,0.3-0.6c0-0.1,0.1-0.4,0.4-1.1c0.3-0.7,0.5-1.1,0.6-1.3
			c0.1-0.1,0.1-0.1-0.2-0.2c-0.2,0-0.7-0.1-1.5-0.1c-0.7,0-1.3-0.1-1.6-0.3c-0.2-0.2-0.2-0.5-0.1-0.9c0.2-0.4,0.4-0.5,0.8-0.6
			l3.3-0.3l0.1-0.5c0.1-0.1,0.1-0.2,0.2-0.3s0.1-0.2,0.1-0.2s0-0.1,0.1-0.1c0-0.1,0.1-0.2,0.1-0.5c0.3-0.5,0.5-0.9,0.5-1.4
			c0.3-0.5,0.5-0.9,0.6-1.1c0.5-1.1,1.1-1.4,1.9-0.9c0.5,0.4,0.7,0.7,0.7,1c0,0.2-0.1,0.4-0.2,0.5c-0.1,0.2-0.2,0.5-0.4,0.9
			c-0.4,0.5-0.6,0.9-0.7,1.4C256,111.8,255.8,112,255.8,112z"/>
		<path style="fill:#FFFFFF;" d="M260.1,115.2c0.1-0.3,0.3-0.3,0.7-0.2c0.4,0.1,0.7,0.4,0.9,0.8c0.2,0.2,0.2,0.5,0.2,0.9
			c0,0.4-0.2,1.2-0.6,2.5c-0.3,1.3-0.5,2.2-0.5,2.8c-0.1,0.8-0.1,1.4-0.2,1.7c-0.1,0.3-0.2,0.4-0.3,0.4c-0.4,0-0.8-0.2-1.1-0.7
			c-0.3-0.4-0.5-1-0.5-1.7c0.1-0.7,0.1-1.2,0.2-1.4C259.5,117.4,259.9,115.7,260.1,115.2z M262,109.3c0.2,0,0.6,0.1,1.2,0.4
			c0.8,1.7,0.6,2.7-0.5,3.2c-0.1,0.1-0.3,0.1-0.5-0.1c-0.2,0-0.4-0.2-0.7-0.5s-0.4-0.5-0.4-0.6c0-0.4,0-0.9,0.2-1.5
			S261.7,109.3,262,109.3z"/>
		<path style="fill:#FFFFFF;" d="M265.5,114.5c0.1-0.1,0.2-0.1,0.4-0.1c0.2,0,0.4,0,0.5,0c0.4,0.1,0.7,1.2,1,3.3
			c0,0.3,0.1,0.6,0.1,0.9c0.1,0.5,0.1,0.7,0.2,0.8c0,0.1,0,0.2,0.1,0.4s0.1,0.3,0.1,0.3c0.2,0,0.8-0.8,1.8-2.3
			c0.6-0.9,1.1-1.5,1.5-1.9c0.4-0.4,0.7-0.6,0.9-0.7c0.4-0.1,0.7,0.1,0.7,0.5c0.1,0.4,0,0.8-0.4,1.3c-0.1,0.1-0.2,0.3-0.3,0.6
			c-0.1,0.2-0.2,0.5-0.3,0.7c-0.1,0.2-0.4,0.7-0.9,1.4c-0.5,0.7-0.8,1.1-0.9,1.2s-0.2,0.2-0.3,0.3c-0.4,0.4-0.7,0.7-0.9,0.9
			c-0.4,0.4-0.8,0.7-1.2,0.8s-0.7,0-0.9-0.2c-0.2-0.1-0.4-0.7-0.8-1.8c-0.3-1.1-0.5-1.9-0.6-2.6s-0.3-1.3-0.5-1.9
			c-0.1-0.3-0.1-0.6,0.1-1C265.1,114.9,265.3,114.7,265.5,114.5z"/>
		<path style="fill:#FFFFFF;" d="M278.1,119.6c-0.5,0-0.8,0-1-0.1c-0.2-0.1-0.3,0-0.4,0.4l-0.1,0.6c-0.1,0.5,0,0.9,0.3,1.2
			c0.1,0.2,0.3,0.3,0.6,0.2s0.5-0.1,0.8-0.3s0.5-0.4,0.7-0.7c0.3-0.3,0.4-0.5,0.6-0.6c0.2-0.3,0.6-0.4,1.3-0.2
			c0.4,0.3,0.3,0.9-0.2,1.8c-0.1,0.2-0.3,0.5-0.8,0.9s-0.8,0.7-1,0.9c-0.9,0.5-1.8,0.5-2.8,0.1c-1.3-0.5-1.8-1.8-1.6-3.9
			c0-0.5,0-0.9,0-1.1c-0.1-0.2-0.1-0.4-0.3-0.5c-0.1-0.1-0.2-0.2-0.3-0.3c-0.3-0.3-0.4-0.5-0.4-0.6s0-0.3,0.1-0.4
			c0.1-0.2,0.1-0.3,0.2-0.3c0.4-0.2,0.6-0.3,0.7-0.3c0.1,0,0.2,0.1,0.3,0.1c0.1,0.1,0.2,0.2,0.2,0.2c0.1,0.2,0.3,0,0.6-0.6
			c0.1-0.1,0.1-0.3,0.2-0.5c0.2-0.4,0.6-0.7,1-1.1c0.4-0.4,0.7-0.6,1-0.7c0.2-0.1,0.6-0.2,1.1-0.3c0.5-0.1,0.8-0.1,1-0.1
			c0.6,0.1,1.1,0.4,1.8,1.1c0.3,0.2,0.5,0.6,0.5,1.2s0,1.1-0.2,1.4c-0.1,0.3-0.4,0.7-1,1.2c-0.6,0.5-1.1,0.9-1.5,1.1
			C279,119.5,278.6,119.6,278.1,119.6z M279.9,115.7c-0.2-0.2-0.5-0.2-1,0.1c-0.2,0.1-0.4,0.2-0.7,0.5c-0.3,0.3-0.5,0.5-0.7,0.8
			s-0.3,0.4-0.2,0.5c0,0,0,0.1,0.1,0.1c0.1,0,0.1,0,0.2,0c0.1,0,0.2,0,0.3,0s0.2,0,0.5-0.1c0.2-0.1,0.5-0.2,0.7-0.3
			c0.2-0.2,0.5-0.4,0.8-0.9C279.9,116,279.9,115.8,279.9,115.7z"/>
		<path style="fill:#FFFFFF;" d="M294.8,113.7c0,0,0.1,0,0.2,0.2c0.3,0.5,0.5,0.9,0.5,1.2c0,0.1-0.1,0.1-0.1,0.1c0,0,0,0,0.1,0
			c0.7-0.4,1.2-0.6,1.3-0.8c0.2-0.1,0.3-0.2,0.4-0.2c0.3-0.1,0.7-0.1,1.1-0.1c0.4,0.1,0.7,0.2,1,0.5c0.8,1.1,1.1,2.3,0.7,3.6
			l-0.7,1.3c-0.7,1.1-1.6,2-2.8,2.7c-0.3,0.2-0.6,0.3-1.1,0.5c-0.5,0.1-0.8,0.2-0.9,0.1c-0.2-0.1-0.4-0.4-0.5-0.9
			c-0.2,0.6-0.4,0.9-0.4,1.2c0,0.2-0.1,0.4-0.2,0.4c0,0.1-0.1,0.2-0.2,0.4c-0.5,1.6-0.8,2.4-0.8,2.5c-0.1,0.6-0.2,1.1-0.4,1.6
			c-0.2,0.5-0.4,0.8-0.7,0.9c-0.4,0.1-0.7-0.1-1.1-0.5c-0.3-0.5-0.4-1-0.2-1.5c0.1-0.2,0.2-0.5,0.2-0.9c0.1-0.4,0.2-0.8,0.3-1.3
			c0.2-0.5,0.3-0.9,0.5-1.1c0.1-0.2,0.2-0.6,0.2-1c0.1-0.4,0.2-0.7,0.3-0.8c0.1-0.4,0.2-0.7,0.4-0.9c0.1-0.5,0.2-0.7,0.2-0.7
			c0.2-0.8,0.4-1.7,0.8-2.8s0.4-1.7,0.1-1.9c-0.2-0.1-0.3-0.4-0.3-0.9c0-0.5,0.1-0.8,0.3-0.9c0.2-0.1,0.4-0.1,0.6-0.2
			c0.6-0.1,0.8,0,0.8,0.1C294.7,113.6,294.7,113.7,294.8,113.7z M297.9,117.1c0.2-0.3,0.1-0.6-0.1-0.8c-0.3-0.1-0.7,0.1-1.1,0.4
			s-0.9,0.7-1.2,1.1s-0.5,0.8-0.7,1.2s-0.2,0.7-0.1,0.9c0.1,0.2,0.2,0.3,0.4,0.3c1.3-0.7,2-1.2,2.2-1.5c0-0.1,0.1-0.1,0.1-0.2
			c0-0.2,0.1-0.4,0.2-0.7C297.7,117.6,297.8,117.3,297.9,117.1z"/>
		<path style="fill:#FFFFFF;" d="M310.6,116.6c-0.2,0-0.4,0-0.6,0.1s-0.4,0.2-0.5,0.2c-0.1,0.1-0.2,0.2-0.4,0.3
			c-0.1,0.1-0.4,0.3-0.7,0.5c-0.3,0.2-0.9,0.7-1.6,1.3c-0.8,0.7-1.3,1.3-1.5,1.8c-0.6,1.5-1,2.4-1.1,2.5c-0.1,0.2-0.3,0.3-0.5,0.3
			c-0.3,0-0.4,0-0.5-0.1c-0.1,0-0.3-0.1-0.5-0.3s-0.3-0.4-0.4-0.5s0.1-0.7,0.3-1.5c0.3-1.3,0.5-2.3,0.6-2.8c0.1-0.2,0.2-0.5,0.3-1
			c0.1-0.5,0.3-0.8,0.4-1.1c0.2-0.8,0.5-1.6,1-2.4c0-0.1,0.1-0.2,0.2-0.3c0.1-0.1,0.2-0.2,0.3-0.2c0.1-0.1,0.3-0.2,0.6-0.1
			c0.2,0,0.4,0.1,0.6,0.3c0.4,0.5,0.4,1.2,0,2.1c-0.2,0.4-0.4,0.9-0.6,1.4c-0.2,0.5-0.4,0.8-0.5,1c0.9-1.2,1.8-2.1,2.7-2.8
			c0,0,0.1-0.1,0.1-0.1c0.7-0.5,1.3-0.7,1.8-0.6c0.3,0,0.5,0.2,0.8,0.6c0.3,0.4,0.3,0.9,0.2,1.4C311,116.6,310.8,116.6,310.6,116.6z
			"/>
		<path style="fill:#FFFFFF;" d="M312.7,121.4l0.1-0.6c0-0.1,0.1-0.4,0.2-0.9c0.4-0.9,0.8-2.3,1.4-4.3c0-0.2,0.1-0.3,0.4-0.3
			c0.2-0.1,0.4,0,0.7,0.3c0.3,0.2,0.5,0.5,0.7,0.8c0.2,0.2,0.2,0.7-0.1,1.3s-0.4,1.2-0.5,1.8c-0.2,0.5-0.3,0.8-0.4,1.1
			c-0.1,0.2-0.1,0.6-0.2,1.1c-0.1,0.5-0.2,0.8-0.3,1c-0.2,0.7-0.4,1.1-0.8,1.3s-0.7,0.1-1-0.3c-0.2-0.2-0.3-0.5-0.3-1.1
			C312.6,122,312.6,121.6,312.7,121.4z M315.3,112.3c-0.1-0.2-0.2-0.4-0.2-0.5s0-0.3,0.1-0.4c0.1-0.1,0.2-0.4,0.4-0.8
			c0.4-0.8,0.6-1.2,0.7-1.2c0.2-0.1,0.5-0.1,0.9,0s0.6,0.4,0.8,0.7c0.3,0.7,0.2,1.4-0.4,2.2c-0.3,0.4-0.6,0.6-1,0.7
			s-0.7,0.1-0.9-0.1C315.6,112.7,315.4,112.6,315.3,112.3z"/>
		<path style="fill:#FFFFFF;" d="M320.5,115.1l-0.1-0.6c0-0.3,0.1-0.5,0.4-0.7c0.2-0.2,0.6-0.3,0.9-0.3s0.7,0.2,0.9,0.5
			c0.2,0.3,0.3,0.7,0.3,1s-0.1,0.6-0.2,0.9l-0.9,2.3c0,0.1,0,0.1,0.1,0.1c0.1,0.1,0.3-0.1,0.7-0.5c0.4-0.4,1-0.9,1.7-1.5
			s1.3-0.9,1.7-1c0.2,0,0.5,0.2,0.9,0.5s0.5,0.7,0.5,1.1c-0.3,1.2-0.4,1.9-0.5,2.1c0.3-0.4,0.9-0.9,1.7-1.5c0.8-0.6,1.4-0.9,1.8-0.9
			c0.5,0,0.9,0.3,1.1,0.8c0.2,0.5,0.3,1.2,0.4,2.1s0.1,1.4,0.3,1.7c0,0.1,0.1,0.2,0.3,0.2c0.2,0.1,0.3,0.1,0.5,0.3s0.2,0.3,0.2,0.6
			c0,0.7-0.6,1.1-1.7,1.1c-0.5,0-0.9-0.3-1.3-0.8c-0.4-0.5-0.5-1.2-0.5-1.9c0-0.3,0-0.6,0.1-0.9c0-0.3,0.1-0.5,0.1-0.5
			s0-0.1-0.1-0.1c-0.4,0-1.4,0.8-2.9,2.5c-0.1,0-0.1,0.1-0.1,0.1c-0.1,0.1-0.3,0.3-0.5,0.5c-0.5,0.5-0.9,0.7-1.1,0.7
			s-0.4-0.1-0.5-0.2l-0.3-0.2c-0.2-0.2-0.3-0.4-0.3-0.7v-0.1l0.6-1.8c0.4-1,0.6-1.5,0.6-1.6c0-0.1,0-0.2,0-0.2
			c-0.3,0-0.7,0.4-1.4,1.2c-0.7,0.9-1.2,1.4-1.5,1.7s-0.5,0.6-0.8,0.9s-0.5,0.6-0.7,0.9c-0.2,0.2-0.3,0.4-0.3,0.4
			c-0.4,0-0.7-0.2-1-0.5c-0.3-0.3-0.4-0.6-0.4-0.9c0-0.3,0-0.6,0.1-0.9c0.1-0.3,0.1-0.7,0.3-1.2s0.2-0.9,0.2-1.1s0.1-0.4,0.1-0.6
			s0.1-0.3,0.1-0.3s0-0.2,0.1-0.4c0.1-0.2,0.1-0.4,0.2-0.6c0.1-0.2,0.2-0.6,0.4-1.1C320.5,115.6,320.5,115.3,320.5,115.1z"/>
		<path style="fill:#FFFFFF;" d="M344.2,121.7c-0.2,0.4-0.5,0.7-0.9,1s-0.8,0.4-1.1,0.4c-0.3,0-0.6-0.2-0.9-0.5
			c-0.3-0.4-0.6-1-0.8-1.9l-0.9,0.9c-0.1,0.1-0.3,0.3-0.4,0.5c-0.4,0.3-0.6,0.6-0.6,0.6c-0.1,0.2-0.6,0.5-1.4,0.9
			c-0.2,0.1-0.5,0.1-0.8,0c-0.3-0.1-0.5-0.1-0.5-0.2s0-0.1,0-0.1c0,0,0,0-0.1,0c-0.3-0.3-0.6-0.5-0.8-0.6c-0.2-0.3-0.3-0.6-0.3-0.9
			c0-0.3,0.1-0.9,0.3-1.8c0-1,0.5-2.2,1.5-3.5c1-1.3,1.9-2.3,2.7-2.8c0.2-0.2,0.6-0.4,1-0.4c0.4,0,0.7,0.1,1,0.2s0.6,0.5,0.9,0.9
			c0.3,0.5,0.6,0.9,0.8,1.3c0,0,0,0.2,0.1,0.5c0.1,0.3,0.1,0.5,0.1,0.5c0,0,0,0.4,0,1c-0.2,0.7-0.3,1.4-0.3,2c0,0.3,0,0.6,0.1,0.7
			c0.1,0.1,0.3,0.1,0.6,0c0.3-0.1,0.6-0.1,0.8,0.2C344.3,120.9,344.4,121.3,344.2,121.7z M336.9,120.7c0,0.6,0.3,0.7,0.9,0.4
			c0.4-0.2,0.7-0.5,0.9-0.8c0.3-0.4,0.7-1,1.1-1.7c0.5-0.7,0.8-1.3,0.9-1.8c-0.2-0.6-0.4-0.9-0.6-1c-0.5,0-1.1,0.6-1.9,1.8
			c-0.4,0.6-0.8,1.2-1,1.9C337,120.1,336.9,120.5,336.9,120.7z"/>
		<path style="fill:#FFFFFF;" d="M353.8,113.8c0.2,0,0.4,0.1,0.7,0.3c0.3,0.2,0.4,0.3,0.5,0.5c0.4,0.8,0.5,1.4,0.2,1.8
			c-0.6,0.7-1.2,1-1.9,0.9c-0.1,0-0.2-0.1-0.3-0.4c-0.1-0.2-0.2-0.4-0.2-0.5c0-0.1-0.2,0.1-0.6,0.5s-0.6,0.7-0.7,0.8
			c-0.4,0.5-0.9,1.3-1.4,2.4s-0.9,1.9-1,2.2c-0.1,0.4-0.2,0.6-0.3,0.8c-0.1,0.2-0.2,0.3-0.3,0.3c-0.1,0-0.3,0-0.6-0.1
			s-0.5-0.2-0.5-0.2c-0.6-0.6-0.7-1.4-0.1-2.3c0.1-0.2,0.3-0.9,0.7-1.9s0.5-1.6,0.6-1.7c0-0.3,0-0.5-0.1-0.7
			c-0.1-0.1-0.2-0.2-0.4-0.2c-0.4,0-0.5-0.3-0.5-0.9c0.1-0.5,0.2-0.9,0.6-1.1c0.3-0.1,0.6-0.2,1-0.2c0.4,0,0.8,0.1,1,0.2
			s0.4,0.7,0.5,1.7c0.1-0.1,0.3-0.3,0.6-0.7c0.3-0.3,0.5-0.6,0.6-0.7C352.9,114.1,353.4,113.8,353.8,113.8z"/>
		<path style="fill:#FFFFFF;" d="M358.9,130.3c-0.1,0-0.2,0-0.3,0h-0.3c-0.3,0.1-0.5-0.1-0.6-0.5c-0.1-0.2-0.1-0.4-0.1-0.7
			c-0.1-0.4,0.1-1.3,0.7-2.5c0.1-0.2,0.3-0.6,0.5-1.1s0.6-1.3,1.1-2.3c0.5-1,1-1.9,1.3-2.7c-0.4,0.4-0.8,0.9-1.2,1.4
			c-0.4,0.5-0.7,0.9-1,1s-0.4,0.2-0.6,0.2c-0.2,0-0.5-0.2-0.8-0.4c-0.3-0.3-0.5-0.5-0.6-0.8c-0.2-0.8-0.1-1.9,0.1-3.4
			c0.2-1.5,0.3-2.4,0.3-2.7s-0.2-0.5-0.4-0.7c-0.3-0.4-0.1-0.9,0.6-1.3c0.4-0.1,0.6-0.1,0.9-0.1c0.2,0.1,0.4,0.2,0.6,0.5
			c0,0.1,0.1,0.1,0.2,0.3c0.1,0.1,0.1,0.2,0.2,0.3s0.1,0.2,0.1,0.3c0.1,0.3,0.2,0.5,0.2,0.8c0,0.2,0,0.9-0.1,2.1
			c-0.1,0.6-0.2,1-0.3,1.3s-0.2,0.5-0.2,0.7c0,0.2,0,0.4,0,0.5c0.5-0.4,0.9-0.8,1.3-1.3c0.3-0.4,0.8-1.1,1.5-2
			c0.5-0.9,0.8-1.5,0.8-1.8c0.3-0.7,0.6-1.1,0.8-1.1c0.1,0,0.3,0,0.6,0.1s0.4,0.2,0.4,0.2c0,0,0.2,0.1,0.5,0.1s0.5,0.1,0.5,0.1
			c0,0-0.2,0.4-0.5,1.2c-0.3,0.7-0.4,1.1-0.4,1.2c0,0.1-0.2,0.7-0.7,1.8c-0.4,1.4-0.9,2.6-1.4,3.5c-0.2,0.4-1.1,2.6-2.8,6.8
			C359.5,130,359.3,130.3,358.9,130.3z"/>
		<path style="fill:#FFFFFF;" d="M381.3,117.5c-0.2,0.3-0.4,0.5-0.5,0.5c-0.2,0-0.2,0-0.2,0.1s-0.1,0.2-0.3,0.2
			c-0.2,0-0.4,0-0.6-0.1s-0.3-0.2-0.3-0.3c0-0.1,0.1-0.4,0.2-1s0.1-0.9,0-1.1c-0.1-0.2-0.3-0.2-0.6,0c-0.6,0.4-1.1,0.9-1.4,1.5
			s-0.6,1.4-0.8,2.3c-0.2,0.9-0.3,1.5-0.3,1.7c0,0.3,0.1,0.5,0.2,0.6c0.5,0.1,1,0.1,1.3-0.1c0.4-0.2,0.9-0.6,1.5-1.1
			c0,0,0.1-0.1,0.2-0.3s0.2-0.3,0.3-0.3c0.1-0.2,0.3-0.3,0.6-0.3h0.5c0.3,0.1,0.5,0.3,0.7,0.6c0.1,0.2,0.1,0.3,0,0.3l-0.1,0.1
			c0.1,0.1-0.2,0.6-0.9,1.3c-0.7,0.7-1.1,1.1-1.3,1.1s-0.3,0.1-0.3,0.2c0,0.1-0.3,0.2-0.8,0.5s-0.9,0.4-1.3,0.5
			c-0.8,0.1-1.5,0-2.1-0.5c-0.7-0.5-1-1.1-1-1.9c-0.1-0.8,0.1-1.8,0.4-3.1s0.8-2.2,1.4-3c0.9-1.1,1.5-1.7,2-1.9
			c0.5-0.2,1-0.3,1.5-0.3c0.9,0.2,1.4,0.5,1.4,0.9l0.1,0.1c0.2,0,0.3,0.3,0.5,0.8c0.2,0.6,0.2,1,0.1,1.2
			C381.7,116.8,381.5,117.1,381.3,117.5z"/>
		<path style="fill:#FFFFFF;" d="M389.9,114c0.1,0,0.3,0.1,0.7,0.3c0.7,0.2,1.1,0.4,1.4,0.8c0.2,0.5,0.4,1,0.5,1.7
			c0.2,0.6,0.2,1,0,1.2c-0.1,0.1-0.1,0.2-0.1,0.2s0,0,0,0.1c0,0.1,0,0.2-0.1,0.4c-0.3,0.9-0.4,1.6-0.3,2c0.3,0.8,0.8,0.9,1.4,0.2
			c0.3-0.2,0.5-0.3,0.7-0.3c0.2,0,0.3,0.1,0.3,0.2c0.1,0.1,0.2,0.1,0.3,0.1c0.1,0,0.1,0.1,0.1,0.3c0,0.4-0.1,0.7-0.3,1.1
			c-0.3,0.3-0.4,0.4-0.4,0.5c-0.1,0.1-0.2,0.2-0.4,0.4c-0.3,0.2-0.7,0.3-1.2,0.3s-0.8-0.1-1.1-0.3c-0.7-0.5-1.1-1-1.2-1.5l-0.1-0.3
			l-0.7,0.5l-0.6,0.7c-0.1,0.2-0.3,0.3-0.4,0.3h-0.3c0,0.1-0.2,0.3-0.7,0.5s-0.8,0.3-1.1,0.3c-0.3,0.1-0.6-0.1-1-0.5
			c-0.4-0.4-0.6-0.8-0.7-1.1c-0.1-0.6,0-1.4,0.4-2.5s0.9-2,1.7-3c0.8-1,1.6-1.7,2.6-2.1C389.6,114.1,389.8,114,389.9,114z
			 M390.4,116.7c-0.1-0.2-0.2-0.3-0.3-0.3s-0.3,0-0.6,0.2c-0.5,0.3-1.1,1-1.7,2.1c-0.7,1.1-1,1.8-1,2.3l0.1,0.3
			c0.2,0,0.6-0.2,1.2-0.7c0.6-0.5,0.9-0.8,1.1-0.9c0.1-0.2,0.2-0.3,0.4-0.5c0.1-0.2,0.3-0.4,0.5-0.7s0.4-0.5,0.5-0.8
			S390.5,117.1,390.4,116.7z"/>
		<path style="fill:#FFFFFF;" d="M404,113.8c0.2,0,0.4,0.1,0.7,0.3c0.3,0.2,0.4,0.3,0.5,0.5c0.4,0.8,0.5,1.4,0.2,1.8
			c-0.6,0.7-1.2,1-1.9,0.9c-0.1,0-0.2-0.1-0.3-0.4c-0.1-0.2-0.2-0.4-0.2-0.5c0-0.1-0.2,0.1-0.6,0.5s-0.6,0.7-0.7,0.8
			c-0.4,0.5-0.9,1.3-1.4,2.4s-0.9,1.9-1,2.2c-0.1,0.4-0.2,0.6-0.3,0.8c-0.1,0.2-0.2,0.3-0.3,0.3c-0.1,0-0.3,0-0.6-0.1
			s-0.5-0.2-0.5-0.2c-0.6-0.6-0.7-1.4-0.1-2.3c0.1-0.2,0.3-0.9,0.7-1.9s0.5-1.6,0.6-1.7c0-0.3,0-0.5-0.1-0.7
			c-0.1-0.1-0.2-0.2-0.4-0.2c-0.4,0-0.5-0.3-0.5-0.9c0.1-0.5,0.2-0.9,0.6-1.1c0.3-0.1,0.6-0.2,1-0.2c0.4,0,0.8,0.1,1,0.2
			s0.4,0.7,0.5,1.7c0.1-0.1,0.3-0.3,0.6-0.7c0.3-0.3,0.5-0.6,0.6-0.7C403,114.1,403.6,113.8,404,113.8z"/>
		<path style="fill:#FFFFFF;" d="M412.2,113.4c1,0,1.7,0.3,2.2,0.8s0.7,1,0.7,1.4v0.2c0,0.4-0.2,1-0.7,1.8c-0.2,0.4-0.6,0.8-1.1,1.2
			c-0.5,0.3-1,0.5-1.5,0.5s-1,0-1.4-0.1c-0.4-0.1-0.7-0.1-0.8-0.1s-0.2,0.1-0.3,0.2c-0.1,0.2-0.2,0.6-0.2,1.1c0.1,0.5,0.2,0.8,0.4,1
			c0.2,0.2,0.5,0.3,0.8,0.3c0.3,0,0.6-0.1,0.9-0.2c0.3-0.1,0.6-0.3,1-0.7s0.6-0.5,0.9-0.5s0.4,0.1,0.6,0.3c0.2,0.2,0.3,0.4,0.3,0.6
			c-0.1,0.4-0.4,0.9-1.2,1.6c-0.7,0.7-1.6,1-2.5,1c-0.9,0-1.7-0.3-2.3-0.9c-0.6-0.6-0.9-1.4-0.9-2.4c0-0.4,0-0.8,0.1-1.3
			c0-0.5,0.2-1,0.4-1.7s0.7-1.4,1.2-2.2c0.6-0.8,1.2-1.3,1.8-1.6C411.2,113.6,411.8,113.4,412.2,113.4z M412.1,115.4
			c-0.2,0-0.5,0.2-1,0.6c-0.4,0.4-0.8,0.8-1.1,1.3c0,0.2,0.3,0.3,0.8,0.3c0.5,0,0.9,0,1-0.1c0.1-0.1,0.4-0.3,0.7-0.7
			c0.3-0.4,0.5-0.6,0.5-0.8c0-0.4-0.3-0.6-0.8-0.7H412.1z"/>
	</g>
	<g>
		<path style="fill:#FFFFFF;" d="M62,82.5c0.5-0.1,1-0.1,1.5-0.1c0.5,0,1-0.1,1.5-0.1c1-0.2,1.8-0.2,2.8-0.5
			c0.5-0.1,0.9-0.2,1.4-0.3l1.4-0.4c0.9-0.2,1.8-0.5,2.7-0.8c0.9-0.3,1.7-0.6,2.6-1c0.9-0.3,1.7-0.7,2.5-1.1
			c0.9-0.3,1.6-0.8,2.5-1.2c0.8-0.4,1.6-0.9,2.4-1.3c0.8-0.4,1.6-0.9,2.4-1.3c0.8-0.4,1.6-0.9,2.3-1.5c0.4-0.3,0.8-0.5,1.2-0.8
			l1.1-0.8l1.1-0.8l1-0.9c0.7-0.6,1.5-1.2,2.1-1.8c0.7-0.7,1.5-1.2,2.1-1.9c0.6-0.7,1.4-1.4,2-2.1c0.6-0.8,1.2-1.5,1.7-2.3l0.7,1.5
			c-0.8-0.2-1.5-0.4-2.3-0.6C98,62.2,97.2,62,96.4,62c-0.8-0.1-1.6-0.1-2.4-0.1c-0.8,0-1.6,0.1-2.3,0.2c-0.4,0.1-0.8,0.1-1.2,0.2
			l-1.1,0.3l-1.1,0.3c-0.4,0.1-0.7,0.3-1.1,0.4c-0.7,0.3-1.4,0.5-2,0.8c-0.3,0.1-0.6,0.3-1,0.4c-0.3,0.1-0.6,0.3-0.9,0.5
			c-0.3,0.2-0.6,0.3-0.9,0.5c-0.3,0.2-0.6,0.4-0.8,0.5l-0.4,0.3l-0.4,0.3c-0.3,0.2-0.5,0.4-0.8,0.6c-0.3,0.2-0.5,0.5-0.8,0.7
			c-0.3,0.2-0.5,0.4-0.8,0.7c-0.5,0.5-1,1-1.5,1.6c-1,1.1-2,2.3-3.1,3.5l-1.7,1.8c-0.6,0.6-1.2,1.2-1.8,1.7l-0.5-0.3
			c0.2-0.8,0.4-1.6,0.6-2.4c0.3-0.8,0.5-1.6,0.8-2.4c0.3-0.8,0.6-1.6,0.9-2.3c0.2-0.4,0.3-0.8,0.5-1.2l0.6-1.1
			c0.4-0.8,0.9-1.5,1.4-2.2c0.5-0.7,1.1-1.4,1.8-2.1c0.3-0.3,0.7-0.6,1-0.9l0.5-0.5l0.6-0.4c0.4-0.3,0.8-0.5,1.2-0.8
			c0.4-0.3,0.9-0.4,1.3-0.6c0.4-0.2,0.9-0.4,1.3-0.5c0.4-0.1,0.9-0.2,1.4-0.3c0.5-0.1,0.9-0.2,1.4-0.2l1.4-0.1c0.4,0,0.9,0,1.3,0
			l1.3,0.1c0.9,0.1,1.7,0.1,2.5,0.3c0.8,0.2,1.7,0.2,2.5,0.4c0.8,0.2,1.6,0.3,2.4,0.4c0.8,0.1,1.6,0.2,2.4,0.3
			c0.8,0.1,1.6,0.2,2.4,0.3l1.4,0.1l-0.6,1.4c-0.4,0.9-0.8,1.9-1.2,2.8c-0.4,1-0.9,1.9-1.4,2.8c-0.2,0.5-0.5,0.9-0.8,1.4
			c-0.3,0.4-0.6,0.9-0.8,1.3c-0.6,0.9-1.2,1.7-1.9,2.5c-0.3,0.4-0.7,0.8-1,1.2L94,75.6l-1.1,1.1c-0.4,0.4-0.8,0.7-1.2,1
			c-0.8,0.7-1.6,1.4-2.5,1.9c-0.9,0.6-1.8,1.2-2.7,1.7c-1,0.5-1.9,1-2.9,1.4c-1,0.4-2,0.8-3,1.1c-1,0.3-2,0.6-3.1,0.8
			c-1.1,0.2-2.1,0.4-3.2,0.5c-1.1,0.1-2.1,0.2-3.2,0.1l-1.6-0.1c-0.5,0-1.1-0.1-1.6-0.2c-0.5-0.1-1-0.1-1.6-0.3l-1.6-0.4
			c-0.5-0.1-1-0.3-1.4-0.6c-0.5-0.2-0.9-0.4-1.4-0.7L62,82.5z"/>
	</g>
	<g>
		<path style="fill:#FFFFFF;" d="M64.7,97.2c0.4,0.8,0.8,1.6,1.2,2.4c0.4,0.8,0.8,1.5,1.3,2.1c1,1.2,2.4,2.1,3.9,2.7
			c1.5,0.6,3.1,0.9,4.8,1.2c1.7,0.2,3.3,0.4,5,0.4l0.5,0l0.5,0.5c2.5,2.3,5,4.6,7.5,6.9l7.4,7l-4.2,1.9l-1.9-16l-0.3-2.9l3.1-0.4
			c0.5-0.1,1-0.1,1.5-0.2c0.5-0.1,1-0.2,1.6-0.3c1-0.2,2.1-0.4,3-0.7c0.5-0.1,1-0.3,1.4-0.4c0.2-0.1,0.5-0.2,0.7-0.2l0.1,0l0,0l0,0
			c0,0,0.1,0-0.1,0l0,0l0,0l0.2-0.1l0.4-0.2c0.2-0.1,0.3-0.2,0.5-0.2l0.5-0.3c0.3-0.2,0.6-0.5,1-0.7c1.2-1.1,2.2-2.6,3-4.3
			c0.4-0.9,0.7-1.8,1-2.7c0.1-0.5,0.3-0.9,0.4-1.4c0.1-0.4,0.2-1,0.3-1.3l0.3-2.4l2.5-0.6c2.2-0.6,4.3-1.3,6.2-2.2
			c1.9-0.9,3.6-2.1,5.1-3.5c1.4-1.4,2.6-3,3.6-4.8c0.9-1.8,1.6-3.8,2.2-5.9c0.5-2.1,0.9-4.3,1-6.6l0.1-0.9l0-0.2l0-0.1
			c0-0.1,0,0.1,0,0.1l0,0l0-0.1l0-0.5c0-0.6,0.1-1.3,0-1.8l0-1.5l-0.1-1.6c-0.2-2.2-0.6-4.3-1.2-6.4c-0.6-2.1-1.4-4.2-2.3-6.2
			c-3.8-8.1-10-15.1-17.6-20c-1.9-1.2-3.9-2.3-5.9-3.3c-2.1-0.9-4.2-1.8-6.4-2.4c-2.2-0.7-4.4-1.2-6.7-1.6c-2.3-0.4-4.5-0.6-6.8-0.7
			l-1.8-0.1l-0.9-1.3c-1.5-2-3.4-3.7-5.6-4.9c-2.2-1.2-4.8-2-7.5-2.5c-2.7-0.5-5.5-0.6-8.3-0.5c-2.8,0.1-5.7,0.5-8.5,1
			c-5.7,1.1-11.3,2.9-16.7,5.2c-2.7,1.2-5.3,2.5-7.8,4c-1.3,0.8-2.5,1.6-3.6,2.4c-0.6,0.4-1.2,0.9-1.7,1.3c-0.6,0.5-1.1,1-1.7,1.4
			c-2.2,2-4.1,4.1-5.9,6.5c-1.7,2.3-3.2,4.9-4.4,7.5c-1.1,2.7-2,5.5-2.3,8.3c-0.4,2.9-0.3,5.8,0.3,8.6c0.6,2.8,1.6,5.5,3.1,8
			c1.5,2.5,3.3,4.7,5.4,6.7c2.1,2,4.4,3.7,6.9,5.3c2.4,1.6,5.1,2.9,7.7,4.1l1.2,0.5l0.1,1.5c0.1,1.8,0.8,3.5,2,5
			c1.2,1.5,2.7,2.7,4.4,3.5c1.7,0.9,3.6,1.4,5.4,1.5c1.9,0.1,3.7-0.2,5.2-0.9c0.2-0.1,0.4-0.2,0.6-0.3l0.7-0.4
			c0.4-0.2,0.8-0.5,1.3-0.8c0.8-0.5,1.7-1.1,2.5-1.6c0.8-0.6,1.5-1.2,2.2-1.8c0.7-0.6,1.4-1.3,1.9-2c0.6-0.7,1.1-1.5,1.6-2.4
			c0.2-0.4,0.4-0.9,0.6-1.3c0.2-0.5,0.4-0.9,0.6-1.4c0.3-1,0.6-2,0.9-3.1c0.2-1.1,0.4-2.2,0.6-3.4l0.8-0.1c0.6,1.1,1.1,2.2,1.4,3.4
			c0.3,1.2,0.6,2.5,0.6,3.8c0,0.7,0,1.3,0,2c-0.1,0.7-0.2,1.3-0.3,2c-0.3,1.3-0.8,2.6-1.4,3.8c-0.6,1.2-1.4,2.4-2.3,3.4
			c-0.9,1-1.9,2-2.9,2.8c-1,0.8-2.1,1.5-3.3,2.1c-0.6,0.3-1.2,0.5-1.8,0.8c-0.3,0.1-0.6,0.2-0.8,0.3l-1,0.4c-2.7,1-5.6,1.2-8.3,0.8
			c-2.7-0.4-5.3-1.3-7.6-2.7c-2.3-1.4-4.3-3.2-5.8-5.5c-1.5-2.3-2.4-5.1-2.3-7.9l1.3,2c-5.4-3-10.6-6.6-14.9-11.2
			c-2.1-2.3-4-4.8-5.5-7.6c-1.5-2.8-2.6-5.8-3.1-8.9C2.6,48,3.5,41.5,5.9,35.8c1.2-2.9,2.7-5.6,4.5-8.2c1.8-2.6,3.8-4.9,6-7.1
			c0.6-0.6,1.1-1.1,1.7-1.6c0.6-0.5,1.2-1.1,1.8-1.5c1.2-1,2.5-1.9,3.7-2.8c2.6-1.7,5.2-3.3,8-4.7C37,7.1,42.7,4.8,48.8,3.2
			c6-1.6,12.4-2.5,18.9-1.7c3.3,0.4,6.6,1.2,9.7,2.8c3.1,1.5,6,3.8,8.1,6.6l-2.8-1.4c2.6,0,5.2,0.2,7.8,0.5c2.6,0.3,5.2,0.9,7.7,1.6
			c2.5,0.7,5,1.6,7.4,2.6c2.4,1.1,4.8,2.2,7,3.6c2.2,1.4,4.4,2.9,6.4,4.6c2,1.7,4,3.5,5.8,5.4c1.8,1.9,3.5,4,5,6.2
			c1.5,2.2,2.9,4.5,4,6.9c1.1,2.4,2.1,4.9,2.9,7.5c0.7,2.6,1.2,5.3,1.5,8c0.1,0.7,0.1,1.4,0.1,2l0,2.2c0,0.7-0.1,1.2-0.1,1.9l0,0.5
			l0,0.4l0,0.2l-0.1,1c-0.3,2.6-0.7,5.3-1.4,7.9c-0.7,2.6-1.7,5.3-3.1,7.8c-1.4,2.5-3.2,4.8-5.4,6.8c-2.2,1.9-4.6,3.4-7.2,4.6
			c-2.5,1.1-5.1,1.9-7.7,2.5l2.8-3c-0.2,0.8-0.3,1.4-0.5,2c-0.2,0.6-0.4,1.2-0.6,1.8c-0.4,1.2-0.9,2.4-1.5,3.6
			c-1.2,2.3-2.8,4.5-5.1,6.3c-0.6,0.4-1.2,0.8-1.8,1.2c-0.3,0.2-0.6,0.3-1,0.5c-0.3,0.2-0.8,0.4-1.1,0.5l-0.4,0.1l-0.2,0.1l-0.2,0.1
			l-0.1,0l-0.1,0c-0.3,0.1-0.6,0.2-0.9,0.3c-0.6,0.2-1.2,0.3-1.8,0.4c-1.2,0.3-2.4,0.4-3.6,0.6c-0.6,0.1-1.2,0.1-1.8,0.2
			c-0.6,0.1-1.2,0.1-1.8,0.2l2.8-3.3l0.8,16.1l0.3,6.9l-4.5-5l-6.8-7.5c-2.3-2.5-4.5-5-6.8-7.6l1,0.5c-1.8-0.2-3.5-0.5-5.3-0.9
			c-1.8-0.4-3.5-1-5.2-1.9c-1.6-0.9-3.2-2.1-4.2-3.7c-0.5-0.8-0.9-1.7-1.2-2.5c-0.3-0.8-0.5-1.7-0.8-2.5L64.7,97.2z"/>
	</g>
	<g>
		<path style="fill:#FFFFFF;" d="M64.6,97.2c0.4,0.8,0.8,1.6,1.1,2.4c0.4,0.8,0.8,1.5,1.3,2.1c1,1.3,2.4,2.1,3.9,2.7
			c1.5,0.6,3.2,0.9,4.8,1.2c1.7,0.2,3.4,0.4,5.1,0.4l0.5,0l0.4,0.4c2.5,2.3,5,4.6,7.4,7l7.4,7l-3.8,1.7l-1.8-16l-0.3-2.5l2.7-0.3
			c0.5-0.1,1-0.1,1.6-0.2c0.5-0.1,1.1-0.2,1.6-0.3c1-0.2,2.1-0.4,3.1-0.7c0.5-0.1,1-0.3,1.5-0.4c0.2-0.1,0.5-0.2,0.7-0.2l0.1,0l0,0
			l0,0c0,0,0.1,0-0.1,0l0,0l0,0l0.2-0.1l0.4-0.2c0.3-0.1,0.3-0.2,0.5-0.3l0.5-0.3c0.4-0.2,0.7-0.5,1-0.8c1.3-1.1,2.4-2.7,3.2-4.4
			c0.4-0.9,0.8-1.8,1.1-2.7c0.2-0.5,0.3-1,0.4-1.4c0.1-0.5,0.2-1,0.3-1.3l0.3-2l2-0.5c2.2-0.5,4.4-1.3,6.3-2.2
			c2-0.9,3.8-2.1,5.3-3.5c1.5-1.4,2.8-3.1,3.8-5c1-1.9,1.8-3.9,2.4-6.1c0.6-2.2,1-4.4,1.2-6.8L131,63l0-0.2l0-0.1c0-0.1,0,0.1,0,0.1
			l0,0l0-0.1l0-0.5c0-0.6,0.1-1.3,0.1-1.8l0-1.6l-0.1-1.7c-0.2-2.3-0.5-4.5-1.1-6.8c-0.6-2.2-1.3-4.4-2.2-6.6
			c-0.9-2.1-2-4.2-3.2-6.2c-1.2-2-2.6-3.9-4.1-5.7c-1.5-1.8-3.2-3.5-4.9-5.1c-1.8-1.6-3.7-3-5.6-4.4c-2-1.3-4.1-2.5-6.2-3.5
			c-2.2-1-4.4-1.9-6.7-2.6c-2.3-0.7-4.6-1.3-7-1.6c-2.4-0.4-4.8-0.5-7.2-0.6l-0.5,0l-0.3-0.4c-1.7-2.3-4-4.1-6.5-5.4
			c-2.5-1.3-5.4-2.1-8.2-2.4c-5.8-0.7-11.7,0-17.4,1.5C46.9,8,44.1,8.9,41.3,10c-2.7,1.1-5.4,2.3-8,3.6c-2.6,1.3-5.1,2.8-7.5,4.5
			c-1.2,0.8-2.3,1.7-3.4,2.6c-0.5,0.4-1.1,0.9-1.6,1.4c-0.6,0.5-1.1,1-1.5,1.5c-2,2-3.8,4.2-5.4,6.6c-1.6,2.3-2.9,4.8-3.9,7.4
			c-2.1,5.1-2.8,10.7-1.7,15.9c1.1,5.2,4,9.9,7.9,13.8c3.9,3.9,8.7,6.9,13.9,9.4l1.5,0.7l0.5,1.7c0.5,1.8,1.3,3.5,2.3,4.9
			c1,1.4,2.3,2.6,3.8,3.4c1.5,0.8,3.2,1.4,5,1.6c1.8,0.2,3.6,0,5-0.5c0,0,0.1,0,0.1,0l0.2-0.1l0.4-0.1c0.3-0.1,0.5-0.2,0.7-0.3
			c0.4-0.2,0.9-0.4,1.3-0.6c0.9-0.4,1.7-0.9,2.5-1.3c0.8-0.5,1.5-1.1,2.2-1.7c0.7-0.6,1.4-1.3,1.9-2c0.6-0.8,1.1-1.6,1.5-2.4
			c0.4-0.9,0.8-1.8,1.1-2.8c0.3-1,0.6-2,0.7-3.1c0.2-1.1,0.3-2.2,0.4-3.4l0.7-0.1c1,2.1,1.7,4.5,1.7,7c0.1,1.3,0,2.5-0.3,3.8
			c-0.2,1.3-0.6,2.6-1.2,3.8c-0.6,1.2-1.2,2.4-2.1,3.5c-0.8,1.1-1.8,2-2.8,2.9c-1,0.9-2.1,1.6-3.2,2.3c-0.6,0.3-1.1,0.6-1.7,0.9
			c-0.3,0.1-0.7,0.3-0.9,0.4l-0.4,0.2l-0.2,0.1c-0.2,0.1-0.2,0.1-0.3,0.1c-1.4,0.5-2.8,0.8-4.2,0.9c-1.4,0.1-2.8,0.1-4.1,0
			c-2.7-0.3-5.4-1.1-7.9-2.5c-2.4-1.4-4.6-3.3-6.2-5.6c-1.6-2.3-2.7-4.8-3.4-7.4l1.9,2.4c-5.6-2.9-11-6.4-15.6-11.1
			c-2.3-2.4-4.3-5-5.9-7.9c-1.6-2.9-2.8-6.1-3.4-9.4c-0.6-3.3-0.7-6.7-0.2-10c0.5-3.3,1.4-6.5,2.7-9.4c1.3-3,3-5.8,4.9-8.3
			c1.9-2.6,4.1-4.9,6.4-7c0.6-0.5,1.2-1.1,1.8-1.5c0.6-0.5,1.3-1,1.9-1.5c1.3-0.9,2.6-1.8,3.9-2.6c2.7-1.6,5.4-3,8.3-4.3
			C37.1,7.4,43,5.5,49,4.3c3-0.6,6.1-1,9.1-1.2c3.1-0.2,6.2-0.1,9.3,0.4c3.1,0.5,6.1,1.4,8.9,2.8c2.8,1.5,5.3,3.5,7.2,6.1l-0.8-0.4
			c2.5,0.1,5,0.2,7.5,0.6c2.5,0.3,4.9,0.9,7.3,1.5c2.4,0.7,4.8,1.5,7.1,2.5c2.3,1,4.6,2.1,6.7,3.4c2.2,1.3,4.3,2.7,6.2,4.3
			c2,1.6,3.9,3.3,5.6,5.1c1.8,1.8,3.4,3.8,4.9,5.9c1.5,2.1,2.9,4.2,4,6.6c1.2,2.3,2.2,4.7,3,7.2c0.8,2.5,1.3,5,1.7,7.7
			c0.1,0.7,0.1,1.3,0.2,2l0.1,2.1c0,0.7,0,1.2,0,1.9l0,0.5l0,0.3l0,0.2l-0.1,1c-0.2,2.6-0.6,5.2-1.2,7.7c-0.6,2.6-1.5,5.1-2.9,7.6
			c-1.3,2.4-3,4.7-5.1,6.6c-2.1,1.9-4.5,3.4-6.9,4.5c-2.5,1.1-5,1.9-7.6,2.5l2.3-2.5c-0.1,0.8-0.3,1.3-0.4,1.9
			c-0.2,0.6-0.4,1.2-0.6,1.8c-0.4,1.2-0.9,2.3-1.5,3.5c-1.2,2.3-2.7,4.5-4.9,6.2c-0.5,0.4-1.1,0.8-1.7,1.2c-0.3,0.2-0.6,0.3-0.9,0.5
			c-0.3,0.2-0.7,0.4-1,0.5l-0.4,0.1l-0.2,0.1l-0.1,0.1l-0.1,0l-0.1,0c-0.3,0.1-0.6,0.2-0.9,0.3c-0.6,0.2-1.2,0.3-1.8,0.4
			c-1.2,0.3-2.4,0.5-3.5,0.6c-0.6,0.1-1.2,0.2-1.8,0.2c-0.6,0.1-1.2,0.1-1.8,0.2l2.4-2.8l0.9,16.1l0.4,6.2l-4.1-4.5l-6.9-7.5
			c-2.3-2.5-4.6-5-6.8-7.5l0.9,0.4c-1.8-0.2-3.5-0.5-5.3-0.9c-1.8-0.4-3.5-1-5.2-1.9c-1.6-0.9-3.2-2.1-4.2-3.7
			c-0.5-0.8-0.9-1.6-1.2-2.5c-0.3-0.8-0.5-1.7-0.8-2.5L64.6,97.2z"/>
	</g>
	<g>
		<path style="fill:#FFFFFF;" d="M62,82.5c0.5-0.1,1-0.1,1.5-0.2c0.5,0,1-0.1,1.5-0.2c1-0.2,1.8-0.3,2.8-0.5l1.4-0.3
			c0.5-0.1,0.9-0.2,1.4-0.3c0.9-0.2,1.8-0.5,2.7-0.7c0.9-0.2,1.8-0.6,2.6-0.8c0.9-0.2,1.7-0.7,2.6-0.9c0.9-0.3,1.7-0.7,2.6-1
			c0.9-0.3,1.8-0.6,2.7-0.9c0.9-0.3,1.8-0.7,2.7-1c0.9-0.3,1.8-0.8,2.6-1.3c0.4-0.2,0.9-0.5,1.3-0.7c0.4-0.3,0.8-0.6,1.2-0.9
			c0.4-0.3,0.8-0.6,1.1-0.9c0.4-0.3,0.7-0.7,1-1c0.7-0.7,1.3-1.4,1.8-2.2c0.3-0.4,0.5-0.8,0.8-1.2c0.3-0.4,0.5-0.8,0.7-1.3
			c0.4-0.9,0.9-1.7,1.2-2.6c0.3-0.9,0.7-1.8,1-2.6l1.6,3.3c-0.8,0-1.6-0.1-2.3-0.1c-0.8-0.1-1.5-0.2-2.3-0.2l-2.3-0.1
			c-0.8,0-1.5,0.1-2.2,0.1c-0.7,0-1.5,0.1-2.2,0.2c-0.4,0-0.7,0.1-1.1,0.1c-0.3,0-0.7,0.1-1,0.2c-0.3,0.1-0.7,0.1-1,0.2
			c-0.3,0-0.6,0.2-1,0.3l-1,0.3c-0.3,0.1-0.6,0.3-0.9,0.4c-0.3,0.1-0.6,0.2-0.9,0.4c-0.3,0.2-0.6,0.3-0.9,0.5l-0.4,0.2L81,66.7
			c-0.3,0.2-0.6,0.4-0.8,0.6c-0.3,0.2-0.5,0.4-0.8,0.6c-0.3,0.2-0.6,0.4-0.8,0.7c-0.5,0.5-1.1,1-1.6,1.6c-0.5,0.5-1.1,1.1-1.6,1.7
			c-0.5,0.6-1.1,1.2-1.6,1.8c-1.1,1.2-2.2,2.5-3.4,3.6l-0.5-0.3c0.2-0.8,0.4-1.6,0.7-2.4c0.3-0.8,0.5-1.6,0.8-2.3
			c0.3-0.8,0.6-1.6,0.9-2.3c0.3-0.8,0.7-1.5,1.1-2.3c0.4-0.8,0.9-1.5,1.4-2.3c0.5-0.7,1.1-1.4,1.7-2.1c0.3-0.3,0.7-0.7,1-1l0.5-0.5
			l0.6-0.4c0.4-0.3,0.8-0.6,1.2-0.8c0.4-0.3,0.8-0.5,1.3-0.7c0.4-0.2,0.9-0.4,1.3-0.6l1.3-0.5c0.9-0.3,1.8-0.5,2.7-0.7
			c0.5-0.1,0.9-0.2,1.4-0.2c0.4,0,0.9,0,1.4-0.1l1.3,0c0.5,0,0.9,0.1,1.3,0.1c0.9,0.1,1.8,0.1,2.6,0.2l2.5,0.4
			c0.8,0.1,1.7,0.3,2.5,0.6c0.8,0.2,1.6,0.5,2.4,0.7l3.3,1l-1.7,2.3c-0.6,0.9-1.3,1.7-1.9,2.5c-0.7,0.8-1.4,1.6-2.1,2.3
			c-0.7,0.8-1.5,1.5-2.2,2.2c-0.7,0.7-1.5,1.4-2.2,2.1l-1.1,1.1c-0.4,0.3-0.8,0.7-1.1,1c-0.4,0.3-0.7,0.7-1.1,1.1l-1.1,1
			c-0.7,0.7-1.5,1.5-2.3,2.1c-0.8,0.7-1.6,1.4-2.4,2c-0.9,0.6-1.7,1.3-2.6,1.8c-0.9,0.5-1.9,1-2.9,1.3c-1,0.3-2,0.7-3,0.9
			c-1,0.2-2.1,0.5-3.1,0.6c-1.1,0.1-2.1,0.2-3.2,0.2c-0.5,0-1.1,0-1.6,0c-0.5,0-1.1-0.1-1.6-0.2c-0.5-0.1-1-0.1-1.6-0.3l-1.6-0.4
			c-0.5-0.1-1-0.4-1.4-0.6c-0.5-0.2-0.9-0.5-1.4-0.7L62,82.5z"/>
	</g>
	<g>
		<path style="fill:#FFFFFF;" d="M49.4,91.3c0.7-0.4,1.5-0.7,2.1-1.1c0.6-0.4,1.2-0.7,1.8-1.2c0.3-0.2,0.6-0.4,0.9-0.7l0.8-0.7
			c0.3-0.2,0.5-0.5,0.7-0.7c0.2-0.3,0.5-0.5,0.7-0.8c0.8-1.1,1.4-2.2,1.9-3.4c0.4-1.2,0.8-2.5,0.9-3.8c0.2-1.3,0.2-2.6,0.1-3.9
			c-0.1-1.3-0.3-2.7-0.6-4c-0.1-0.7-0.3-1.3-0.5-2c-0.2-0.7-0.3-1.3-0.6-2c-0.2-0.7-0.4-1.3-0.7-2c-0.2-0.7-0.5-1.3-0.8-1.9
			c-0.3-0.6-0.5-1.3-0.8-1.9c-0.3-0.6-0.6-1.3-0.9-1.9c-0.3-0.6-0.6-1.3-1-1.9l-1.1-1.9l-1.2-1.8c-0.4-0.6-0.8-1.2-1.3-1.8
			c-0.4-0.6-0.9-1.2-1.3-1.8c-0.5-0.6-0.9-1.2-1.4-1.7l-1.4-1.7L44.3,45c-0.5-0.6-1-1.1-1.5-1.7c-0.5-0.6-1-1.1-1.6-1.7L39.6,40
			c-0.6-0.5-1.1-1-1.7-1.5c-1.1-1-2.4-1.9-3.6-2.8l2-1.1c-0.1,1.2-0.1,2.4-0.1,3.6c-0.1,1.2,0.1,2.4,0.1,3.6
			c0.1,0.6,0.1,1.2,0.2,1.8c0.1,0.6,0.2,1.2,0.3,1.8c0.3,1.2,0.5,2.3,0.9,3.5c0.4,1.1,0.7,2.3,1.2,3.3c0.5,1.1,0.9,2.2,1.4,3.2
			c0.5,1,1,2.1,1.5,3.1c0.6,1,1,2,1.5,3c0.6,0.9,1,1.9,1.6,2.8l0.9,1.4c0.3,0.5,0.6,0.9,0.9,1.3c0.3,0.4,0.7,0.9,1,1.3
			c0.3,0.4,0.7,0.8,1.1,1.2c0.4,0.4,0.7,0.8,1.1,1.2c0.4,0.4,0.8,0.7,1.2,1.1c0.8,0.8,1.7,1.5,2.5,2.2c0.4,0.4,0.9,0.7,1.4,1
			c0.5,0.3,0.9,0.7,1.4,1c1,0.7,2,1.2,3,1.9c1,0.6,2.1,1.2,3.2,1.9l-0.2,0.8c-1.3,0-2.5-0.1-3.8-0.2c-1.2-0.2-2.5-0.4-3.8-0.8
			c-0.6-0.2-1.2-0.4-1.9-0.6c-0.6-0.2-1.2-0.4-1.8-0.7c-1.2-0.6-2.4-1.1-3.5-1.9c-0.6-0.4-1.1-0.7-1.7-1.1c-0.5-0.4-1-0.8-1.6-1.3
			c-0.5-0.4-1-0.9-1.5-1.3c-0.5-0.5-0.9-1-1.4-1.5c-1-1-1.7-2.1-2.5-3.2c-0.4-0.5-0.7-1.1-1.1-1.7c-0.3-0.6-0.6-1.2-0.9-1.8
			c-0.6-1.2-1-2.5-1.4-3.7c-0.4-1.3-0.6-2.6-0.9-3.8c-0.2-1.3-0.3-2.6-0.4-3.9c-0.1-1.3-0.1-2.6-0.2-3.8c-0.1-1.3,0-2.5,0-3.8
			c0-1.2,0-2.5,0-3.7c0-1.2-0.1-2.5-0.1-3.7c0-1.2-0.1-2.5-0.1-3.7l-0.1-2.4l2.2,1.2c1.4,0.8,2.8,1.5,4.2,2.3l2.1,1.1l2.1,1.2
			c1.4,0.8,2.8,1.7,4.1,2.7l2,1.5c0.6,0.5,1.3,1.1,1.9,1.6c0.6,0.5,1.2,1.1,1.8,1.7c0.6,0.6,1.2,1.2,1.7,1.8
			c0.5,0.6,1.1,1.2,1.6,1.9l1.6,2c1,1.4,2,2.7,2.8,4.2c0.9,1.5,1.7,3,2.4,4.5c0.4,0.8,0.7,1.6,1,2.4c0.1,0.4,0.3,0.8,0.4,1.2
			l0.3,1.3c0.5,1.7,0.8,3.4,1,5.2c0.2,1.8,0.2,3.6,0.1,5.4c-0.2,1.8-0.5,3.6-1.1,5.3c-0.5,1.8-1.4,3.4-2.5,4.9
			c-0.6,0.7-1.1,1.5-1.8,2.1c-0.6,0.7-1.4,1.2-2.1,1.8c-1.5,1-3.1,1.8-4.8,2.2c-0.8,0.3-1.7,0.3-2.5,0.5c-0.4,0.1-0.8,0-1.2,0
			l-1.2,0L49.4,91.3z"/>
	</g>
</g>
</svg>
