<svg xmlns="http://www.w3.org/2000/svg" viewBox="0 0 140.02 130.76"><defs><style>.a{fill:#939598;}.b{fill:#d1d3d4;}.c{fill:#231f20;}</style></defs><title>MINTLogo_Web</title><path class="a" d="M36.69,27.06C34.35,43,20.46,83,61.69,83,72.07,39.8,36.69,27.06,36.69,27.06Z"/><path class="b" d="M107.14,49.17c-14,2.4-33.16,6-40.06,36.29C101.74,96.35,107.14,49.17,107.14,49.17Z"/><path class="c" d="M61.74,82.76c0.51-.05,1-0.1,1.54-0.12a10.35,10.35,0,0,0,1.49-.14c1-.15,1.85-0.25,2.79-0.48,0.47-.1.93-0.2,1.38-0.28l1.36-.38c0.9-.22,1.79-0.53,2.67-0.83s1.74-.64,2.6-1,1.69-.74,2.54-1.08,1.65-.82,2.48-1.19S82.23,76.44,83,76s1.59-.91,2.4-1.34,1.57-.95,2.35-1.45c0.38-.25.79-0.49,1.16-0.76l1.1-.84,1.11-.84,1-.91c0.7-.61,1.46-1.17,2.12-1.83s1.46-1.23,2.08-1.94,1.36-1.36,2-2.11,1.16-1.54,1.72-2.33l0.75,1.55c-0.77-.21-1.54-0.39-2.32-0.56a15.37,15.37,0,0,0-2.35-.38c-0.79-.07-1.58-0.11-2.37-0.13a19.78,19.78,0,0,0-2.35.21c-0.39.06-.78,0.08-1.15,0.17l-1.12.29-1.1.29c-0.36.11-.7,0.26-1.05,0.39a15.86,15.86,0,0,0-2,.82c-0.32.14-.63,0.29-1,0.41s-0.59.34-.89,0.49-0.61.29-.89,0.46-0.56.37-.85,0.53L81,66.46l-0.4.31c-0.27.21-.54,0.41-0.82,0.61s-0.52.46-.78,0.69a10,10,0,0,0-.79.71c-0.49.54-1,1-1.53,1.6-1,1.1-2,2.33-3.11,3.54l-1.66,1.82c-0.59.59-1.18,1.19-1.83,1.74l-0.51-.31c0.17-.84.41-1.62,0.64-2.42s0.49-1.57.78-2.35,0.58-1.55.94-2.32c0.18-.38.34-0.77,0.53-1.15l0.62-1.13a19.38,19.38,0,0,1,3.22-4.27c0.34-.31.69-0.63,1-0.93l0.53-.45,0.59-.4c0.39-.27.79-0.51,1.19-0.76a10.56,10.56,0,0,1,1.28-.6c0.43-.18.87-0.36,1.31-0.5s0.9-.21,1.35-0.31a11.29,11.29,0,0,1,1.35-.23l1.35-.06c0.45,0,.89,0,1.33,0l1.31,0.12a25.66,25.66,0,0,1,2.55.31c0.83,0.16,1.66.25,2.48,0.38s1.63,0.29,2.44.39,1.62,0.23,2.43.34,1.62,0.21,2.45.28l1.39,0.12L102,62.64c-0.42.93-.82,1.88-1.22,2.84s-0.91,1.87-1.36,2.82a10.9,10.9,0,0,1-.77,1.38c-0.28.45-.55,0.9-0.85,1.34a20.41,20.41,0,0,1-1.91,2.54c-0.35.4-.69,0.81-1,1.2l-1.14,1.11L92.6,77c-0.39.36-.81,0.69-1.21,1A25.92,25.92,0,0,1,88.85,80a29.41,29.41,0,0,1-5.59,3.11,26.3,26.3,0,0,1-3,1.1,27.48,27.48,0,0,1-3.1.8,25.65,25.65,0,0,1-3.17.47,20.82,20.82,0,0,1-3.2.12L69.2,85.5c-0.53,0-1.07-.14-1.59-0.22A15.82,15.82,0,0,1,66,85l-1.57-.44A7.47,7.47,0,0,1,63,84c-0.47-.21-0.93-0.43-1.39-0.67Z"/><path class="c" d="M64.42,97.46c0.41,0.78.77,1.6,1.15,2.35a11.36,11.36,0,0,0,1.31,2.09,9.15,9.15,0,0,0,3.87,2.7,21.38,21.38,0,0,0,4.8,1.17,44.3,44.3,0,0,0,5,.4h0.51l0.49,0.45q3.75,3.44,7.46,6.93l7.43,7-4.2,1.93-1.9-16L90,103.57l3.1-.38,1.53-.21,1.57-.27c1-.2,2.06-0.42,3-0.69,0.49-.13,1-0.28,1.44-0.43,0.24-.07.45-0.16,0.68-0.24l0.08,0,0,0h0l-0.1,0h0l0.19-.08,0.39-.16c0.25-.11.3-0.17,0.46-0.24l0.5-.31a9.25,9.25,0,0,0,1-.74,13.14,13.14,0,0,0,3-4.3,21.09,21.09,0,0,0,1-2.67c0.14-.46.27-0.93,0.38-1.4s0.22-1,.26-1.29L109,87.75l2.48-.65a32.21,32.21,0,0,0,6.18-2.23,20.09,20.09,0,0,0,5.05-3.48,18.62,18.62,0,0,0,3.59-4.8,26.17,26.17,0,0,0,2.16-5.93,44.07,44.07,0,0,0,1-6.6l0.07-.85,0-.21V62.91l0-.46c0-.59.06-1.27,0-1.79l0-1.51-0.13-1.62a38.27,38.27,0,0,0-1.24-6.44,45.68,45.68,0,0,0-2.34-6.22,48.59,48.59,0,0,0-17.64-20,53.16,53.16,0,0,0-5.95-3.3,52.42,52.42,0,0,0-6.36-2.44,48.73,48.73,0,0,0-6.66-1.56,56,56,0,0,0-6.83-.68l-1.84-.1-0.95-1.31A16.87,16.87,0,0,0,74,10.58a24.28,24.28,0,0,0-7.46-2.49,39.2,39.2,0,0,0-8.32-.45,58.2,58.2,0,0,0-8.54,1A79.8,79.8,0,0,0,33,13.87a68.43,68.43,0,0,0-7.82,4c-1.25.75-2.47,1.55-3.63,2.4-0.58.42-1.15,0.87-1.7,1.32s-1.12,1-1.66,1.44a45,45,0,0,0-5.85,6.49A36.56,36.56,0,0,0,8,37.06,31.72,31.72,0,0,0,5.66,45.4,26.16,26.16,0,0,0,6,54a25.62,25.62,0,0,0,3.12,8,33,33,0,0,0,5.37,6.72A44.62,44.62,0,0,0,21.33,74,59.11,59.11,0,0,0,29,78.05l1.18,0.53,0.08,1.49a8.8,8.8,0,0,0,2,5,13,13,0,0,0,4.42,3.52,14.31,14.31,0,0,0,5.45,1.5,11.36,11.36,0,0,0,5.23-.88A4.32,4.32,0,0,0,48,88.89l0.73-.44c0.41-.24.81-0.53,1.26-0.79,0.85-.54,1.67-1.08,2.47-1.63a24.07,24.07,0,0,0,2.23-1.79,18,18,0,0,0,1.93-2,22.46,22.46,0,0,0,1.59-2.35,14.36,14.36,0,0,0,.64-1.32c0.21-.45.41-0.92,0.59-1.4a26.81,26.81,0,0,0,.87-3.08c0.25-1.08.43-2.22,0.63-3.4l0.79-.15a15,15,0,0,1,1.43,3.43,15.54,15.54,0,0,1,.57,3.79,18.76,18.76,0,0,1,0,2,19.67,19.67,0,0,1-.34,2,14.7,14.7,0,0,1-1.4,3.84,18.17,18.17,0,0,1-2.27,3.42,19.81,19.81,0,0,1-2.91,2.79,18.94,18.94,0,0,1-3.3,2.13c-0.56.3-1.17,0.54-1.8,0.81-0.3.11-.55,0.19-0.83,0.29l-1,.39a17.44,17.44,0,0,1-8.3.84,19.47,19.47,0,0,1-7.57-2.69A18.38,18.38,0,0,1,28.11,88a13.55,13.55,0,0,1-2.32-7.9l1.25,2A58.12,58.12,0,0,1,12.18,70.91a36,36,0,0,1-5.51-7.6,30.91,30.91,0,0,1-3.14-8.86A32.5,32.5,0,0,1,5.68,36.08a46,46,0,0,1,4.46-8.15,51,51,0,0,1,6-7.12c0.55-.55,1.13-1.11,1.67-1.61s1.18-1.05,1.79-1.55c1.21-1,2.47-1.91,3.75-2.77a79.06,79.06,0,0,1,8-4.72,85.39,85.39,0,0,1,17.28-6.7A51.56,51.56,0,0,1,67.49,1.74a28.84,28.84,0,0,1,9.7,2.79,23.9,23.9,0,0,1,8.13,6.6L82.53,9.72a60,60,0,0,1,7.81.54A56.2,56.2,0,0,1,98,11.83a60.09,60.09,0,0,1,7.43,2.61,59.13,59.13,0,0,1,7,3.63,56.43,56.43,0,0,1,6.44,4.58,55,55,0,0,1,5.76,5.43,53.59,53.59,0,0,1,5,6.21,51.75,51.75,0,0,1,4,6.92,48.53,48.53,0,0,1,2.86,7.52,46.85,46.85,0,0,1,1.51,8c0.05,0.68.11,1.35,0.15,2l0,2.16c0,0.7-.05,1.25-0.07,1.88l0,0.46,0,0.37,0,0.24-0.09,1a50.79,50.79,0,0,1-1.37,7.89,34.35,34.35,0,0,1-3.08,7.76,26.11,26.11,0,0,1-5.38,6.76,27.94,27.94,0,0,1-7.19,4.56,39.72,39.72,0,0,1-7.73,2.46l2.8-3c-0.15.81-.3,1.35-0.48,2s-0.37,1.23-.58,1.83a28.21,28.21,0,0,1-1.54,3.55,19.7,19.7,0,0,1-5.09,6.33,15.9,15.9,0,0,1-1.78,1.22c-0.32.18-.63,0.35-1,0.52s-0.79.37-1.07,0.47l-0.4.14-0.2.07-0.16.06-0.06,0-0.12,0c-0.31.09-.62,0.2-0.92,0.27-0.61.17-1.22,0.31-1.82,0.44-1.2.26-2.38,0.45-3.56,0.61l-1.77.21c-0.6.06-1.16,0.11-1.82,0.15l2.76-3.25L97.18,122,97.52,129,93,124l-6.83-7.54q-3.42-3.77-6.8-7.57l1,0.47a47.14,47.14,0,0,1-5.31-.95,22.32,22.32,0,0,1-5.17-1.88,10.59,10.59,0,0,1-4.19-3.74,12.67,12.67,0,0,1-1.16-2.5c-0.3-.85-0.54-1.67-0.84-2.47Z"/><path class="c" d="M64.37,97.48c0.41,0.78.77,1.6,1.15,2.35a11.44,11.44,0,0,0,1.32,2.1,9.25,9.25,0,0,0,3.89,2.74,21.59,21.59,0,0,0,4.81,1.19,44.35,44.35,0,0,0,5.05.42l0.48,0,0.45,0.42q3.74,3.46,7.41,7l7.38,7-3.77,1.73-1.76-16-0.28-2.54,2.68-.29,1.55-.2,1.58-.26c1-.19,2.09-0.41,3.09-0.66,0.5-.13,1-0.27,1.47-0.42,0.24-.07.47-0.16,0.7-0.24l0.09,0,0,0h0l-0.09,0h0l0.19-.08,0.39-.16c0.25-.11.33-0.17,0.51-0.25l0.54-.32a9.72,9.72,0,0,0,1-.77,13.63,13.63,0,0,0,3.23-4.44,21.63,21.63,0,0,0,1.1-2.74c0.15-.47.29-1,0.41-1.43s0.24-1,.29-1.35l0.32-2,2-.49a33.06,33.06,0,0,0,6.34-2.2,21,21,0,0,0,5.3-3.54,19.58,19.58,0,0,0,3.84-5,27.66,27.66,0,0,0,2.38-6.11,45.55,45.55,0,0,0,1.24-6.75l0.09-.87,0-.22V63a0.5,0.5,0,0,1,0,.06V63l0-.46c0-.6.09-1.25,0.09-1.8V59.08l-0.09-1.69a39.74,39.74,0,0,0-1.07-6.76,47.61,47.61,0,0,0-2.24-6.56,45.19,45.19,0,0,0-3.24-6.21,47.34,47.34,0,0,0-4.14-5.72,46.26,46.26,0,0,0-4.95-5.1,50.84,50.84,0,0,0-5.64-4.37,51.87,51.87,0,0,0-6.24-3.52,53,53,0,0,0-6.69-2.6,49.34,49.34,0,0,0-7-1.6,53.76,53.76,0,0,0-7.18-.62l-0.52,0-0.31-.4a19.31,19.31,0,0,0-6.53-5.4,24.37,24.37,0,0,0-8.24-2.44,47.35,47.35,0,0,0-17.4,1.46,72.63,72.63,0,0,0-8.4,2.7,82.15,82.15,0,0,0-8,3.61,71.11,71.11,0,0,0-7.53,4.45c-1.19.81-2.35,1.67-3.44,2.57-0.54.45-1.08,0.92-1.57,1.38s-1.05,1-1.55,1.51a46.25,46.25,0,0,0-5.4,6.57,40.43,40.43,0,0,0-3.94,7.38A27.49,27.49,0,0,0,7.94,53.6,27.42,27.42,0,0,0,15.8,67.36a51.16,51.16,0,0,0,13.87,9.43l1.46,0.7,0.46,1.65A15.31,15.31,0,0,0,33.9,84a11.63,11.63,0,0,0,3.84,3.4,13.47,13.47,0,0,0,5,1.58,12,12,0,0,0,5-.46l0.09,0,0.2-.07,0.4-.15c0.29-.1.46-0.18,0.68-0.26,0.4-.17.88-0.37,1.31-0.56A24.12,24.12,0,0,0,53,86.13a14.84,14.84,0,0,0,2.23-1.68,14.64,14.64,0,0,0,1.92-2A16.91,16.91,0,0,0,58.65,80a20.37,20.37,0,0,0,1.14-2.82A24.28,24.28,0,0,0,60.52,74c0.18-1.09.31-2.21,0.41-3.37l0.69-.13a17.85,17.85,0,0,1,1.75,7,16,16,0,0,1-.28,3.82,15.65,15.65,0,0,1-1.18,3.77,18.19,18.19,0,0,1-2.06,3.46,21.32,21.32,0,0,1-2.77,2.92,20.84,20.84,0,0,1-3.22,2.32,17.23,17.23,0,0,1-1.75.93l-0.89.41-0.39.17-0.19.08-0.31.12a16.58,16.58,0,0,1-4.24.93,21,21,0,0,1-4.15,0A20.5,20.5,0,0,1,34.07,94a19.14,19.14,0,0,1-6.22-5.6A21.89,21.89,0,0,1,24.5,81l1.92,2.35A58.12,58.12,0,0,1,10.83,72.24a37.92,37.92,0,0,1-5.89-7.95,31.53,31.53,0,0,1-3.39-9.45,31.14,31.14,0,0,1-.19-10,36,36,0,0,1,2.73-9.44A41.68,41.68,0,0,1,9,27.1a49.56,49.56,0,0,1,6.41-7c0.59-.54,1.22-1.08,1.78-1.54s1.26-1,1.91-1.49c1.29-.94,2.6-1.8,3.94-2.6a75.43,75.43,0,0,1,8.26-4.25A86.1,86.1,0,0,1,48.79,4.56a62.72,62.72,0,0,1,9.15-1.2,43.86,43.86,0,0,1,9.27.38,29,29,0,0,1,8.92,2.84,21.48,21.48,0,0,1,7.19,6.08l-0.82-.42a62.54,62.54,0,0,1,7.46.61,55.79,55.79,0,0,1,7.34,1.53,59.67,59.67,0,0,1,7.1,2.45,60.65,60.65,0,0,1,6.71,3.42,53.91,53.91,0,0,1,6.24,4.27A55.85,55.85,0,0,1,123,29.6a51.38,51.38,0,0,1,4.91,5.85,49.73,49.73,0,0,1,4,6.55,46.48,46.48,0,0,1,3,7.17,45.23,45.23,0,0,1,1.67,7.66c0.07,0.66.15,1.31,0.19,2l0.07,2.06c0,0.68,0,1.24,0,1.87v0.78l0,0.24-0.07,1a48.88,48.88,0,0,1-1.17,7.74,32.65,32.65,0,0,1-2.86,7.58,25.13,25.13,0,0,1-5.13,6.59,27.18,27.18,0,0,1-6.94,4.5,39.12,39.12,0,0,1-7.56,2.5l2.29-2.47c-0.14.77-.28,1.31-0.44,1.94s-0.35,1.2-.55,1.8a27.56,27.56,0,0,1-1.47,3.49,19.07,19.07,0,0,1-4.9,6.19,15.36,15.36,0,0,1-1.71,1.19l-0.93.51c-0.33.15-.75,0.35-1,0.45l-0.39.15-0.2.07-0.15.05-0.06,0-0.11,0c-0.3.09-.61,0.2-0.91,0.27-0.6.17-1.2,0.32-1.79,0.45-1.18.26-2.35,0.47-3.52,0.63l-1.76.22c-0.59.07-1.15,0.12-1.8,0.17L96,106l0.92,16.09,0.36,6.22-4.12-4.49-6.88-7.49q-3.44-3.74-6.84-7.53l0.93,0.43a47,47,0,0,1-5.3-.92,22.08,22.08,0,0,1-5.15-1.85,10.48,10.48,0,0,1-4.18-3.7,12.63,12.63,0,0,1-1.16-2.48c-0.3-.84-0.54-1.66-0.84-2.47Z"/><path class="c" d="M61.74,82.76c0.52-.07,1-0.13,1.54-0.16a11.35,11.35,0,0,0,1.5-.16c1-.16,1.84-0.27,2.78-0.49l1.38-.26c0.46-.12.91-0.24,1.37-0.35,0.91-.19,1.8-0.48,2.69-0.74s1.76-.57,2.64-0.85,1.73-.66,2.61-0.95,1.73-.67,2.61-1,1.76-.64,2.67-0.93,1.79-.66,2.7-1a19.81,19.81,0,0,0,2.62-1.26c0.42-.24.86-0.47,1.26-0.74s0.78-.57,1.16-0.87,0.75-.61,1.13-0.92,0.68-.69,1-1a15.9,15.9,0,0,0,1.84-2.24c0.28-.39.54-0.81,0.8-1.21a8,8,0,0,0,.72-1.26c0.41-.88.88-1.71,1.22-2.61s0.66-1.79,1-2.65l1.58,3.29c-0.78,0-1.57-.07-2.34-0.14s-1.54-.17-2.3-0.17L93.68,64c-0.75,0-1.49.06-2.22,0.07a17.57,17.57,0,0,0-2.16.19l-1.06.11c-0.35,0-.68.14-1,0.2s-0.67.12-1,.18a10,10,0,0,0-1,.27l-1,.25c-0.31.1-.6,0.25-0.91,0.36a9.61,9.61,0,0,0-.91.36c-0.28.16-.57,0.32-0.86,0.46l-0.44.22-0.41.28c-0.27.19-.56,0.37-0.85,0.56s-0.54.43-.81,0.65a9.82,9.82,0,0,0-.82.68c-0.51.52-1.08,1-1.59,1.55s-1.07,1.1-1.58,1.71-1.07,1.19-1.6,1.8a49,49,0,0,1-3.43,3.59l-0.51-.31c0.2-.82.45-1.6,0.69-2.39s0.49-1.57.79-2.35,0.56-1.56.92-2.33,0.7-1.54,1.11-2.31a22.77,22.77,0,0,1,1.38-2.26,23.34,23.34,0,0,1,1.73-2.14c0.33-.33.67-0.66,1-1l0.52-.48,0.58-.43c0.38-.29.78-0.56,1.18-0.83s0.84-.46,1.26-0.7,0.86-.45,1.3-0.63l1.34-.47a14.8,14.8,0,0,1,2.73-.65c0.46-.07.92-0.16,1.37-0.2L88.83,58l1.35,0c0.45,0,.88.05,1.32,0.07,0.87,0.07,1.75.12,2.61,0.24l2.53,0.42a21.09,21.09,0,0,1,2.47.55c0.82,0.21,1.62.46,2.42,0.7l3.28,1-1.69,2.34c-0.62.86-1.28,1.7-1.92,2.53S99.77,67.27,99.08,68s-1.47,1.45-2.18,2.19-1.46,1.43-2.19,2.13l-1.08,1.07c-0.38.34-.76,0.67-1.12,1s-0.73.71-1.09,1.08l-1.12,1c-0.73.73-1.47,1.47-2.25,2.15a30.25,30.25,0,0,1-2.41,2A20.68,20.68,0,0,1,83,82.52a18.77,18.77,0,0,1-2.87,1.33,24.7,24.7,0,0,1-3,.93,23.61,23.61,0,0,1-3.13.58,20.41,20.41,0,0,1-3.18.2c-0.53,0-1.06,0-1.59,0s-1.07-.12-1.59-0.19A13,13,0,0,1,66,85.08l-1.57-.45A7,7,0,0,1,63,84.06c-0.46-.21-0.92-0.46-1.38-0.71Z"/><path class="c" d="M49.12,91.61c0.7-.38,1.47-0.69,2.13-1.08a19.46,19.46,0,0,0,1.83-1.2c0.29-.22.59-0.41,0.86-0.65L54.71,88a5.86,5.86,0,0,0,.72-0.75c0.22-.26.46-0.49,0.65-0.77A15.34,15.34,0,0,0,58,83a16.39,16.39,0,0,0,.9-3.76A21.68,21.68,0,0,0,59,75.32a30.92,30.92,0,0,0-.56-4c-0.15-.66-0.28-1.33-0.49-2s-0.34-1.32-.58-2-0.42-1.31-.68-2-0.49-1.3-.77-1.95-0.52-1.3-.85-1.94-0.57-1.3-.92-1.92-0.63-1.28-1-1.9l-1.08-1.88L50.88,54c-0.39-.61-0.84-1.19-1.26-1.79S48.75,51,48.3,50.45s-0.9-1.17-1.38-1.73L45.51,47l-1.46-1.71c-0.47-.59-1-1.12-1.5-1.69s-1-1.14-1.55-1.67L39.38,40.3c-0.56-.52-1.13-1-1.71-1.54A42.37,42.37,0,0,0,34,35.94l2-1.12q-0.11,1.79-.14,3.59A30.41,30.41,0,0,0,36.07,42c0.06,0.6.1,1.19,0.18,1.79s0.2,1.18.32,1.76A27.89,27.89,0,0,0,37.44,49c0.38,1.13.72,2.26,1.18,3.35s0.89,2.16,1.38,3.21,1,2.06,1.48,3.07,1,2,1.53,3,1,1.95,1.61,2.85l0.88,1.37a10.89,10.89,0,0,0,.93,1.33c0.32,0.43.66,0.86,1,1.31s0.71,0.82,1.06,1.23,0.7,0.84,1.08,1.24,0.8,0.75,1.19,1.14a31.56,31.56,0,0,0,2.52,2.22,12.05,12.05,0,0,0,1.35,1c0.47,0.33.93,0.68,1.4,1,1,0.67,2,1.25,3,1.93s2.1,1.18,3.17,1.87L62,80.93c-1.26,0-2.54-.07-3.82-0.2a38.38,38.38,0,0,1-3.78-.79c-0.61-.2-1.24-0.39-1.86-0.61a12.36,12.36,0,0,1-1.83-.73,24.15,24.15,0,0,1-3.5-1.88C46.6,76.36,46,76,45.49,75.61s-1-.84-1.56-1.28-1-.86-1.51-1.35-0.91-1-1.37-1.49a26.15,26.15,0,0,1-2.46-3.2,12.08,12.08,0,0,1-1.05-1.71c-0.32-.59-0.65-1.17-0.94-1.77a34.27,34.27,0,0,1-1.43-3.7c-0.38-1.26-.62-2.55-0.89-3.82s-0.29-2.58-.44-3.85-0.09-2.56-.16-3.82,0-2.52,0-3.76,0-2.48,0-3.72-0.11-2.47-.09-3.7-0.05-2.46-.12-3.7L33.25,32.4l2.16,1.23c1.38,0.79,2.84,1.46,4.23,2.25L41.77,37l2.1,1.23C45.28,39.07,46.64,40,48,40.92l2,1.48c0.64,0.52,1.26,1.06,1.88,1.61s1.21,1.13,1.79,1.71,1.17,1.17,1.71,1.8S56.47,48.75,57,49.4l1.57,2c1,1.36,2,2.73,2.85,4.19a37.35,37.35,0,0,1,2.37,4.54,24.28,24.28,0,0,1,1,2.41c0.14,0.41.3,0.81,0.43,1.22L65.51,65a29.27,29.27,0,0,1,1,5.17,29.76,29.76,0,0,1,.07,5.35,24.17,24.17,0,0,1-1.12,5.35A18.78,18.78,0,0,1,63,85.8a15.69,15.69,0,0,1-1.8,2.12,14.38,14.38,0,0,1-2.09,1.77,14.81,14.81,0,0,1-4.8,2.21,14.07,14.07,0,0,1-2.54.46,6.69,6.69,0,0,1-1.22,0l-1.21,0Z"/></svg>