<?xml version="1.0" encoding="utf-8"?>
<!-- Generator: Adobe Illustrator 19.2.0, SVG Export Plug-In . SVG Version: 6.00 Build 0)  -->
<svg version="1.1" id="Layer_1" xmlns="http://www.w3.org/2000/svg" xmlns:xlink="http://www.w3.org/1999/xlink" x="0px" y="0px"
	 viewBox="0 0 365.1 131.4" style="enable-background:new 0 0 365.1 131.4;" xml:space="preserve">
<g>
	<g>
		<path d="M43.2,70.1V38L31.5,61.3h-6.6L13.3,38v32.1H0.9V16.5h13.4l13.9,28l14-28h13.4v53.6H43.2z"/>
		<path d="M73.3,70.1V16.5h12.4v53.6H73.3z"/>
		<path d="M115.9,39.4v30.6h-12.4V16.5h9.7l25,31.5V16.5h12.4v53.6h-10L115.9,39.4z"/>
		<path d="M209.1,27.4h-16.3v42.7h-12.4V27.4h-16.4V16.5h45V27.4z"/>
	</g>
	<g>
		<g>
			<path d="M23.5,99.8H19v-8.3c0-1-0.2-1.7-0.5-2.1c-0.4-0.4-0.8-0.7-1.4-0.7c-0.3,0-0.6,0.1-0.9,0.2c-0.3,0.1-0.6,0.3-0.9,0.5
				c-0.3,0.2-0.5,0.5-0.7,0.8c-0.2,0.3-0.4,0.7-0.5,1v8.4H9.7v-8.3c0-1-0.2-1.7-0.5-2.1c-0.4-0.4-0.8-0.7-1.4-0.7
				c-0.6,0-1.2,0.2-1.7,0.7s-1,1.1-1.2,1.9v8.4H0.3V85.1h4v2.5c0.5-0.9,1.3-1.6,2.2-2s2-0.7,3.2-0.7c0.6,0,1.2,0.1,1.6,0.2
				s0.9,0.4,1.2,0.6c0.3,0.3,0.6,0.6,0.8,0.9c0.2,0.3,0.4,0.7,0.4,1.1c0.6-0.9,1.3-1.6,2.2-2.1c0.9-0.5,2-0.7,3.1-0.7
				c0.9,0,1.7,0.2,2.3,0.5c0.6,0.3,1,0.8,1.3,1.3c0.3,0.5,0.5,1.2,0.6,1.8s0.2,1.3,0.2,1.9V99.8z"/>
			<path d="M34.2,100.1c-1.2,0-2.3-0.2-3.3-0.6c-1-0.4-1.8-0.9-2.5-1.6c-0.7-0.7-1.2-1.5-1.6-2.4c-0.4-0.9-0.5-1.9-0.5-2.8
				c0-1.1,0.2-2.1,0.5-3c0.4-0.9,0.9-1.8,1.5-2.5c0.7-0.7,1.5-1.3,2.5-1.7c1-0.4,2.1-0.6,3.3-0.6c1.2,0,2.4,0.2,3.3,0.6
				s1.8,1,2.5,1.7c0.7,0.7,1.2,1.5,1.5,2.4c0.3,0.9,0.5,1.9,0.5,2.9c0,0.3,0,0.5,0,0.8c0,0.3,0,0.5-0.1,0.7H31
				c0.1,1,0.4,1.7,1.1,2.3c0.6,0.5,1.4,0.8,2.2,0.8c0.7,0,1.3-0.2,1.9-0.5c0.6-0.3,1-0.7,1.2-1.3l3.8,1.1c-0.6,1.2-1.5,2.1-2.7,2.8
				C37.3,99.7,35.9,100.1,34.2,100.1z M37.3,91.1c-0.1-0.9-0.4-1.7-1-2.2s-1.3-0.8-2.2-0.8c-0.9,0-1.6,0.3-2.2,0.8
				c-0.6,0.6-0.9,1.3-1,2.2H37.3z"/>
			<path d="M68,99.8h-4.5v-8.3c0-1-0.2-1.7-0.5-2.1c-0.4-0.4-0.8-0.7-1.4-0.7c-0.3,0-0.6,0.1-0.9,0.2c-0.3,0.1-0.6,0.3-0.9,0.5
				c-0.3,0.2-0.5,0.5-0.7,0.8c-0.2,0.3-0.4,0.7-0.5,1v8.4h-4.5v-8.3c0-1-0.2-1.7-0.5-2.1c-0.4-0.4-0.8-0.7-1.4-0.7
				c-0.6,0-1.2,0.2-1.7,0.7s-1,1.1-1.2,1.9v8.4h-4.5V85.1h4v2.5c0.5-0.9,1.3-1.6,2.2-2s2-0.7,3.2-0.7c0.6,0,1.2,0.1,1.6,0.2
				s0.9,0.4,1.2,0.6c0.3,0.3,0.6,0.6,0.8,0.9c0.2,0.3,0.4,0.7,0.4,1.1c0.6-0.9,1.3-1.6,2.2-2.1c0.9-0.5,2-0.7,3.1-0.7
				c0.9,0,1.7,0.2,2.3,0.5c0.6,0.3,1,0.8,1.3,1.3c0.3,0.5,0.5,1.2,0.6,1.8s0.2,1.3,0.2,1.9V99.8z"/>
			<path d="M78.6,100.1c-1.2,0-2.4-0.2-3.3-0.6c-1-0.4-1.8-1-2.5-1.7s-1.2-1.5-1.5-2.4c-0.3-0.9-0.5-1.9-0.5-2.9s0.2-2,0.5-2.9
				c0.3-0.9,0.9-1.7,1.5-2.4s1.5-1.3,2.5-1.7c1-0.4,2.1-0.6,3.3-0.6s2.4,0.2,3.3,0.6c1,0.4,1.8,1,2.5,1.7c0.7,0.7,1.2,1.5,1.5,2.4
				c0.4,0.9,0.5,1.9,0.5,2.9s-0.2,2-0.5,2.9c-0.3,0.9-0.9,1.7-1.5,2.4s-1.5,1.3-2.5,1.7C81,99.9,79.9,100.1,78.6,100.1z M75.3,92.5
				c0,1.2,0.3,2.1,0.9,2.8c0.6,0.7,1.4,1,2.4,1c0.5,0,0.9-0.1,1.3-0.3s0.7-0.4,1-0.8c0.3-0.3,0.5-0.7,0.7-1.2c0.2-0.5,0.3-1,0.3-1.6
				c0-1.2-0.3-2.1-0.9-2.8c-0.6-0.7-1.4-1-2.3-1c-0.5,0-0.9,0.1-1.3,0.3c-0.4,0.2-0.7,0.4-1,0.8c-0.3,0.3-0.5,0.7-0.7,1.2
				S75.3,91.9,75.3,92.5z"/>
			<path d="M98.7,89c-1.1,0-2.1,0.2-2.9,0.5c-0.9,0.3-1.5,0.8-1.9,1.5v8.8h-4.5V85.1h4.1v3c0.5-1,1.2-1.8,1.9-2.3
				c0.8-0.6,1.6-0.8,2.5-0.9c0.2,0,0.4,0,0.4,0s0.2,0,0.3,0V89z"/>
			<path d="M101.4,102c0.4,0.1,0.7,0.2,1,0.3s0.6,0.1,0.9,0.1c0.5,0,1-0.2,1.3-0.6c0.3-0.4,0.6-1,0.8-2l-5.6-14.7h4.6l3.4,10.9
				l2.9-10.9h4.2l-5.6,17.1c-0.4,1.2-1.1,2.2-2.1,3c-1,0.8-2.2,1.1-3.6,1.1c-0.4,0-0.8,0-1.1-0.1c-0.4-0.1-0.8-0.2-1.2-0.3V102z"/>
			<path d="M123,92.5c0-1,0.2-2,0.5-2.9c0.4-0.9,0.9-1.7,1.5-2.4c0.7-0.7,1.5-1.3,2.5-1.7c1-0.4,2.1-0.6,3.3-0.6
				c1.7,0,3.1,0.4,4.3,1.1c1.2,0.7,2,1.7,2.6,2.8l-4.4,1.3c-0.6-0.9-1.4-1.4-2.5-1.4c-0.9,0-1.7,0.3-2.3,1c-0.6,0.7-0.9,1.6-0.9,2.8
				c0,0.6,0.1,1.1,0.3,1.6s0.4,0.9,0.7,1.2c0.3,0.3,0.6,0.6,1,0.8c0.4,0.2,0.8,0.3,1.3,0.3c0.6,0,1.1-0.1,1.5-0.4
				c0.5-0.3,0.8-0.6,1-1l4.4,1.3c-0.5,1.1-1.4,2.1-2.6,2.8c-1.2,0.7-2.6,1.1-4.3,1.1c-1.2,0-2.3-0.2-3.3-0.6c-1-0.4-1.8-1-2.5-1.7
				c-0.7-0.7-1.2-1.5-1.6-2.4C123.2,94.4,123,93.5,123,92.5z"/>
			<path d="M140.5,79.4h4.5v15.2c0,1.1,0.5,1.7,1.4,1.7c0.2,0,0.5,0,0.7-0.1c0.3-0.1,0.5-0.2,0.7-0.3l0.6,3.4
				c-0.6,0.3-1.2,0.5-1.9,0.6c-0.7,0.1-1.4,0.2-2,0.2c-1.3,0-2.3-0.3-3-1c-0.7-0.7-1-1.6-1-2.9V79.4z"/>
			<path d="M150.6,83.5v-4.1h4.5v4.1H150.6z M150.6,99.8V85.1h4.5v14.7H150.6z"/>
			<path d="M173,99.8h-4.5v-8.3c0-1-0.2-1.7-0.5-2.1c-0.4-0.4-0.8-0.7-1.4-0.7c-0.3,0-0.6,0.1-1,0.2c-0.3,0.1-0.6,0.3-0.9,0.5
				c-0.3,0.2-0.6,0.5-0.8,0.8c-0.2,0.3-0.4,0.7-0.5,1v8.4h-4.5V85.1h4v2.5c0.5-0.9,1.3-1.6,2.3-2c1-0.5,2.1-0.7,3.4-0.7
				c1,0,1.7,0.2,2.3,0.5c0.6,0.3,1,0.8,1.3,1.3c0.3,0.5,0.5,1.2,0.6,1.8c0.1,0.7,0.2,1.3,0.2,1.9V99.8z"/>
			<path d="M176.7,83.5v-4.1h4.5v4.1H176.7z M176.7,99.8V85.1h4.5v14.7H176.7z"/>
			<path d="M184.1,92.5c0-1,0.2-2,0.5-2.9c0.4-0.9,0.9-1.7,1.5-2.4c0.7-0.7,1.5-1.3,2.5-1.7c1-0.4,2.1-0.6,3.3-0.6
				c1.7,0,3.1,0.4,4.3,1.1c1.2,0.7,2,1.7,2.6,2.8l-4.4,1.3c-0.6-0.9-1.4-1.4-2.5-1.4c-0.9,0-1.7,0.3-2.3,1c-0.6,0.7-0.9,1.6-0.9,2.8
				c0,0.6,0.1,1.1,0.3,1.6s0.4,0.9,0.7,1.2c0.3,0.3,0.6,0.6,1,0.8c0.4,0.2,0.8,0.3,1.3,0.3c0.6,0,1.1-0.1,1.5-0.4
				c0.5-0.3,0.8-0.6,1-1l4.4,1.3c-0.5,1.1-1.4,2.1-2.6,2.8c-1.2,0.7-2.6,1.1-4.3,1.1c-1.2,0-2.3-0.2-3.3-0.6c-1-0.4-1.8-1-2.5-1.7
				c-0.7-0.7-1.2-1.5-1.6-2.4C184.2,94.4,184.1,93.5,184.1,92.5z"/>
			<path d="M207.4,100.1c-1.2,0-2.5-0.2-3.7-0.6c-1.2-0.4-2.2-1-3.1-1.7l1.6-2.7c0.9,0.6,1.8,1.1,2.6,1.4c0.8,0.3,1.7,0.5,2.4,0.5
				c0.6,0,1-0.1,1.3-0.3c0.3-0.2,0.5-0.5,0.5-0.9s-0.2-0.7-0.6-0.9c-0.4-0.2-1.1-0.5-2.1-0.7c-1-0.3-1.8-0.5-2.5-0.8
				c-0.7-0.3-1.2-0.6-1.7-0.9c-0.4-0.3-0.7-0.7-0.9-1.1s-0.3-0.9-0.3-1.5c0-0.7,0.1-1.4,0.4-2c0.3-0.6,0.7-1.1,1.2-1.6
				c0.5-0.4,1.1-0.8,1.9-1c0.7-0.2,1.5-0.4,2.3-0.4c1.1,0,2.1,0.1,3.1,0.4c1,0.3,1.9,0.8,2.8,1.6l-1.7,2.7c-0.8-0.6-1.6-1-2.2-1.3
				c-0.7-0.3-1.3-0.4-1.9-0.4c-0.5,0-0.9,0.1-1.2,0.3c-0.3,0.2-0.5,0.5-0.5,0.9c0,0.4,0.2,0.7,0.5,0.9s1,0.4,2,0.7
				c1,0.3,1.9,0.6,2.6,0.8c0.7,0.3,1.3,0.6,1.7,0.9c0.4,0.3,0.8,0.7,1,1.2c0.2,0.4,0.3,1,0.3,1.6c0,1.5-0.5,2.6-1.6,3.5
				C210.7,99.7,209.2,100.1,207.4,100.1z"/>
		</g>
	</g>
	<g>
		<path style="fill:#6D6E71;" d="M8.3,117.4c-0.2,0.3-0.4,0.5-0.5,0.5c-0.2,0-0.2,0-0.2,0.1s-0.1,0.2-0.3,0.2c-0.2,0-0.4,0-0.6-0.1
			c-0.2-0.1-0.3-0.2-0.3-0.3c0-0.1,0.1-0.4,0.2-1c0.1-0.6,0.1-0.9,0-1.1c-0.1-0.2-0.3-0.2-0.6,0c-0.6,0.4-1.1,0.9-1.4,1.5
			s-0.6,1.4-0.8,2.3c-0.2,0.9-0.3,1.5-0.3,1.7c0,0.3,0.1,0.5,0.2,0.6c0.5,0.1,1,0.1,1.3-0.1c0.4-0.2,0.9-0.6,1.5-1.1
			c0,0,0.1-0.1,0.2-0.3c0.1-0.2,0.2-0.3,0.3-0.3c0.1-0.2,0.3-0.3,0.6-0.3h0.5c0.3,0.1,0.6,0.3,0.7,0.6c0.1,0.2,0.1,0.3,0,0.3
			l-0.1,0.1c0.1,0.1-0.2,0.6-0.9,1.3c-0.7,0.7-1.1,1.1-1.3,1.1c-0.2,0-0.3,0.1-0.3,0.2c0,0.1-0.3,0.2-0.8,0.5S4.7,124,4.4,124
			c-0.8,0.1-1.5,0-2.1-0.5c-0.7-0.5-1-1.1-1-1.9c-0.1-0.8,0.1-1.8,0.4-3.1s0.8-2.2,1.4-3c0.9-1.1,1.5-1.7,2-1.9
			c0.5-0.2,1-0.3,1.5-0.3c0.9,0.2,1.4,0.5,1.4,0.9l0.1,0.1c0.2,0,0.3,0.3,0.5,0.8c0.2,0.6,0.2,1,0.1,1.2
			C8.7,116.7,8.5,117.1,8.3,117.4z"/>
		<path style="fill:#6D6E71;" d="M14.3,115.2c0.8-0.8,1.6-1.2,2.3-1.4c1-0.2,1.7-0.2,2.1,0.3c0.7,0.3,1,0.9,1.1,1.9
			c0.1,1.5-0.3,3-1.4,4.6c-0.6,1-1.5,1.8-2.6,2.5c-0.4,0.3-1.2,0.5-2.3,0.6c-0.3,0-0.6-0.2-1-0.5c-0.8-0.8-1.1-1.6-1-2.2l0.1-0.6
			c-0.1-0.1-0.1-0.2-0.1-0.2c0-0.1,0.1-0.1,0.1-0.1c0.1,0,0.1-0.1,0.1-0.3c0-0.2,0-0.5,0.2-1c0.2-0.5,0.3-0.9,0.6-1.3
			C13.1,116.5,13.7,115.8,14.3,115.2z M17.2,118.7c0-0.1,0.1-0.2,0.1-0.4c0.1-0.2,0.1-0.4,0.2-0.5c0.1-0.1,0.1-0.4,0.1-0.8
			c0-0.4-0.1-0.7-0.2-0.8c-0.2-0.1-0.3-0.1-0.5-0.1c-0.1,0-0.3,0.2-0.6,0.3c-1.3,1.1-2.1,2.4-2.3,3.7c-0.1,0.4,0,0.8,0.1,1
			c0.1,0.2,0.4,0.3,0.7,0.2c0.3-0.1,0.6-0.3,0.9-0.6c0.3-0.3,0.4-0.5,0.5-0.5s0.2-0.2,0.2-0.2c0.1-0.1,0.1-0.2,0.2-0.3
			c0.1-0.1,0.1-0.2,0.1-0.3c0-0.1,0.1-0.2,0.1-0.3C17.1,118.9,17.2,118.8,17.2,118.7z"/>
		<path style="fill:#6D6E71;" d="M22.1,122.2c0-0.6,0.1-1.2,0.3-2c0.1-0.9,0.3-1.5,0.5-1.9c0.7-2.5,1.1-3.8,1.1-4.1
			c0.2-0.5,0.4-1.1,0.6-1.8c0.3-0.8,0.5-1.3,0.5-1.6c0.1-0.3,0.2-0.8,0.4-1.5s0.4-1.2,0.5-1.4c0.3-0.4,0.4-0.7,0.5-0.9
			c0-0.1,0.2-0.2,0.5-0.2c0.3-0.1,0.5,0,0.6,0.1c0.1,0,0.2,0.1,0.4,0.4s0.3,0.6,0.3,0.8c0,0.2-0.1,0.3-0.1,0.5
			c-0.1,0.1-0.3,0.4-0.5,1c-0.2,0.9-0.4,1.5-0.6,1.8S27,111.9,27,112c0,0.1-0.2,0.5-0.4,1c-0.2,0.6-0.4,1.3-0.7,2.2
			c-0.3,0.9-0.5,1.5-0.6,1.7c-0.1,0.2-0.3,0.8-0.4,1.7c-0.3,0.8-0.4,1.3-0.4,1.4c-0.1,0.2-0.1,0.5-0.2,1.1c-0.1,0.5-0.2,0.9-0.3,1.1
			c0,0.3-0.2,0.6-0.4,0.9c-0.2,0.3-0.5,0.3-0.7,0.2C22.4,122.9,22.1,122.6,22.1,122.2z"/>
		<path style="fill:#6D6E71;" d="M27.7,121.1c0.4-2.2,0.7-3.5,0.9-4c0.1-0.3,0.2-0.6,0.3-0.9c0.5-1.7,1-2.9,1.4-3.5
			c0,0,0-0.1,0.1-0.2c0-0.1,0.1-0.2,0.1-0.2c0-0.3,0.1-0.5,0.2-0.7c0.2-0.3,0.4-0.6,0.5-0.9l0.7-1.5c0.2-0.5,0.4-0.9,0.8-1l0,0
			c0.1-0.1,0.2-0.3,0.5-0.4s0.4-0.2,0.6-0.2c0.5,0,0.7,0.3,0.7,0.8c0,0.5-0.1,0.8-0.2,1h0c-0.2,0.6-0.4,1-0.4,1.1
			c-0.1,0.1-0.5,0.8-1.1,2.2c-0.8,1.6-1.2,2.6-1.4,3.2c0,0.1-0.1,0.2-0.2,0.5c-0.1,0.2-0.1,0.4-0.2,0.4l-0.4,1.7l-0.1,0.6
			c-0.3,0.8-0.4,1.3-0.5,1.4c-0.1,0.2-0.1,0.4-0.1,0.5c0,0.1-0.1,0.3-0.2,0.6c-0.3,0.9-0.4,1.6-0.4,2.2l0,0.1
			c-0.1,0.4-0.2,0.7-0.3,0.9c-0.2,0.2-0.4,0.3-0.6,0.2c-0.5-0.2-0.7-0.6-0.8-1.3S27.5,122,27.7,121.1z"/>
		<path style="fill:#6D6E71;" d="M43.2,121.6c-0.2,0.4-0.5,0.7-0.9,1s-0.8,0.4-1.1,0.4s-0.6-0.2-0.9-0.5c-0.3-0.4-0.6-1-0.8-1.9
			l-0.9,0.9c-0.1,0.1-0.3,0.3-0.4,0.5c-0.4,0.3-0.6,0.6-0.6,0.6c-0.1,0.2-0.6,0.5-1.4,0.9c-0.2,0.1-0.5,0.1-0.8,0
			c-0.3-0.1-0.5-0.1-0.5-0.2s0-0.1,0-0.1c0,0,0,0-0.1,0c-0.3-0.3-0.6-0.5-0.8-0.6c-0.2-0.3-0.3-0.6-0.3-0.9c0-0.3,0.1-0.9,0.3-1.8
			c0-1,0.5-2.2,1.5-3.5c1-1.3,1.9-2.3,2.7-2.8c0.2-0.2,0.6-0.4,1-0.4c0.4,0,0.7,0.1,1,0.2c0.3,0.2,0.6,0.5,0.9,0.9
			c0.3,0.5,0.6,0.9,0.7,1.3c0,0,0,0.2,0.1,0.5c0.1,0.3,0.1,0.5,0.1,0.5c0,0,0,0.4,0,1c-0.2,0.7-0.3,1.4-0.3,2c0,0.3,0,0.6,0.1,0.7
			c0.1,0.1,0.3,0.1,0.6,0c0.3-0.1,0.6-0.1,0.8,0.2C43.3,120.9,43.4,121.2,43.2,121.6z M35.9,120.6c0,0.6,0.3,0.7,0.9,0.4
			c0.4-0.2,0.7-0.5,0.9-0.8c0.3-0.4,0.7-1,1.1-1.7c0.5-0.7,0.8-1.3,0.9-1.8c-0.2-0.6-0.4-0.9-0.6-1c-0.5,0-1.1,0.6-1.9,1.8
			c-0.4,0.6-0.8,1.2-1,1.9C36,120,35.9,120.5,35.9,120.6z"/>
		<path style="fill:#6D6E71;" d="M47.4,114.6l0.3-0.9c0.1-0.1,0.2-0.5,0.5-1.2s0.4-1.3,0.6-1.7c0.6-1.4,1.1-2.5,1.3-3.2
			c0.1-0.2,0.2-0.4,0.4-0.6c0.3-0.5,0.5-0.8,0.6-0.9c0.1,0,0.4,0.1,0.8,0.3c0.4,0.2,0.7,0.4,0.8,0.6c0.1,0.1,0.1,0.3,0.1,0.5
			c-0.1,0.2-0.2,0.6-0.4,1.1c-0.2,0.5-0.4,0.8-0.4,0.9c-0.1,0.1-0.1,0.3-0.2,0.5c-0.1,0.2-0.3,0.6-0.5,1.2c-0.3,0.6-0.5,1.2-0.8,2
			c-0.3,0.7-0.5,1.4-0.7,2.1c-0.2,0.7-0.4,1.1-0.4,1.3l-0.1,0.6l0.7-0.8c0.6-0.6,1.2-1.1,1.8-1.3c1-0.4,1.8-0.7,2.4-0.7
			c0.7,0,1.3,0.5,1.8,1.4c0.2,0.4,0.3,0.9,0.2,1.4c-0.1,0.6-0.2,1.1-0.4,1.5c-0.3,0.2-0.4,0.4-0.4,0.6c0,0.2-0.4,0.8-1.3,1.8
			c-0.4,0.5-1,1-1.7,1.4c-0.7,0.5-1.2,0.8-1.5,0.9c-0.3,0.1-0.5,0.2-0.7,0.2c-0.4,0.1-0.7,0.1-0.8,0.2c-0.6-0.1-1-0.4-1.2-0.9
			c-0.2-0.2-0.3-0.4-0.3-0.6c0.2,0,0.3,0,0.4-0.1c0-0.1,0.1-0.1,0.3-0.1c0.9,0.1,2.3-0.9,4.4-2.9c0.6-0.9,1-1.4,1.1-1.7
			c0.1-0.3,0.1-0.5,0-0.7c-0.2-0.4-0.8-0.3-1.7,0.3c-1.3,0.8-2.3,1.7-3,2.7l-1,1.3c0,0.1-0.1,0.2-0.3,0.3s-0.4,0.2-0.5,0.2
			c-0.3-0.1-0.4-0.3-0.5-0.6c-0.2-0.1-0.3-0.2-0.3-0.3c0,0-0.1-0.1-0.1-0.3c-0.1-0.2,0-0.8,0.2-1.7c0.4-2.1,0.7-3.2,0.9-3.4
			C47.3,115.1,47.4,114.9,47.4,114.6z"/>
		<path style="fill:#6D6E71;" d="M58.2,121.7c0-0.2,0-0.4,0-0.4s0-0.2-0.1-0.3c-0.1-0.1-0.1-0.2-0.1-0.2c0-0.1,0.1-0.1,0.1-0.1
			c0.1,0,0.2-0.1,0.1-0.3c-0.1-0.1,0-0.5,0.1-1c0.1-0.5,0.2-1,0.4-1.3c0.5-1.1,1-2,1.5-2.6c0.8-0.9,1.5-1.5,2-1.7
			c0.7-0.3,1.4-0.3,2,0.2c1,0.3,1.5,0.8,1.8,1.7c0.3,1.4,0.1,2.9-0.7,4.5c-0.6,1.2-1.2,2.1-2,2.8c-0.7,0.6-1.6,1.1-2.7,1.3
			c-0.3,0-0.6-0.1-1-0.3c-0.4-0.3-0.7-0.7-0.9-1.1C58.3,122.2,58.2,121.9,58.2,121.7z M62.8,120.1c0.7-1,1-2.1,1-3.3
			c0-0.5-0.1-0.7-0.2-0.8c-0.5-0.2-0.9,0-1.5,0.6c-0.4,0.4-0.7,0.9-0.9,1.3c-0.2,0.4-0.4,1.1-0.6,2s-0.2,1.5,0.2,1.7
			C61.2,122,61.9,121.5,62.8,120.1z"/>
		<path style="fill:#6D6E71;" d="M75.8,113.7c0.2,0,0.4,0.1,0.7,0.3c0.3,0.2,0.4,0.3,0.5,0.5c0.4,0.8,0.5,1.4,0.2,1.8
			c-0.6,0.7-1.2,1-1.9,0.9c-0.1,0-0.2-0.1-0.3-0.4c-0.1-0.2-0.2-0.4-0.2-0.5c0-0.1-0.2,0.1-0.6,0.5s-0.6,0.7-0.7,0.8
			c-0.4,0.5-0.9,1.3-1.4,2.4c-0.5,1.1-0.9,1.9-1,2.2c-0.1,0.4-0.2,0.6-0.3,0.8c-0.1,0.2-0.2,0.3-0.3,0.3c-0.1,0-0.3,0-0.6-0.1
			c-0.3-0.1-0.5-0.2-0.5-0.2c-0.6-0.6-0.7-1.4-0.1-2.3c0.1-0.2,0.3-0.9,0.7-1.9c0.3-1,0.5-1.6,0.6-1.7c0-0.3,0-0.5-0.1-0.7
			c-0.1-0.1-0.2-0.2-0.4-0.2c-0.4,0-0.5-0.3-0.5-0.9c0.1-0.5,0.2-0.9,0.6-1.1c0.3-0.1,0.6-0.2,1-0.2c0.4,0,0.8,0.1,1,0.2
			s0.4,0.7,0.5,1.7c0.1-0.1,0.3-0.3,0.6-0.7c0.3-0.3,0.5-0.6,0.6-0.7C74.9,114,75.5,113.7,75.8,113.7z"/>
		<path style="fill:#6D6E71;" d="M78.8,122.6c0-0.2-0.1-0.4-0.3-0.7c-0.3-0.3,0.3-1.7,1.6-4.2c0.1-0.1,0.2-0.3,0.4-0.6
			c0.2-0.3,0.3-0.4,0.3-0.5c0-0.1,0-0.1,0.1-0.2s0.1-0.1,0.2-0.1l0.2-0.4c0.1-0.2,0.4-0.5,1-1.1s1.1-1,1.4-1.3
			c0.4-0.2,0.7-0.3,1.1-0.3s0.7,0.1,1,0.4c0,0.1,0.1,0.2,0.3,0.3c0.3,0.3,1,0.9,2.2,2l-0.4,1.3c-0.4,1.2-0.3,2.3,0.3,3.3
			c0.2,0.4,0.5,0.6,0.9,0.7c0.4,0.1,0.6,0.3,0.6,0.6c0,0.7-0.2,1.1-0.7,1.3c-1.3,0.2-2.3-0.4-3-1.7c-0.2-0.3-0.4-0.7-0.5-1.2
			c-0.1,0.2-0.3,0.4-0.6,0.7c-2.3,2.5-4,3.3-5.2,2.5c-0.1-0.1-0.2-0.2-0.4-0.4C78.9,122.8,78.8,122.6,78.8,122.6z M84.8,115.6
			c-0.6,0-1.7,1.3-3.1,3.8c-0.3,0.4-0.5,1-0.7,1.7c0.3,0,0.8-0.3,1.6-1c0.2-0.1,0.4-0.3,0.6-0.6c0.3-0.2,0.5-0.4,0.6-0.5
			c0.1-0.1,0.3-0.2,0.5-0.4c0.3-0.3,0.6-0.7,0.9-1.1l0.6-1C85.3,116,85.1,115.6,84.8,115.6z"/>
		<path style="fill:#6D6E71;" d="M98.5,111.9c0,0.2,0.1,0.3,0.4,0.3c0.6,0,0.9-0.1,1.1-0.1c0.2,0,0.3-0.1,0.3-0.1
			c0.2,0,0.3,0,0.5,0.1c0.1,0.2,0.2,0.5,0.1,0.9c-0.1,0.4-0.2,0.7-0.3,0.7c0,0-0.2,0.1-0.5,0.2c-0.3,0.1-1,0.2-2.3,0.3
			c-0.4,0.9-0.7,1.4-0.8,1.6s-0.1,0.3-0.1,0.3l-1.1,2.3c-0.1,0-0.1,0.1-0.1,0.2c0.1,0.2,0.1,0.4,0,0.4c-0.1,0.1-0.3,0.3-0.4,0.4
			c0.1,0.1,0,0.3-0.1,0.6c0,0.3-0.1,0.8-0.4,1.4c0,0.3,0,0.5,0.1,0.6s0.1,0.1,0.1,0.1c0.1,0,0.3,0,0.7,0c0.3-0.1,0.1,0.5-0.4,1.9
			c-0.3,0.4-0.5,0.8-0.8,1.1c-0.3,0.3-0.5,0.5-0.5,0.5c-1.4,0-2-0.9-1.8-2.5c0.1-0.2,0.1-0.4,0.1-0.6c0.1-0.5,0.2-0.8,0.3-0.9
			c0.1-0.1,0.1-0.2,0-0.2c0-0.2,0.2-0.8,0.5-1.6c-0.1-0.1-0.1-0.3,0.1-0.5c0.2-0.2,0.2-0.3,0.2-0.4c-0.1-0.1,0-0.3,0.1-0.5
			s0.3-0.5,0.4-0.9c0.2-0.3,0.3-0.5,0.3-0.6c0-0.1,0.1-0.4,0.4-1.1c0.3-0.7,0.5-1.1,0.6-1.3c0.1-0.1,0.1-0.1-0.2-0.2
			c-0.2,0-0.7-0.1-1.5-0.1s-1.3-0.1-1.6-0.3c-0.2-0.2-0.2-0.5-0.1-0.9c0.2-0.4,0.4-0.5,0.8-0.6l3.3-0.3l0.1-0.5
			c0.1-0.1,0.1-0.2,0.2-0.3s0.1-0.2,0.1-0.2c0,0,0-0.1,0.1-0.1c0-0.1,0.1-0.2,0.1-0.5c0.3-0.5,0.5-0.9,0.5-1.4
			c0.3-0.5,0.5-0.9,0.6-1.1c0.5-1.1,1.1-1.4,1.9-0.9c0.5,0.4,0.7,0.7,0.7,1c0,0.2-0.1,0.4-0.2,0.5c-0.1,0.2-0.2,0.5-0.4,0.9
			c-0.4,0.5-0.6,0.9-0.7,1.4C98.7,111.7,98.6,111.9,98.5,111.9z"/>
		<path style="fill:#6D6E71;" d="M102.8,115.1c0.1-0.3,0.3-0.3,0.7-0.2c0.4,0.1,0.7,0.4,0.9,0.8c0.2,0.2,0.2,0.5,0.2,0.9
			c0,0.4-0.2,1.2-0.6,2.5c-0.3,1.3-0.5,2.2-0.5,2.8c-0.1,0.8-0.1,1.4-0.2,1.7c-0.1,0.3-0.2,0.4-0.3,0.4c-0.4,0-0.8-0.2-1.1-0.7
			s-0.5-1-0.5-1.7c0.1-0.7,0.1-1.2,0.2-1.4C102.2,117.3,102.6,115.6,102.8,115.1z M104.7,109.2c0.2,0,0.6,0.1,1.2,0.4
			c0.8,1.7,0.6,2.7-0.5,3.2c-0.1,0.1-0.3,0.1-0.5-0.1c-0.2,0-0.4-0.2-0.7-0.5s-0.4-0.5-0.4-0.6c0-0.4,0-0.9,0.2-1.5
			S104.4,109.2,104.7,109.2z"/>
		<path style="fill:#6D6E71;" d="M108.3,114.4c0.1-0.1,0.2-0.1,0.4-0.1c0.2,0,0.4,0,0.5,0c0.4,0.1,0.7,1.2,1,3.3
			c0,0.3,0.1,0.6,0.1,0.9c0.1,0.5,0.1,0.7,0.2,0.8c0,0.1,0,0.2,0.1,0.4c0,0.2,0.1,0.3,0.1,0.3c0.2,0,0.8-0.8,1.8-2.3
			c0.6-0.9,1.1-1.5,1.5-1.9c0.4-0.4,0.7-0.6,0.9-0.7c0.4-0.1,0.7,0.1,0.7,0.5c0.1,0.4,0,0.8-0.4,1.3c-0.1,0.1-0.2,0.3-0.3,0.6
			c-0.1,0.2-0.2,0.5-0.3,0.7c-0.1,0.2-0.4,0.7-0.9,1.4c-0.5,0.7-0.8,1.1-0.9,1.2c-0.1,0.1-0.2,0.2-0.3,0.3c-0.4,0.4-0.7,0.7-0.9,0.9
			c-0.4,0.4-0.8,0.7-1.2,0.8c-0.4,0.1-0.7,0-0.9-0.2c-0.2-0.1-0.4-0.7-0.8-1.8c-0.3-1.1-0.5-1.9-0.6-2.6s-0.3-1.3-0.5-1.9
			c-0.1-0.3-0.1-0.6,0.1-1C107.9,114.8,108,114.6,108.3,114.4z"/>
		<path style="fill:#6D6E71;" d="M120.8,119.5c-0.5,0-0.8,0-1-0.1c-0.2-0.1-0.3,0-0.4,0.4l-0.1,0.6c-0.1,0.5,0,0.9,0.3,1.2
			c0.1,0.2,0.3,0.3,0.6,0.2s0.5-0.1,0.8-0.3c0.2-0.2,0.5-0.4,0.7-0.7c0.3-0.3,0.4-0.5,0.6-0.6c0.2-0.3,0.6-0.4,1.3-0.2
			c0.4,0.3,0.3,0.9-0.2,1.8c-0.1,0.2-0.3,0.5-0.8,0.9s-0.8,0.7-1,0.9c-0.9,0.5-1.8,0.5-2.8,0.1c-1.3-0.5-1.8-1.8-1.6-3.9
			c0-0.5,0-0.9,0-1.1c-0.1-0.2-0.1-0.4-0.3-0.5c-0.1-0.1-0.2-0.2-0.3-0.3c-0.3-0.3-0.4-0.5-0.4-0.6c0-0.1,0-0.3,0.1-0.4
			c0.1-0.2,0.1-0.3,0.2-0.3c0.4-0.2,0.6-0.3,0.7-0.3c0.1,0,0.2,0.1,0.3,0.1c0.1,0.1,0.2,0.2,0.2,0.2c0.1,0.2,0.3,0,0.6-0.6
			c0.1-0.1,0.1-0.3,0.2-0.5c0.2-0.4,0.6-0.7,1-1.1c0.4-0.4,0.7-0.6,1-0.7c0.2-0.1,0.6-0.2,1.1-0.3c0.5-0.1,0.8-0.1,1-0.1
			c0.6,0.1,1.1,0.4,1.8,1.1c0.3,0.2,0.5,0.6,0.5,1.2s0,1.1-0.2,1.4c-0.1,0.3-0.4,0.7-1,1.2c-0.6,0.5-1.1,0.9-1.5,1.1
			C121.7,119.4,121.3,119.5,120.8,119.5z M122.6,115.6c-0.2-0.2-0.5-0.2-1,0.1c-0.2,0.1-0.4,0.2-0.7,0.5c-0.3,0.3-0.5,0.5-0.7,0.8
			s-0.3,0.4-0.2,0.5c0,0,0,0.1,0.1,0.1c0.1,0,0.1,0,0.2,0c0.1,0,0.2,0,0.3,0c0.1,0,0.2,0,0.5-0.1c0.2-0.1,0.5-0.2,0.7-0.3
			c0.2-0.2,0.5-0.4,0.8-0.9C122.6,116,122.7,115.7,122.6,115.6z"/>
		<path style="fill:#6D6E71;" d="M137.5,113.6c0,0,0.1,0,0.2,0.2c0.3,0.5,0.5,0.9,0.5,1.2c0,0.1-0.1,0.1-0.1,0.1c0,0,0,0,0.1,0
			c0.7-0.4,1.2-0.6,1.3-0.8c0.2-0.1,0.3-0.2,0.4-0.2c0.3-0.1,0.7-0.1,1.1-0.1c0.4,0.1,0.7,0.2,1,0.5c0.8,1.1,1.1,2.3,0.7,3.6
			l-0.7,1.3c-0.7,1.1-1.6,2-2.8,2.7c-0.3,0.2-0.6,0.3-1.1,0.5c-0.5,0.1-0.8,0.2-0.9,0.1c-0.2-0.1-0.4-0.4-0.5-0.9
			c-0.2,0.6-0.4,0.9-0.4,1.2s-0.1,0.4-0.2,0.4c0,0.1-0.1,0.2-0.2,0.4c-0.5,1.6-0.8,2.4-0.8,2.5c-0.1,0.6-0.2,1.1-0.4,1.6
			c-0.2,0.5-0.4,0.8-0.7,0.9c-0.4,0.1-0.7-0.1-1.1-0.5c-0.3-0.5-0.4-1-0.2-1.5c0.1-0.2,0.2-0.5,0.2-0.9c0.1-0.4,0.2-0.8,0.3-1.3
			c0.2-0.5,0.3-0.9,0.5-1.1c0.1-0.2,0.2-0.6,0.2-1c0.1-0.4,0.2-0.7,0.3-0.8c0.1-0.4,0.2-0.7,0.4-0.9c0.1-0.5,0.2-0.7,0.2-0.7
			c0.2-0.8,0.4-1.7,0.8-2.8s0.4-1.7,0.1-1.9c-0.2-0.1-0.3-0.4-0.3-0.9c0-0.5,0.1-0.8,0.3-0.9c0.2-0.1,0.4-0.1,0.6-0.2
			c0.6-0.1,0.8,0,0.8,0.1C137.4,113.5,137.5,113.6,137.5,113.6z M140.6,117c0.2-0.3,0.1-0.6-0.1-0.8c-0.3-0.1-0.7,0.1-1.1,0.4
			c-0.5,0.3-0.9,0.7-1.2,1.1s-0.5,0.8-0.7,1.2s-0.2,0.7-0.1,0.9c0.1,0.2,0.2,0.3,0.4,0.3c1.3-0.7,2-1.2,2.2-1.5
			c0-0.1,0.1-0.1,0.1-0.2c0-0.2,0.1-0.4,0.2-0.7S140.5,117.2,140.6,117z"/>
		<path style="fill:#6D6E71;" d="M153.3,116.5c-0.2,0-0.4,0-0.6,0.1c-0.2,0.1-0.4,0.2-0.5,0.2c-0.1,0.1-0.2,0.2-0.4,0.3
			c-0.1,0.1-0.4,0.3-0.7,0.5c-0.3,0.2-0.9,0.7-1.6,1.3c-0.8,0.7-1.3,1.3-1.5,1.8c-0.6,1.5-1,2.4-1.1,2.5c-0.1,0.2-0.3,0.3-0.5,0.3
			c-0.3,0-0.4,0-0.5-0.1c-0.1,0-0.3-0.1-0.5-0.3c-0.2-0.2-0.3-0.4-0.4-0.5s0.1-0.7,0.3-1.5c0.3-1.3,0.5-2.3,0.6-2.8
			c0.1-0.2,0.2-0.5,0.3-1c0.1-0.5,0.3-0.8,0.4-1.1c0.2-0.8,0.5-1.6,1-2.4c0-0.1,0.1-0.2,0.2-0.3c0.1-0.1,0.2-0.2,0.3-0.2
			c0.1-0.1,0.3-0.2,0.6-0.1c0.2,0,0.4,0.1,0.6,0.3c0.4,0.5,0.4,1.2,0,2.1c-0.2,0.4-0.4,0.9-0.6,1.4c-0.2,0.5-0.4,0.8-0.5,1
			c0.9-1.2,1.8-2.1,2.7-2.8c0,0,0.1-0.1,0.1-0.1c0.7-0.5,1.3-0.7,1.8-0.6c0.3,0,0.5,0.2,0.8,0.6s0.3,0.9,0.2,1.4
			C153.7,116.5,153.5,116.5,153.3,116.5z"/>
		<path style="fill:#6D6E71;" d="M155.5,121.4l0.1-0.6c0-0.1,0.1-0.4,0.2-0.9c0.4-0.9,0.8-2.3,1.4-4.3c0-0.2,0.1-0.3,0.4-0.3
			c0.2-0.1,0.4,0,0.7,0.3c0.3,0.2,0.5,0.5,0.7,0.8c0.2,0.2,0.2,0.7-0.1,1.3s-0.4,1.2-0.5,1.8c-0.2,0.5-0.3,0.8-0.4,1.1
			c-0.1,0.2-0.1,0.6-0.2,1.1c-0.1,0.5-0.2,0.8-0.3,1c-0.2,0.7-0.4,1.1-0.8,1.3c-0.4,0.2-0.7,0.1-1-0.3c-0.2-0.2-0.3-0.5-0.3-1.1
			C155.3,121.9,155.4,121.6,155.5,121.4z M158,112.2c-0.1-0.2-0.2-0.4-0.2-0.5s0-0.3,0.1-0.4c0.1-0.1,0.2-0.4,0.4-0.8
			c0.4-0.8,0.6-1.2,0.7-1.2c0.2-0.1,0.5-0.1,0.9,0s0.6,0.4,0.8,0.7c0.3,0.7,0.2,1.4-0.4,2.2c-0.3,0.4-0.6,0.6-1,0.7
			c-0.4,0.1-0.7,0.1-0.9-0.1C158.3,112.7,158.1,112.5,158,112.2z"/>
		<path style="fill:#6D6E71;" d="M163.2,115l-0.1-0.6c0-0.3,0.1-0.5,0.4-0.7c0.2-0.2,0.6-0.3,0.9-0.3c0.4,0,0.7,0.2,0.9,0.5
			c0.2,0.3,0.3,0.7,0.3,1s-0.1,0.6-0.2,0.9l-0.9,2.3c0,0.1,0,0.1,0.1,0.1c0.1,0.1,0.3-0.1,0.7-0.5c0.4-0.4,1-0.9,1.7-1.5
			c0.8-0.6,1.3-0.9,1.7-1c0.2,0,0.5,0.2,0.9,0.5c0.3,0.3,0.5,0.7,0.5,1.1c-0.3,1.2-0.4,1.9-0.5,2.1c0.3-0.4,0.9-0.9,1.7-1.5
			c0.8-0.6,1.4-0.9,1.8-0.9c0.5,0,0.9,0.3,1.1,0.8c0.2,0.5,0.3,1.2,0.4,2.1s0.1,1.4,0.3,1.7c0,0.1,0.1,0.2,0.3,0.2
			c0.2,0.1,0.3,0.1,0.5,0.3c0.2,0.1,0.2,0.3,0.2,0.6c0,0.7-0.6,1.1-1.7,1.1c-0.5,0-0.9-0.3-1.3-0.8c-0.4-0.5-0.5-1.2-0.5-1.9
			c0-0.3,0-0.6,0.1-0.9c0-0.3,0.1-0.5,0.1-0.5s0-0.1-0.1-0.1c-0.4,0-1.4,0.8-2.9,2.5c-0.1,0-0.1,0.1-0.1,0.1
			c-0.1,0.1-0.3,0.3-0.5,0.5c-0.5,0.5-0.9,0.7-1.1,0.7s-0.4-0.1-0.5-0.2l-0.3-0.2c-0.2-0.2-0.3-0.4-0.3-0.7v-0.1l0.6-1.8
			c0.4-1,0.6-1.5,0.6-1.6c0-0.1,0-0.2,0-0.2c-0.3,0-0.7,0.4-1.4,1.2c-0.7,0.9-1.2,1.4-1.5,1.7s-0.5,0.6-0.8,0.9
			c-0.3,0.3-0.5,0.6-0.7,0.9c-0.2,0.2-0.3,0.4-0.3,0.4c-0.4,0-0.7-0.2-1-0.5c-0.3-0.3-0.4-0.6-0.4-0.9c0-0.3,0-0.6,0.1-0.9
			c0.1-0.3,0.1-0.7,0.3-1.2c0.1-0.5,0.2-0.9,0.2-1.1c0-0.2,0.1-0.4,0.1-0.6c0-0.2,0.1-0.3,0.1-0.3c0,0,0-0.2,0.1-0.4
			c0.1-0.2,0.1-0.4,0.2-0.6c0.1-0.2,0.2-0.6,0.4-1.1C163.2,115.5,163.2,115.2,163.2,115z"/>
		<path style="fill:#6D6E71;" d="M186.9,121.6c-0.2,0.4-0.5,0.7-0.9,1s-0.8,0.4-1.1,0.4s-0.6-0.2-0.9-0.5c-0.3-0.4-0.6-1-0.8-1.9
			l-0.9,0.9c-0.1,0.1-0.3,0.3-0.4,0.5c-0.4,0.3-0.6,0.6-0.6,0.6c-0.1,0.2-0.6,0.5-1.4,0.9c-0.2,0.1-0.5,0.1-0.8,0
			c-0.3-0.1-0.5-0.1-0.5-0.2s0-0.1,0-0.1c0,0,0,0-0.1,0c-0.3-0.3-0.6-0.5-0.8-0.6c-0.2-0.3-0.3-0.6-0.3-0.9c0-0.3,0.1-0.9,0.3-1.8
			c0-1,0.5-2.2,1.5-3.5c1-1.3,1.9-2.3,2.7-2.8c0.2-0.2,0.6-0.4,1-0.4c0.4,0,0.7,0.1,1,0.2c0.3,0.2,0.6,0.5,0.9,0.9
			c0.3,0.5,0.6,0.9,0.7,1.3c0,0,0,0.2,0.1,0.5c0.1,0.3,0.1,0.5,0.1,0.5c0,0,0,0.4,0,1c-0.2,0.7-0.3,1.4-0.3,2c0,0.3,0,0.6,0.1,0.7
			c0.1,0.1,0.3,0.1,0.6,0c0.3-0.1,0.6-0.1,0.8,0.2C187.1,120.9,187.1,121.2,186.9,121.6z M179.6,120.6c0,0.6,0.3,0.7,0.9,0.4
			c0.4-0.2,0.7-0.5,0.9-0.8c0.3-0.4,0.7-1,1.1-1.7c0.5-0.7,0.8-1.3,0.9-1.8c-0.2-0.6-0.4-0.9-0.6-1c-0.5,0-1.1,0.6-1.9,1.8
			c-0.4,0.6-0.8,1.2-1,1.9C179.7,120,179.6,120.5,179.6,120.6z"/>
		<path style="fill:#6D6E71;" d="M196.5,113.7c0.2,0,0.4,0.1,0.7,0.3c0.3,0.2,0.4,0.3,0.5,0.5c0.4,0.8,0.5,1.4,0.2,1.8
			c-0.6,0.7-1.2,1-1.9,0.9c-0.1,0-0.2-0.1-0.3-0.4c-0.1-0.2-0.2-0.4-0.2-0.5c0-0.1-0.2,0.1-0.6,0.5s-0.6,0.7-0.7,0.8
			c-0.4,0.5-0.9,1.3-1.4,2.4c-0.5,1.1-0.9,1.9-1,2.2c-0.1,0.4-0.2,0.6-0.3,0.8c-0.1,0.2-0.2,0.3-0.3,0.3c-0.1,0-0.3,0-0.6-0.1
			c-0.3-0.1-0.5-0.2-0.5-0.2c-0.6-0.6-0.7-1.4-0.1-2.3c0.1-0.2,0.3-0.9,0.7-1.9c0.3-1,0.5-1.6,0.6-1.7c0-0.3,0-0.5-0.1-0.7
			c-0.1-0.1-0.2-0.2-0.4-0.2c-0.4,0-0.5-0.3-0.5-0.9c0.1-0.5,0.2-0.9,0.6-1.1c0.3-0.1,0.6-0.2,1-0.2c0.4,0,0.8,0.1,1,0.2
			s0.4,0.7,0.5,1.7c0.1-0.1,0.3-0.3,0.6-0.7c0.3-0.3,0.5-0.6,0.6-0.7C195.6,114,196.2,113.7,196.5,113.7z"/>
		<path style="fill:#6D6E71;" d="M201.6,130.3c-0.1,0-0.2,0-0.3,0h-0.3c-0.3,0.1-0.5-0.1-0.6-0.5c-0.1-0.2-0.1-0.4-0.1-0.7
			c-0.1-0.4,0.1-1.3,0.7-2.5c0.1-0.2,0.3-0.6,0.5-1.1s0.6-1.3,1.1-2.3c0.5-1,1-1.9,1.3-2.7c-0.4,0.4-0.8,0.9-1.2,1.4s-0.7,0.9-1,1
			s-0.4,0.2-0.6,0.2c-0.2,0-0.5-0.2-0.8-0.4s-0.5-0.5-0.6-0.8c-0.2-0.8-0.1-1.9,0.1-3.4c0.2-1.5,0.3-2.4,0.3-2.7s-0.2-0.5-0.4-0.7
			c-0.3-0.4-0.1-0.9,0.6-1.3c0.4-0.1,0.6-0.1,0.9-0.1c0.2,0.1,0.4,0.2,0.6,0.5c0,0.1,0.1,0.1,0.2,0.3c0.1,0.1,0.1,0.2,0.2,0.3
			c0,0.1,0.1,0.2,0.1,0.3c0.1,0.3,0.2,0.5,0.2,0.8c0,0.2,0,0.9-0.1,2.1c-0.1,0.6-0.2,1-0.3,1.3c-0.1,0.3-0.2,0.5-0.2,0.7
			c0,0.2,0,0.4,0,0.5c0.5-0.4,0.9-0.8,1.3-1.3s0.8-1.1,1.5-2c0.5-0.9,0.8-1.5,0.8-1.8c0.3-0.7,0.6-1.1,0.8-1.1c0.1,0,0.3,0,0.6,0.1
			s0.4,0.2,0.4,0.2c0,0,0.2,0.1,0.5,0.1c0.3,0,0.5,0.1,0.5,0.1c0,0-0.2,0.4-0.5,1.2c-0.3,0.7-0.4,1.1-0.4,1.2c0,0.1-0.2,0.7-0.7,1.8
			c-0.4,1.4-0.9,2.6-1.4,3.5c-0.2,0.4-1.1,2.6-2.8,6.8C202.3,129.9,202,130.2,201.6,130.3z"/>
		<path style="fill:#6D6E71;" d="M224.1,117.4c-0.2,0.3-0.4,0.5-0.5,0.5c-0.2,0-0.2,0-0.2,0.1s-0.1,0.2-0.3,0.2
			c-0.2,0-0.4,0-0.6-0.1c-0.2-0.1-0.3-0.2-0.3-0.3c0-0.1,0.1-0.4,0.2-1c0.1-0.6,0.1-0.9,0-1.1c-0.1-0.2-0.3-0.2-0.6,0
			c-0.6,0.4-1.1,0.9-1.4,1.5s-0.6,1.4-0.8,2.3c-0.2,0.9-0.3,1.5-0.3,1.7c0,0.3,0.1,0.5,0.2,0.6c0.5,0.1,1,0.1,1.3-0.1
			c0.4-0.2,0.9-0.6,1.5-1.1c0,0,0.1-0.1,0.2-0.3c0.1-0.2,0.2-0.3,0.3-0.3c0.1-0.2,0.3-0.3,0.6-0.3h0.5c0.3,0.1,0.6,0.3,0.7,0.6
			c0.1,0.2,0.1,0.3,0,0.3l-0.1,0.1c0.1,0.1-0.2,0.6-0.9,1.3c-0.7,0.7-1.1,1.1-1.3,1.1c-0.2,0-0.3,0.1-0.3,0.2c0,0.1-0.3,0.2-0.8,0.5
			s-0.9,0.4-1.3,0.5c-0.8,0.1-1.5,0-2.1-0.5c-0.7-0.5-1-1.1-1-1.9c-0.1-0.8,0.1-1.8,0.4-3.1s0.8-2.2,1.4-3c0.9-1.1,1.5-1.7,2-1.9
			c0.5-0.2,1-0.3,1.5-0.3c0.9,0.2,1.4,0.5,1.4,0.9l0.1,0.1c0.2,0,0.3,0.3,0.5,0.8c0.2,0.6,0.2,1,0.1,1.2
			C224.4,116.7,224.3,117.1,224.1,117.4z"/>
		<path style="fill:#6D6E71;" d="M232.7,113.9c0.1,0,0.3,0.1,0.7,0.3c0.7,0.2,1.1,0.4,1.4,0.8c0.2,0.5,0.4,1,0.5,1.7
			c0.2,0.6,0.2,1,0,1.2c-0.1,0.1-0.1,0.2-0.1,0.2c0,0,0,0,0,0.1c0,0.1,0,0.2-0.1,0.4c-0.3,0.9-0.4,1.6-0.3,2
			c0.3,0.8,0.8,0.9,1.4,0.2c0.3-0.2,0.5-0.3,0.7-0.3c0.2,0,0.3,0.1,0.3,0.2c0.1,0.1,0.2,0.1,0.3,0.1c0.1,0,0.1,0.1,0.1,0.3
			c0,0.4-0.1,0.7-0.3,1.1c-0.3,0.3-0.4,0.4-0.4,0.5c-0.1,0.1-0.2,0.2-0.4,0.4c-0.3,0.2-0.7,0.3-1.2,0.3c-0.5,0-0.8-0.1-1.1-0.3
			c-0.7-0.5-1.1-1-1.2-1.5l-0.1-0.3l-0.7,0.5l-0.6,0.7c-0.1,0.2-0.3,0.3-0.4,0.3h-0.3c0,0.1-0.2,0.3-0.7,0.5
			c-0.5,0.2-0.8,0.3-1.1,0.3c-0.3,0.1-0.6-0.1-1-0.5c-0.4-0.4-0.6-0.8-0.7-1.1c-0.1-0.6,0-1.4,0.4-2.5c0.4-1,0.9-2,1.7-3
			c0.8-1,1.6-1.7,2.6-2.1C232.4,114,232.6,113.9,232.7,113.9z M233.1,116.7c-0.1-0.2-0.2-0.3-0.3-0.3s-0.3,0-0.6,0.2
			c-0.5,0.3-1.1,1-1.7,2.1c-0.7,1.1-1,1.8-1,2.3l0.1,0.3c0.2,0,0.6-0.2,1.2-0.7c0.6-0.5,0.9-0.8,1.1-0.9c0.1-0.2,0.2-0.3,0.4-0.5
			c0.1-0.2,0.3-0.4,0.5-0.7c0.2-0.3,0.4-0.5,0.5-0.8C233.3,117.3,233.3,117,233.1,116.7z"/>
		<path style="fill:#6D6E71;" d="M246.7,113.7c0.2,0,0.4,0.1,0.7,0.3c0.3,0.2,0.4,0.3,0.5,0.5c0.4,0.8,0.5,1.4,0.2,1.8
			c-0.6,0.7-1.2,1-1.9,0.9c-0.1,0-0.2-0.1-0.3-0.4c-0.1-0.2-0.2-0.4-0.2-0.5c0-0.1-0.2,0.1-0.6,0.5s-0.6,0.7-0.7,0.8
			c-0.4,0.5-0.9,1.3-1.4,2.4c-0.5,1.1-0.9,1.9-1,2.2c-0.1,0.4-0.2,0.6-0.3,0.8c-0.1,0.2-0.2,0.3-0.3,0.3c-0.1,0-0.3,0-0.6-0.1
			c-0.3-0.1-0.5-0.2-0.5-0.2c-0.6-0.6-0.7-1.4-0.1-2.3c0.1-0.2,0.3-0.9,0.7-1.9c0.3-1,0.5-1.6,0.6-1.7c0-0.3,0-0.5-0.1-0.7
			c-0.1-0.1-0.2-0.2-0.4-0.2c-0.4,0-0.5-0.3-0.5-0.9c0.1-0.5,0.2-0.9,0.6-1.1c0.3-0.1,0.6-0.2,1-0.2c0.4,0,0.8,0.1,1,0.2
			s0.4,0.7,0.5,1.7c0.1-0.1,0.3-0.3,0.6-0.7c0.3-0.3,0.5-0.6,0.6-0.7C245.8,114,246.4,113.7,246.7,113.7z"/>
		<path style="fill:#6D6E71;" d="M255,113.3c1,0,1.7,0.3,2.2,0.8c0.5,0.5,0.7,1,0.7,1.4v0.2c0,0.4-0.2,1-0.7,1.8
			c-0.2,0.4-0.6,0.8-1.1,1.2c-0.5,0.3-1,0.5-1.5,0.5s-1,0-1.4-0.1c-0.4-0.1-0.7-0.1-0.8-0.1s-0.2,0.1-0.3,0.2
			c-0.1,0.2-0.2,0.6-0.2,1.1c0.1,0.5,0.2,0.8,0.4,1c0.2,0.2,0.5,0.3,0.8,0.3c0.3,0,0.6-0.1,0.9-0.2c0.3-0.1,0.6-0.3,1-0.7
			c0.4-0.3,0.6-0.5,0.9-0.5s0.4,0.1,0.6,0.3c0.2,0.2,0.3,0.4,0.3,0.6c-0.1,0.4-0.4,0.9-1.2,1.6c-0.7,0.7-1.6,1-2.5,1
			s-1.7-0.3-2.3-0.9c-0.6-0.6-0.9-1.4-0.9-2.4c0-0.4,0-0.8,0.1-1.3c0-0.5,0.2-1,0.4-1.7s0.7-1.4,1.2-2.2c0.6-0.8,1.2-1.3,1.8-1.6
			C254,113.5,254.5,113.3,255,113.3z M254.8,115.3c-0.2,0-0.5,0.2-1,0.6c-0.4,0.4-0.8,0.8-1.1,1.3c0,0.2,0.3,0.3,0.8,0.3
			c0.5,0,0.9,0,1-0.1s0.4-0.3,0.7-0.7c0.3-0.4,0.5-0.6,0.5-0.8c0-0.4-0.3-0.6-0.8-0.7H254.8z"/>
	</g>
	<path style="fill:#939598;" d="M262.1,26.7c-2.3,15.9-16.2,56,25,55.9C297.5,39.4,262.1,26.7,262.1,26.7z"/>
	<path style="fill:#D1D3D4;" d="M332.6,48.8c-14,2.4-33.2,6-40.1,36.3C327.2,96,332.6,48.8,332.6,48.8z"/>
	<g>
		<path d="M287.2,82.4c0.5-0.1,1-0.1,1.5-0.1c0.5,0,1-0.1,1.5-0.1c1-0.2,1.8-0.2,2.8-0.5c0.5-0.1,0.9-0.2,1.4-0.3l1.4-0.4
			c0.9-0.2,1.8-0.5,2.7-0.8c0.9-0.3,1.7-0.6,2.6-1c0.9-0.3,1.7-0.7,2.5-1.1c0.9-0.3,1.6-0.8,2.5-1.2c0.8-0.4,1.6-0.9,2.4-1.3
			c0.8-0.4,1.6-0.9,2.4-1.3c0.8-0.4,1.6-0.9,2.3-1.5c0.4-0.3,0.8-0.5,1.2-0.8l1.1-0.8l1.1-0.8l1-0.9c0.7-0.6,1.5-1.2,2.1-1.8
			c0.7-0.7,1.5-1.2,2.1-1.9c0.6-0.7,1.4-1.4,2-2.1c0.6-0.8,1.2-1.5,1.7-2.3l0.7,1.5c-0.8-0.2-1.5-0.4-2.3-0.6
			c-0.8-0.2-1.6-0.3-2.3-0.4c-0.8-0.1-1.6-0.1-2.4-0.1c-0.8,0-1.6,0.1-2.3,0.2c-0.4,0.1-0.8,0.1-1.2,0.2l-1.1,0.3l-1.1,0.3
			c-0.4,0.1-0.7,0.3-1.1,0.4c-0.7,0.3-1.4,0.5-2,0.8c-0.3,0.1-0.6,0.3-1,0.4c-0.3,0.1-0.6,0.3-0.9,0.5c-0.3,0.2-0.6,0.3-0.9,0.5
			c-0.3,0.2-0.6,0.4-0.8,0.5l-0.4,0.3l-0.4,0.3c-0.3,0.2-0.5,0.4-0.8,0.6c-0.3,0.2-0.5,0.5-0.8,0.7c-0.3,0.2-0.5,0.4-0.8,0.7
			c-0.5,0.5-1,1-1.5,1.6c-1,1.1-2,2.3-3.1,3.5l-1.7,1.8c-0.6,0.6-1.2,1.2-1.8,1.7l-0.5-0.3c0.2-0.8,0.4-1.6,0.6-2.4
			c0.3-0.8,0.5-1.6,0.8-2.4c0.3-0.8,0.6-1.6,0.9-2.3c0.2-0.4,0.3-0.8,0.5-1.2l0.6-1.1c0.4-0.8,0.9-1.5,1.4-2.2
			c0.5-0.7,1.1-1.4,1.8-2.1c0.3-0.3,0.7-0.6,1-0.9l0.5-0.5l0.6-0.4c0.4-0.3,0.8-0.5,1.2-0.8c0.4-0.3,0.9-0.4,1.3-0.6
			c0.4-0.2,0.9-0.4,1.3-0.5c0.4-0.1,0.9-0.2,1.4-0.3c0.5-0.1,0.9-0.2,1.4-0.2l1.4-0.1c0.4,0,0.9,0,1.3,0l1.3,0.1
			c0.9,0.1,1.7,0.1,2.5,0.3c0.8,0.2,1.7,0.2,2.5,0.4c0.8,0.2,1.6,0.3,2.4,0.4c0.8,0.1,1.6,0.2,2.4,0.3c0.8,0.1,1.6,0.2,2.4,0.3
			l1.4,0.1l-0.6,1.4c-0.4,0.9-0.8,1.9-1.2,2.8c-0.4,1-0.9,1.9-1.4,2.8c-0.2,0.5-0.5,0.9-0.8,1.4c-0.3,0.4-0.6,0.9-0.8,1.3
			c-0.6,0.9-1.2,1.7-1.9,2.5c-0.3,0.4-0.7,0.8-1,1.2l-1.1,1.1l-1.1,1.1c-0.4,0.4-0.8,0.7-1.2,1c-0.8,0.7-1.6,1.4-2.5,1.9
			c-0.9,0.6-1.8,1.2-2.7,1.7c-1,0.5-1.9,1-2.9,1.4c-1,0.4-2,0.8-3,1.1c-1,0.3-2,0.6-3.1,0.8c-1.1,0.2-2.1,0.4-3.2,0.5
			c-1.1,0.1-2.1,0.2-3.2,0.1l-1.6-0.1c-0.5,0-1.1-0.1-1.6-0.2c-0.5-0.1-1-0.1-1.6-0.3l-1.6-0.4c-0.5-0.1-1-0.3-1.4-0.6
			c-0.5-0.2-0.9-0.4-1.4-0.7L287.2,82.4z"/>
	</g>
	<g>
		<path d="M289.8,97.1c0.4,0.8,0.8,1.6,1.2,2.4c0.4,0.8,0.8,1.5,1.3,2.1c1,1.2,2.4,2.1,3.9,2.7c1.5,0.6,3.1,0.9,4.8,1.2
			c1.7,0.2,3.3,0.4,5,0.4l0.5,0l0.5,0.5c2.5,2.3,5,4.6,7.5,6.9l7.4,7l-4.2,1.9l-1.9-16l-0.3-2.9l3.1-0.4c0.5-0.1,1-0.1,1.5-0.2
			c0.5-0.1,1-0.2,1.6-0.3c1-0.2,2.1-0.4,3-0.7c0.5-0.1,1-0.3,1.4-0.4c0.2-0.1,0.5-0.2,0.7-0.2l0.1,0l0,0l0,0c0,0,0.1,0-0.1,0l0,0
			l0,0l0.2-0.1l0.4-0.2c0.2-0.1,0.3-0.2,0.5-0.2l0.5-0.3c0.3-0.2,0.6-0.5,1-0.7c1.2-1.1,2.2-2.6,3-4.3c0.4-0.9,0.7-1.8,1-2.7
			c0.1-0.5,0.3-0.9,0.4-1.4c0.1-0.4,0.2-1,0.3-1.3l0.3-2.4l2.5-0.6c2.2-0.6,4.3-1.3,6.2-2.2c1.9-0.9,3.6-2.1,5.1-3.5
			c1.4-1.4,2.6-3,3.6-4.8c0.9-1.8,1.6-3.8,2.2-5.9c0.5-2.1,0.9-4.3,1-6.6l0.1-0.9l0-0.2l0-0.1c0-0.1,0,0.1,0,0.1l0,0l0-0.1l0-0.5
			c0-0.6,0.1-1.3,0-1.8l0-1.5l-0.1-1.6c-0.2-2.2-0.6-4.3-1.2-6.4c-0.6-2.1-1.4-4.2-2.3-6.2c-3.8-8.1-10-15.1-17.6-20
			c-1.9-1.2-3.9-2.3-5.9-3.3c-2.1-0.9-4.2-1.8-6.4-2.4c-2.2-0.7-4.4-1.2-6.7-1.6c-2.3-0.4-4.5-0.6-6.8-0.7l-1.8-0.1l-0.9-1.3
			c-1.5-2-3.4-3.7-5.6-4.9c-2.2-1.2-4.8-2-7.5-2.5c-2.7-0.5-5.5-0.6-8.3-0.5c-2.8,0.1-5.7,0.5-8.5,1c-5.7,1.1-11.3,2.9-16.7,5.2
			c-2.7,1.2-5.3,2.5-7.8,4c-1.3,0.8-2.5,1.6-3.6,2.4c-0.6,0.4-1.2,0.9-1.7,1.3c-0.6,0.5-1.1,1-1.7,1.4c-2.2,2-4.1,4.1-5.9,6.5
			c-1.7,2.3-3.2,4.9-4.4,7.5c-1.1,2.7-2,5.5-2.3,8.3c-0.4,2.9-0.3,5.8,0.3,8.6c0.6,2.8,1.6,5.5,3.1,8c1.5,2.5,3.3,4.7,5.4,6.7
			c2.1,2,4.4,3.7,6.9,5.3c2.4,1.6,5.1,2.9,7.7,4.1l1.2,0.5l0.1,1.5c0.1,1.8,0.8,3.5,2,5c1.2,1.5,2.7,2.7,4.4,3.5
			c1.7,0.9,3.6,1.4,5.4,1.5c1.9,0.1,3.7-0.2,5.2-0.9c0.2-0.1,0.4-0.2,0.6-0.3l0.7-0.4c0.4-0.2,0.8-0.5,1.3-0.8
			c0.8-0.5,1.7-1.1,2.5-1.6c0.8-0.6,1.5-1.2,2.2-1.8c0.7-0.6,1.4-1.3,1.9-2c0.6-0.7,1.1-1.5,1.6-2.4c0.2-0.4,0.4-0.9,0.6-1.3
			c0.2-0.5,0.4-0.9,0.6-1.4c0.3-1,0.6-2,0.9-3.1c0.2-1.1,0.4-2.2,0.6-3.4l0.8-0.1c0.6,1.1,1.1,2.2,1.4,3.4c0.3,1.2,0.6,2.5,0.6,3.8
			c0,0.7,0,1.3,0,2c-0.1,0.7-0.2,1.3-0.3,2c-0.3,1.3-0.8,2.6-1.4,3.8c-0.6,1.2-1.4,2.4-2.3,3.4c-0.9,1-1.9,2-2.9,2.8
			c-1,0.8-2.1,1.5-3.3,2.1c-0.6,0.3-1.2,0.5-1.8,0.8c-0.3,0.1-0.6,0.2-0.8,0.3l-1,0.4c-2.7,1-5.6,1.2-8.3,0.8
			c-2.7-0.4-5.3-1.3-7.6-2.7c-2.3-1.4-4.3-3.2-5.8-5.5c-1.5-2.3-2.4-5.1-2.3-7.9l1.3,2c-5.4-3-10.6-6.6-14.9-11.2
			c-2.1-2.3-4-4.8-5.5-7.6c-1.5-2.8-2.6-5.8-3.1-8.9c-1.2-6.2-0.2-12.7,2.2-18.4c1.2-2.9,2.7-5.6,4.5-8.2c1.8-2.6,3.8-4.9,6-7.1
			c0.6-0.6,1.1-1.1,1.7-1.6c0.6-0.5,1.2-1.1,1.8-1.5c1.2-1,2.5-1.9,3.7-2.8c2.6-1.7,5.2-3.3,8-4.7c5.5-2.8,11.2-5.1,17.3-6.7
			c6-1.6,12.4-2.5,18.9-1.7c3.3,0.4,6.6,1.2,9.7,2.8c3.1,1.5,6,3.8,8.1,6.6L308,9.3c2.6,0,5.2,0.2,7.8,0.5c2.6,0.3,5.2,0.9,7.7,1.6
			c2.5,0.7,5,1.6,7.4,2.6c2.4,1.1,4.8,2.2,7,3.6c2.2,1.4,4.4,2.9,6.4,4.6c2,1.7,4,3.5,5.8,5.4c1.8,1.9,3.5,4,5,6.2
			c1.5,2.2,2.9,4.5,4,6.9c1.1,2.4,2.1,4.9,2.9,7.5c0.7,2.6,1.2,5.3,1.5,8c0.1,0.7,0.1,1.4,0.1,2l0,2.2c0,0.7-0.1,1.2-0.1,1.9l0,0.5
			l0,0.4l0,0.2l-0.1,1c-0.3,2.6-0.7,5.3-1.4,7.9c-0.7,2.6-1.7,5.3-3.1,7.8c-1.4,2.5-3.2,4.8-5.4,6.8c-2.2,1.9-4.6,3.4-7.2,4.6
			c-2.5,1.1-5.1,1.9-7.7,2.5l2.8-3c-0.2,0.8-0.3,1.4-0.5,2c-0.2,0.6-0.4,1.2-0.6,1.8c-0.4,1.2-0.9,2.4-1.5,3.6
			c-1.2,2.3-2.8,4.5-5.1,6.3c-0.6,0.4-1.2,0.8-1.8,1.2c-0.3,0.2-0.6,0.3-1,0.5c-0.3,0.2-0.8,0.4-1.1,0.5l-0.4,0.1l-0.2,0.1l-0.2,0.1
			l-0.1,0l-0.1,0c-0.3,0.1-0.6,0.2-0.9,0.3c-0.6,0.2-1.2,0.3-1.8,0.4c-1.2,0.3-2.4,0.4-3.6,0.6c-0.6,0.1-1.2,0.1-1.8,0.2
			c-0.6,0.1-1.2,0.1-1.8,0.2l2.8-3.3l0.8,16.1l0.3,6.9l-4.5-5l-6.8-7.5c-2.3-2.5-4.5-5-6.8-7.6l1,0.5c-1.8-0.2-3.5-0.5-5.3-0.9
			c-1.8-0.4-3.5-1-5.2-1.9c-1.6-0.9-3.2-2.1-4.2-3.7c-0.5-0.8-0.9-1.7-1.2-2.5c-0.3-0.8-0.5-1.7-0.8-2.5L289.8,97.1z"/>
	</g>
	<g>
		<path d="M289.8,97.1c0.4,0.8,0.8,1.6,1.1,2.4c0.4,0.8,0.8,1.5,1.3,2.1c1,1.3,2.4,2.1,3.9,2.7c1.5,0.6,3.2,0.9,4.8,1.2
			c1.7,0.2,3.4,0.4,5.1,0.4l0.5,0l0.4,0.4c2.5,2.3,5,4.6,7.4,7l7.4,7l-3.8,1.7l-1.8-16l-0.3-2.5l2.7-0.3c0.5-0.1,1-0.1,1.6-0.2
			c0.5-0.1,1.1-0.2,1.6-0.3c1-0.2,2.1-0.4,3.1-0.7c0.5-0.1,1-0.3,1.5-0.4c0.2-0.1,0.5-0.2,0.7-0.2l0.1,0l0,0l0,0c0,0,0.1,0-0.1,0
			l0,0l0,0l0.2-0.1l0.4-0.2c0.3-0.1,0.3-0.2,0.5-0.3l0.5-0.3c0.4-0.2,0.7-0.5,1-0.8c1.3-1.1,2.4-2.7,3.2-4.4
			c0.4-0.9,0.8-1.8,1.1-2.7c0.2-0.5,0.3-1,0.4-1.4c0.1-0.5,0.2-1,0.3-1.3l0.3-2l2-0.5c2.2-0.5,4.4-1.3,6.3-2.2
			c2-0.9,3.8-2.1,5.3-3.5c1.5-1.4,2.8-3.1,3.8-5c1-1.9,1.8-3.9,2.4-6.1c0.6-2.2,1-4.4,1.2-6.8l0.1-0.9l0-0.2l0-0.1
			c0-0.1,0,0.1,0,0.1l0,0l0-0.1l0-0.5c0-0.6,0.1-1.3,0.1-1.8l0-1.6l-0.1-1.7c-0.2-2.3-0.5-4.5-1.1-6.8c-0.6-2.2-1.3-4.4-2.2-6.6
			c-0.9-2.1-2-4.2-3.2-6.2c-1.2-2-2.6-3.9-4.1-5.7c-1.5-1.8-3.2-3.5-4.9-5.1c-1.8-1.6-3.7-3-5.6-4.4c-2-1.3-4.1-2.5-6.2-3.5
			c-2.2-1-4.4-1.9-6.7-2.6c-2.3-0.7-4.6-1.3-7-1.6c-2.4-0.4-4.8-0.5-7.2-0.6l-0.5,0l-0.3-0.4c-1.7-2.3-4-4.1-6.5-5.4
			c-2.5-1.3-5.4-2.1-8.2-2.4c-5.8-0.7-11.7,0-17.4,1.5c-2.9,0.7-5.7,1.6-8.4,2.7c-2.7,1.1-5.4,2.3-8,3.6c-2.6,1.3-5.1,2.8-7.5,4.5
			c-1.2,0.8-2.3,1.7-3.4,2.6c-0.5,0.4-1.1,0.9-1.6,1.4c-0.6,0.5-1.1,1-1.5,1.5c-2,2-3.8,4.2-5.4,6.6c-1.6,2.3-2.9,4.8-3.9,7.4
			c-2.1,5.1-2.8,10.7-1.7,15.9c1.1,5.2,4,9.9,7.9,13.8c3.9,3.9,8.7,6.9,13.9,9.4l1.5,0.7l0.5,1.7c0.5,1.8,1.3,3.5,2.3,4.9
			c1,1.4,2.3,2.6,3.8,3.4c1.5,0.8,3.2,1.4,5,1.6c1.8,0.2,3.6,0,5-0.5c0,0,0.1,0,0.1,0l0.2-0.1l0.4-0.1c0.3-0.1,0.5-0.2,0.7-0.3
			c0.4-0.2,0.9-0.4,1.3-0.6c0.9-0.4,1.7-0.9,2.5-1.3c0.8-0.5,1.5-1.1,2.2-1.7c0.7-0.6,1.4-1.3,1.9-2c0.6-0.8,1.1-1.6,1.5-2.4
			c0.4-0.9,0.8-1.8,1.1-2.8c0.3-1,0.6-2,0.7-3.1c0.2-1.1,0.3-2.2,0.4-3.4l0.7-0.1c1,2.1,1.7,4.5,1.7,7c0.1,1.3,0,2.5-0.3,3.8
			c-0.2,1.3-0.6,2.6-1.2,3.8c-0.6,1.2-1.2,2.4-2.1,3.5c-0.8,1.1-1.8,2-2.8,2.9c-1,0.9-2.1,1.6-3.2,2.3c-0.6,0.3-1.1,0.6-1.7,0.9
			c-0.3,0.1-0.7,0.3-0.9,0.4l-0.4,0.2l-0.2,0.1c-0.2,0.1-0.2,0.1-0.3,0.1c-1.4,0.5-2.8,0.8-4.2,0.9c-1.4,0.1-2.8,0.1-4.1,0
			c-2.7-0.3-5.4-1.1-7.9-2.5c-2.4-1.4-4.6-3.3-6.2-5.6c-1.6-2.3-2.7-4.8-3.4-7.4l1.9,2.4c-5.6-2.9-11-6.4-15.6-11.1
			c-2.3-2.4-4.3-5-5.9-7.9c-1.6-2.9-2.8-6.1-3.4-9.4c-0.6-3.3-0.7-6.7-0.2-10c0.5-3.3,1.4-6.5,2.7-9.4c1.3-3,3-5.8,4.9-8.3
			c1.9-2.6,4.1-4.9,6.4-7c0.6-0.5,1.2-1.1,1.8-1.5c0.6-0.5,1.3-1,1.9-1.5c1.3-0.9,2.6-1.8,3.9-2.6c2.7-1.6,5.4-3,8.3-4.3
			c5.6-2.5,11.5-4.4,17.5-5.6c3-0.6,6.1-1,9.1-1.2c3.1-0.2,6.2-0.1,9.3,0.4c3.1,0.5,6.1,1.4,8.9,2.8c2.8,1.5,5.3,3.5,7.2,6.1
			l-0.8-0.4c2.5,0.1,5,0.2,7.5,0.6c2.5,0.3,4.9,0.9,7.3,1.5c2.4,0.7,4.8,1.5,7.1,2.5c2.3,1,4.6,2.1,6.7,3.4c2.2,1.3,4.3,2.7,6.2,4.3
			c2,1.6,3.9,3.3,5.6,5.1c1.8,1.8,3.4,3.8,4.9,5.9c1.5,2.1,2.9,4.2,4,6.6c1.2,2.3,2.2,4.7,3,7.2c0.8,2.5,1.3,5,1.7,7.7
			c0.1,0.7,0.1,1.3,0.2,2l0.1,2.1c0,0.7,0,1.2,0,1.9l0,0.5l0,0.3l0,0.2l-0.1,1c-0.2,2.6-0.6,5.2-1.2,7.7c-0.6,2.6-1.5,5.1-2.9,7.6
			c-1.3,2.4-3,4.7-5.1,6.6c-2.1,1.9-4.5,3.4-6.9,4.5c-2.5,1.1-5,1.9-7.6,2.5l2.3-2.5c-0.1,0.8-0.3,1.3-0.4,1.9
			c-0.2,0.6-0.4,1.2-0.6,1.8c-0.4,1.2-0.9,2.3-1.5,3.5c-1.2,2.3-2.7,4.5-4.9,6.2c-0.5,0.4-1.1,0.8-1.7,1.2c-0.3,0.2-0.6,0.3-0.9,0.5
			c-0.3,0.2-0.7,0.4-1,0.5l-0.4,0.1l-0.2,0.1l-0.1,0.1l-0.1,0l-0.1,0c-0.3,0.1-0.6,0.2-0.9,0.3c-0.6,0.2-1.2,0.3-1.8,0.4
			c-1.2,0.3-2.4,0.5-3.5,0.6c-0.6,0.1-1.2,0.2-1.8,0.2c-0.6,0.1-1.2,0.1-1.8,0.2l2.4-2.8l0.9,16.1l0.4,6.2l-4.1-4.5l-6.9-7.5
			c-2.3-2.5-4.6-5-6.8-7.5l0.9,0.4c-1.8-0.2-3.5-0.5-5.3-0.9c-1.8-0.4-3.5-1-5.2-1.9c-1.6-0.9-3.2-2.1-4.2-3.7
			c-0.5-0.8-0.9-1.6-1.2-2.5c-0.3-0.8-0.5-1.7-0.8-2.5L289.8,97.1z"/>
	</g>
	<g>
		<path d="M287.2,82.4c0.5-0.1,1-0.1,1.5-0.2c0.5,0,1-0.1,1.5-0.2c1-0.2,1.8-0.3,2.8-0.5l1.4-0.3c0.5-0.1,0.9-0.2,1.4-0.3
			c0.9-0.2,1.8-0.5,2.7-0.7c0.9-0.2,1.8-0.6,2.6-0.8c0.9-0.2,1.7-0.7,2.6-0.9c0.9-0.3,1.7-0.7,2.6-1c0.9-0.3,1.8-0.6,2.7-0.9
			c0.9-0.3,1.8-0.7,2.7-1c0.9-0.3,1.8-0.8,2.6-1.3c0.4-0.2,0.9-0.5,1.3-0.7c0.4-0.3,0.8-0.6,1.2-0.9c0.4-0.3,0.8-0.6,1.1-0.9
			c0.4-0.3,0.7-0.7,1-1c0.7-0.7,1.3-1.4,1.8-2.2c0.3-0.4,0.5-0.8,0.8-1.2c0.3-0.4,0.5-0.8,0.7-1.3c0.4-0.9,0.9-1.7,1.2-2.6
			c0.3-0.9,0.7-1.8,1-2.6L326,64c-0.8,0-1.6-0.1-2.3-0.1c-0.8-0.1-1.5-0.2-2.3-0.2l-2.3-0.1c-0.8,0-1.5,0.1-2.2,0.1
			c-0.7,0-1.5,0.1-2.2,0.2c-0.4,0-0.7,0.1-1.1,0.1c-0.3,0-0.7,0.1-1,0.2c-0.3,0.1-0.7,0.1-1,0.2c-0.3,0-0.6,0.2-1,0.3l-1,0.3
			c-0.3,0.1-0.6,0.3-0.9,0.4c-0.3,0.1-0.6,0.2-0.9,0.4c-0.3,0.2-0.6,0.3-0.9,0.5l-0.4,0.2l-0.4,0.3c-0.3,0.2-0.6,0.4-0.8,0.6
			c-0.3,0.2-0.5,0.4-0.8,0.6c-0.3,0.2-0.6,0.4-0.8,0.7c-0.5,0.5-1.1,1-1.6,1.6c-0.5,0.5-1.1,1.1-1.6,1.7c-0.5,0.6-1.1,1.2-1.6,1.8
			c-1.1,1.2-2.2,2.5-3.4,3.6l-0.5-0.3c0.2-0.8,0.4-1.6,0.7-2.4c0.3-0.8,0.5-1.6,0.8-2.3c0.3-0.8,0.6-1.6,0.9-2.3
			c0.3-0.8,0.7-1.5,1.1-2.3c0.4-0.8,0.9-1.5,1.4-2.3c0.5-0.7,1.1-1.4,1.7-2.1c0.3-0.3,0.7-0.7,1-1l0.5-0.5l0.6-0.4
			c0.4-0.3,0.8-0.6,1.2-0.8c0.4-0.3,0.8-0.5,1.3-0.7c0.4-0.2,0.9-0.4,1.3-0.6l1.3-0.5c0.9-0.3,1.8-0.5,2.7-0.7
			c0.5-0.1,0.9-0.2,1.4-0.2c0.4,0,0.9,0,1.4-0.1l1.3,0c0.5,0,0.9,0.1,1.3,0.1c0.9,0.1,1.8,0.1,2.6,0.2l2.5,0.4
			c0.8,0.1,1.7,0.3,2.5,0.6c0.8,0.2,1.6,0.5,2.4,0.7l3.3,1l-1.7,2.3c-0.6,0.9-1.3,1.7-1.9,2.5c-0.7,0.8-1.4,1.6-2.1,2.3
			c-0.7,0.8-1.5,1.5-2.2,2.2c-0.7,0.7-1.5,1.4-2.2,2.1l-1.1,1.1c-0.4,0.3-0.8,0.7-1.1,1c-0.4,0.3-0.7,0.7-1.1,1.1l-1.1,1
			c-0.7,0.7-1.5,1.5-2.3,2.1c-0.8,0.7-1.6,1.4-2.4,2c-0.9,0.6-1.7,1.3-2.6,1.8c-0.9,0.5-1.9,1-2.9,1.3c-1,0.3-2,0.7-3,0.9
			c-1,0.2-2.1,0.5-3.1,0.6c-1.1,0.1-2.1,0.2-3.2,0.2c-0.5,0-1.1,0-1.6,0c-0.5,0-1.1-0.1-1.6-0.2c-0.5-0.1-1-0.1-1.6-0.3l-1.6-0.4
			c-0.5-0.1-1-0.4-1.4-0.6c-0.5-0.2-0.9-0.5-1.4-0.7L287.2,82.4z"/>
	</g>
	<g>
		<path d="M274.5,91.2c0.7-0.4,1.5-0.7,2.1-1.1c0.6-0.4,1.2-0.7,1.8-1.2c0.3-0.2,0.6-0.4,0.9-0.7l0.8-0.7c0.3-0.2,0.5-0.5,0.7-0.7
			c0.2-0.3,0.5-0.5,0.7-0.8c0.8-1.1,1.4-2.2,1.9-3.4c0.4-1.2,0.8-2.5,0.9-3.8c0.2-1.3,0.2-2.6,0.1-3.9c-0.1-1.3-0.3-2.7-0.6-4
			c-0.1-0.7-0.3-1.3-0.5-2c-0.2-0.7-0.3-1.3-0.6-2c-0.2-0.7-0.4-1.3-0.7-2c-0.2-0.7-0.5-1.3-0.8-1.9c-0.3-0.6-0.5-1.3-0.8-1.9
			c-0.3-0.6-0.6-1.3-0.9-1.9c-0.3-0.6-0.6-1.3-1-1.9l-1.1-1.9l-1.2-1.8c-0.4-0.6-0.8-1.2-1.3-1.8c-0.4-0.6-0.9-1.2-1.3-1.8
			c-0.5-0.6-0.9-1.2-1.4-1.7l-1.4-1.7l-1.5-1.7c-0.5-0.6-1-1.1-1.5-1.7c-0.5-0.6-1-1.1-1.6-1.7l-1.6-1.6c-0.6-0.5-1.1-1-1.7-1.5
			c-1.1-1-2.4-1.9-3.6-2.8l2-1.1c-0.1,1.2-0.1,2.4-0.1,3.6c-0.1,1.2,0.1,2.4,0.1,3.6c0.1,0.6,0.1,1.2,0.2,1.8
			c0.1,0.6,0.2,1.2,0.3,1.8c0.3,1.2,0.5,2.3,0.9,3.5c0.4,1.1,0.7,2.3,1.2,3.3c0.5,1.1,0.9,2.2,1.4,3.2c0.5,1,1,2.1,1.5,3.1
			c0.6,1,1,2,1.5,3c0.6,0.9,1,1.9,1.6,2.8l0.9,1.4c0.3,0.5,0.6,0.9,0.9,1.3c0.3,0.4,0.7,0.9,1,1.3c0.3,0.4,0.7,0.8,1.1,1.2
			c0.4,0.4,0.7,0.8,1.1,1.2c0.4,0.4,0.8,0.7,1.2,1.1c0.8,0.8,1.7,1.5,2.5,2.2c0.4,0.4,0.9,0.7,1.4,1c0.5,0.3,0.9,0.7,1.4,1
			c1,0.7,2,1.2,3,1.9c1,0.6,2.1,1.2,3.2,1.9l-0.2,0.8c-1.3,0-2.5-0.1-3.8-0.2c-1.2-0.2-2.5-0.4-3.8-0.8c-0.6-0.2-1.2-0.4-1.9-0.6
			c-0.6-0.2-1.2-0.4-1.8-0.7c-1.2-0.6-2.4-1.1-3.5-1.9c-0.6-0.4-1.1-0.7-1.7-1.1c-0.5-0.4-1-0.8-1.6-1.3c-0.5-0.4-1-0.9-1.5-1.3
			c-0.5-0.5-0.9-1-1.4-1.5c-1-1-1.7-2.1-2.5-3.2c-0.4-0.5-0.7-1.1-1.1-1.7c-0.3-0.6-0.6-1.2-0.9-1.8c-0.6-1.2-1-2.5-1.4-3.7
			c-0.4-1.3-0.6-2.6-0.9-3.8c-0.2-1.3-0.3-2.6-0.4-3.9c-0.1-1.3-0.1-2.6-0.2-3.8c-0.1-1.3,0-2.5,0-3.8c0-1.2,0-2.5,0-3.7
			c0-1.2-0.1-2.5-0.1-3.7c0-1.2-0.1-2.5-0.1-3.7l-0.1-2.4l2.2,1.2c1.4,0.8,2.8,1.5,4.2,2.3l2.1,1.1l2.1,1.2c1.4,0.8,2.8,1.7,4.1,2.7
			l2,1.5c0.6,0.5,1.3,1.1,1.9,1.6c0.6,0.5,1.2,1.1,1.8,1.7c0.6,0.6,1.2,1.2,1.7,1.8c0.5,0.6,1.1,1.2,1.6,1.9l1.6,2
			c1,1.4,2,2.7,2.8,4.2c0.9,1.5,1.7,3,2.4,4.5c0.4,0.8,0.7,1.6,1,2.4c0.1,0.4,0.3,0.8,0.4,1.2l0.3,1.3c0.5,1.7,0.8,3.4,1,5.2
			c0.2,1.8,0.2,3.6,0.1,5.4c-0.2,1.8-0.5,3.6-1.1,5.3c-0.5,1.8-1.4,3.4-2.5,4.9c-0.6,0.7-1.1,1.5-1.8,2.1c-0.6,0.7-1.4,1.2-2.1,1.8
			c-1.5,1-3.1,1.8-4.8,2.2c-0.8,0.3-1.7,0.3-2.5,0.5c-0.4,0.1-0.8,0-1.2,0l-1.2,0L274.5,91.2z"/>
	</g>
</g>
</svg>
